<?xml version="1.0" standalone="no"?>
<!DOCTYPE svg PUBLIC "-//W3C//DTD SVG 1.1//EN" "http://www.w3.org/Graphics/SVG/1.1/DTD/svg11.dtd" >
<svg xmlns="http://www.w3.org/2000/svg" xmlns:xlink="http://www.w3.org/1999/xlink" version="1.1">
<metadata>
Created by FontForge 20150824 at Wed Oct 12 14:17:48 2016
 By Everything Fonts
Copyright (c) 2011 by DMF. All rights reserved.
</metadata>
<defs>
<font id="arreial" horiz-adv-x="1366" >
  <font-face 
    font-family="arreial"
    font-weight="900"
    font-stretch="normal"
    units-per-em="2048"
    panose-1="2 0 5 3 0 0 0 2 0 4"
    ascent="1638"
    descent="-410"
    x-height="1062"
    cap-height="1466"
    bbox="-98.1786 -535.12 2064.22 1828"
    underline-thickness="123"
    underline-position="-439"
    unicode-range="U+0020-2122"
  />
<missing-glyph horiz-adv-x="460" 
 />
    <glyph glyph-name=".notdef" horiz-adv-x="460" 
 />
    <glyph glyph-name=".null" horiz-adv-x="0" 
 />
    <glyph glyph-name="nonmarkingreturn" horiz-adv-x="683" 
 />
    <glyph glyph-name="space" unicode=" " horiz-adv-x="460" 
 />
    <glyph glyph-name="exclam" unicode="!" horiz-adv-x="623" 
d="M61 1368q0 24 16 40t40 16h389q24 0 39.5 -16t15.5 -40v-306l-74 -603q-4 -18 -19 -32.5t-37 -14.5h-242q-18 0 -35.5 15t-19.5 34q-5 39 -10.5 88t-12.5 103.5t-13.5 111.5t-13.5 110.5t-12.5 102t-10.5 85.5v306zM74 377q0 23 16 39.5t39 16.5h365q24 0 39.5 -16.5
t15.5 -39.5v-321q0 -23 -15.5 -39.5t-39.5 -16.5h-365q-23 0 -39 16.5t-16 39.5v321z" />
    <glyph glyph-name="quotedbl" unicode="&#x22;" horiz-adv-x="1024" 
d="M22 1368q0 24 15 40t40 16h363q25 0 40.5 -16t15.5 -40v-219l-58 -275q-4 -17 -19.5 -31t-35.5 -14h-246q-20 0 -35.5 14t-18.5 31q-8 37 -18 78.5t-18 79.5l-12 58t-13 58v220zM542 1368q0 24 15 40t40 16h363q25 0 40.5 -16t15.5 -40v-219l-58 -275q-4 -17 -19.5 -31
t-35.5 -14h-246q-20 0 -35.5 14t-18.5 31q-8 37 -18 78.5t-18 79.5l-12 58t-13 58v220z" />
    <glyph glyph-name="numbersign" unicode="#" horiz-adv-x="1314" 
d="M235 653q2 8 3.5 14.5t3.5 13.5q2 12 4 20.5t3.5 17t3.5 18t5 21.5q0 1 2 9h-152q-23 0 -39 16t-16 40v247q0 23 16 39.5t39 16.5h220q3 16 7 32.5t7 33.5q3 14 6.5 28.5t6.5 29.5l30 152q4 17 20 31t36 14h254q29 0 44.5 -21.5t11.5 -46.5q-7 -32 -13 -62.5t-12 -60.5
q-4 -17 -7 -32.5t-6.5 -30.5t-6.5 -31.5t-7 -35.5h81q6 31 12 61.5t13 62.5q8 38 15 76.5t15 75.5q4 17 21 31t35 14h254q13 0 24 -6t18.5 -16t11 -22.5t2.5 -24.5q-8 -36 -14 -66t-12 -59.5t-12 -60t-13 -66.5h55q25 0 40.5 -16.5t15.5 -39.5v-247q0 -24 -15.5 -40
t-40.5 -16h-128q-1 -5 -1 -8t-2 -8q-2 -6 -3 -12l-2 -12q-3 -14 -5 -24l-4 -20q-2 -8 -2 -12t-2 -18h149q25 0 40.5 -16.5t15.5 -39.5v-248q0 -23 -15.5 -39.5t-40.5 -16.5h-221l-12 -57q-4 -17 -7 -33t-7 -32q-7 -36 -14 -73.5t-14 -74.5q-4 -17 -21.5 -31t-34.5 -14h-255
q-29 0 -45 19.5t-11 47.5l50 248h-82q-5 -26 -10.5 -52t-10.5 -52q-1 -4 -2 -8.5t-2 -9.5q-5 -20 -8.5 -39t-7.5 -39q-3 -17 -7 -35t-7 -35t-19 -31t-36 -14h-253q-29 0 -44 19.5t-11 45.5l53 250h-58q-23 0 -39 16.5t-16 39.5v248q0 23 16 39.5t39 16.5h127zM603 653h82
q2 8 3 14.5t3 13.5q2 11 4 20t4 16q1 6 2 10.5t2 9.5t2.5 12t3.5 18h-80z" />
    <glyph glyph-name="dollar" unicode="$" horiz-adv-x="1320" 
d="M853 950q-18 -3 -35 8.5t-24 26.5q-2 3 -2 4.5t-1 3.5q-1 1 -1 2q0 2 -1 4v-71q124 -35 209.5 -73.5t134.5 -80.5q140 -125 140 -316q0 -55 -13.5 -106.5t-37 -97.5t-55.5 -85t-69 -70q-39 -32 -79.5 -53.5t-81.5 -35.5q-32 -11 -67.5 -18.5t-80.5 -11.5v-115
q0 -24 -16 -39.5t-40 -15.5h-131q-25 0 -40.5 15.5t-15.5 39.5v118q-52 7 -96 17.5t-82 24.5q-45 17 -84.5 41t-74.5 56q-33 30 -58.5 62.5t-44.5 68.5t-32 77.5t-21 90.5q-5 24 9 44t37 24l364 41q20 2 38.5 -11.5t22.5 -33.5q5 -27 10.5 -50t11.5 -37v153
q-73 21 -131.5 41.5t-94.5 36.5q-87 44 -153 136q-63 96 -63 230q0 91 32 167.5t95 138.5q60 54 136.5 87t178.5 42v38q0 24 15.5 40t40.5 16h131q24 0 40 -16t16 -40v-38q99 -11 174 -39.5t129 -73.5t88 -107t51 -139q5 -25 -7.5 -43.5t-36.5 -23.5zM546 1071l18 -6
q-8 -11 -8 -28q0 -9 2.5 -17t6.5 -15l-19 -5v71zM789 348q19 13 27 28.5t8 34.5q0 21 -19 41q-6 8 -16 17v-121z" />
    <glyph glyph-name="percent" unicode="%" horiz-adv-x="1867" 
d="M1170 1414v-1q4 12 21 23t30 11h188q16 0 28.5 -7.5t19.5 -19.5t7.5 -27t-6.5 -30q-93 -171 -188 -346.5t-192 -353.5q-97 -179 -191.5 -354t-187.5 -346q-5 -10 -21 -20.5t-28 -10.5h-186q-17 0 -30 7.5t-20 19.5t-7.5 27t8.5 30zM50 1045q0 106 44 199q23 47 61 85.5
t85 65.5q47 25 102.5 38.5t118.5 13.5q185 0 298 -110q57 -56 84.5 -127.5t27.5 -164.5q0 -182 -112 -290q-111 -110 -298 -110q-130 0 -224.5 52t-142.5 150q-22 48 -33 96t-11 102zM413 1043q0 -46 6 -78.5t18 -49.5q6 -9 24 -9q15 0 19 8q28 39 28 129t-26 130
q-7 9 -21 9q-16 0 -24 -10q-24 -36 -24 -129zM996 336q0 104 44 198q46 97 145 152q48 25 103 38t118 13q192 0 299 -111q112 -108 112 -290q0 -179 -112 -292q-56 -54 -130 -82t-169 -28q-128 0 -223 53t-143 150q-44 93 -44 199zM1359 334q0 -96 24 -130q5 -8 23 -8t24 9
q24 36 24 129q0 47 -6 80t-20 52q-4 6 -22 6q-17 0 -22 -9q-25 -34 -25 -129z" />
    <glyph glyph-name="ampersand" unicode="&#x26;" horiz-adv-x="1626" 
d="M1437 684q22 -5 35 -24.5t7 -45.5q-11 -40 -23 -74t-23 -57v1q-8 -23 -17 -41t-18 -35q12 -8 23.5 -16.5t24.5 -16.5q11 -8 22 -15t22 -15q8 -4 16 -9t17 -11q2 -1 3 -2t7 -4q2 -2 5 -3t5 -3q3 -2 5 -3l5 -3l-2 2q14 -8 22.5 -21t8.5 -29q0 -17 -14 -36
q-48 -57 -97.5 -112.5t-98.5 -112.5q-6 -6 -15 -10t-19 -6t-19.5 -1.5t-15.5 5.5v-1q-24 13 -57.5 32.5t-59.5 36.5q-8 5 -16 10.5t-16 10.5q-6 4 -8.5 5.5t-5.5 3.5q-5 4 -9.5 7t-13.5 8q-44 -26 -88 -46t-89 -33q-66 -20 -147.5 -31t-167.5 -11q-138 0 -246 32.5
t-180 89.5q-70 63 -109 141.5t-39 166.5q0 63 23 125.5t63 119.5q72 89 204 157q-41 55 -61 107q-32 76 -32 153q0 166 127 273q60 51 149.5 77.5t208.5 26.5q122 0 211.5 -25.5t148.5 -74.5q124 -103 124 -249q0 -85 -38 -155q-19 -35 -40.5 -64.5t-47.5 -52.5v1
q-17 -15 -43.5 -35.5t-64.5 -45.5q21 -22 42 -40.5t47 -41.5l1 2v-1l6 18q2 4 3 7.5t3 8.5l-1 -1q1 3 1.5 6.5t3.5 8.5l-1 -1q5 20 25.5 31t38.5 5h-1zM707 910q-12 1 -19.5 9.5t-9.5 18.5t2.5 20t16.5 15q3 1 5 3t4 2.5t4 2.5h-1q9 5 21 3.5t20 -8.5l7 -7q2 -4 4 -5
q8 -9 9 -20t-3.5 -20t-13.5 -14.5t-21 -3.5zM678 1085q0 -25 54 -90q38 26 60 52t22 46t-17.5 32.5t-47.5 12.5q-34 0 -53 -19q-18 -15 -18 -34zM608 619q12 -2 19.5 -8.5t10 -16t-1 -19.5t-13.5 -17q-2 0 -5 -3l-6 -3q-9 -8 -23 -8t-23 9l-12 12q-9 9 -10.5 19.5t3 19.5
t13.5 14t21 4zM845 327q-1 -6 -6 -8.5t-10 1.5q-6 5 -13 11t-15 13q-5 3 -3.5 8t6.5 7q8 3 15.5 7t14.5 9q6 4 11 1t4 -10zM670 323q29 0 57.5 7.5t61.5 21.5q-42 35 -91.5 78t-110.5 102q-37 -30 -48 -48l1 1q-17 -26 -17 -49q0 -45 37 -76q40 -37 110 -37z" />
    <glyph glyph-name="quotesingle" unicode="'" horiz-adv-x="590" 
d="M58 1368q0 24 15 40t40 16h363q25 0 40.5 -16t15.5 -40v-219l-58 -275q-4 -17 -19.5 -31t-35.5 -14h-246q-20 0 -35.5 14t-18.5 31q-8 37 -18 78.5t-18 79.5l-12 58t-13 58v220z" />
    <glyph glyph-name="parenleft" unicode="(" horiz-adv-x="767" 
d="M643 1447q15 0 26.5 -7t18.5 -18.5t8.5 -25.5t-2.5 -28q-25 -57 -49.5 -119t-46 -123.5t-39.5 -120.5t-31 -108q-9 -42 -16.5 -89.5t-13 -97.5t-9 -100.5t-3.5 -98.5q0 -398 206 -816v1q8 -15 7.5 -29.5t-8 -26.5t-20 -19t-28.5 -7h-226q-11 0 -26.5 8.5t-20.5 17.5
q-42 60 -80 121t-70.5 119.5t-58 113t-42.5 103.5q-37 103 -55.5 212.5t-18.5 223.5q0 235 77 449q38 105 101 216t148 225q7 8 21 16t25 8h226z" />
    <glyph glyph-name="parenright" unicode=")" horiz-adv-x="797" 
d="M154.039 1447q-14.999 0 -26.498 -7t-18.499 -18.5t-8.49902 -25.5q-1.5 -14 2.49902 -28q24.999 -57 49.4971 -119q24.499 -62 45.9971 -123.5q21.499 -61.5 39.498 -120.5t30.998 -108q8.99902 -42 16.499 -89.5t12.999 -97.5q5.5 -50 9 -100.5
q3.49902 -50.5 3.49902 -98.5q0 -398 -205.987 -816v1q-7.99902 -15 -7.49902 -29.5t7.99902 -26.5q7.5 -12 19.999 -19t28.498 -7h225.986q10.999 0 26.498 8.5t20.499 17.5q41.9971 60 79.9951 121t70.4961 119.5t57.9961 113t42.4971 103.5q36.998 103 55.4971 212.5
t18.499 223.5q0 235 -76.9951 449q-37.998 105 -100.994 216t-147.991 225q-6.99902 8 -20.999 16q-13.999 8 -24.998 8h-225.986z" />
    <glyph glyph-name="asterisk" unicode="*" horiz-adv-x="914" 
d="M463 839q-2 -2 -3 -5t-3 -5q6 -3 10 -2t2 6q-13 27 -29 63t-30 67t-22.5 49.5t-6.5 10.5t16.5 -50t47.5 -133zM121 1272q8 23 30 33t45 1l125 -56l-19 134q-2 25 14.5 44t40.5 19h198q26 0 42 -20t14 -43q-2 -18 -4.5 -35t-4.5 -35l-4 -32t-4 -33v-1l12.5 5t16.5 7l14 6
t15 8q11 5 23.5 11t22.5 11l21 9q23 11 45.5 -0.5t33.5 -31.5q7 -23 14 -47t15 -47q8 -24 15.5 -47.5t15.5 -46.5q8 -26 -5 -47.5t-37 -26.5l-131 -28q5 -4 9 -8.5t8 -9.5q15 -17 31 -33.5t30 -33.5q2 -2 3 -3.5t3 -3.5q14 -19 14 -38q0 -26 -22 -42q-20 -16 -40 -31
l-40 -30q-21 -16 -41 -30.5t-40 -29.5q-14 -12 -34 -12q-34 0 -49 32v-1l-12 20q-14 23 -26.5 46.5t-24.5 47.5q-9 -17 -18 -33.5t-19 -32.5q-8 -13 -14.5 -26t-13.5 -24q-17 -28 -49 -28q-8 0 -16.5 3t-15.5 8q-40 29 -83 60t-83 60q-23 17 -23 44q0 21 16 40l94 95
q-3 0 -4 1q-5 0 -7.5 0.5t-4.5 1.5q-19 4 -38.5 7t-38.5 6l-35 6q-26 5 -39 26t-5 48l65 187h-1z" />
    <glyph glyph-name="plus" unicode="+" horiz-adv-x="1168" 
d="M40 856q0 23 16 39.5t39 16.5h287v288q0 26 16 41t40 15h289q24 0 40 -15t16 -41v-288h289q24 0 40 -16.5t16 -39.5v-291q0 -22 -16 -38.5t-40 -16.5h-289v-287q0 -24 -16 -39.5t-40 -15.5h-289q-24 0 -40 15.5t-16 39.5v287h-287q-23 0 -39 16.5t-16 38.5v291z" />
    <glyph glyph-name="comma" unicode="," horiz-adv-x="614" 
d="M62 417q0 24 16 40t40 16h389q24 0 39.5 -16t15.5 -40v-299q0 -183 -79 -295q-77 -106 -260 -187q-20 -8 -39.5 -1.5t-29.5 26.5v-1q-22 39 -43 79t-42 79q-10 21 -1.5 45t26.5 34q46 22 77.5 41.5t45.5 38.5q5 5 9 11t6 12h-114q-24 0 -40 16.5t-16 39.5v361z" />
    <glyph glyph-name="hyphen" unicode="-" horiz-adv-x="768" 
d="M63 675q0 24 15.5 40t40.5 16h530q23 0 39.5 -16t16.5 -40v-281q0 -24 -16.5 -40t-39.5 -16h-530q-25 0 -40.5 16t-15.5 40v281z" />
    <glyph glyph-name="hyphen" unicode="&#xad;" horiz-adv-x="768" 
d="M63 675q0 24 15.5 40t40.5 16h530q23 0 39.5 -16t16.5 -40v-281q0 -24 -16.5 -40t-39.5 -16h-530q-25 0 -40.5 16t-15.5 40v281z" />
    <glyph glyph-name="period" unicode="." horiz-adv-x="626" 
d="M63 421q0 23 16 39t40 16h389q24 0 39.5 -16t15.5 -39v-365q0 -23 -15.5 -39.5t-39.5 -16.5h-389q-24 0 -40 16.5t-16 39.5v365z" />
    <glyph glyph-name="slash" unicode="/" horiz-adv-x="707" 
d="M371 1404q4 16 19 29.5t35 13.5h187q28 0 43.5 -21.5t10.5 -48.5l-330 -1356q-4 -17 -19 -30t-35 -13h-185q-28 0 -44 20t-9 49z" />
    <glyph glyph-name="zero" unicode="0" horiz-adv-x="1294" 
d="M55 717q0 396 148 562q76 83 189 125.5t264 42.5q72 0 131.5 -10t108 -27.5t86.5 -42.5t68 -55q59 -56 94 -122.5t56 -148.5q19 -77 29 -158t10 -162q0 -370 -133 -556q-137 -188 -460 -188q-178 0 -293 59h1q-59 30 -106.5 74.5t-83.5 98.5q-26 43 -47.5 97.5
t-35.5 121.5q-14 63 -20 135.5t-6 153.5zM527 717q0 -120 10 -199.5t28 -119.5q28 -60 80 -60q35 0 61.5 29t40.5 89q8 38 13 101.5t5 149.5q0 127 -10 207.5t-29 119.5q-28 58 -83 58q-54 0 -80 -58q-17 -42 -26.5 -120.5t-9.5 -196.5z" />
    <glyph glyph-name="one" unicode="1" horiz-adv-x="960" 
d="M841 1447q23 0 39.5 -16.5t16.5 -39.5v-1335q0 -23 -16.5 -39.5t-39.5 -16.5h-369q-24 0 -39.5 16.5t-15.5 39.5v767q-14 -8 -34.5 -15t-56 -14.5t-89.5 -14.5t-134 -13h2q-29 -8 -50.5 7t-21.5 47v352q0 17 12.5 33t26.5 20q123 19 198.5 41t119.5 45.5t64 49t34 52.5
q5 12 21 23t30 11h302z" />
    <glyph glyph-name="two" unicode="2" horiz-adv-x="1317" 
d="M1259 56q0 -23 -16 -39.5t-39 -16.5h-1095q-22 0 -38 20t-17 43q11 83 43 169t80 160q50 74 144.5 162.5t225.5 187.5q75 57 124.5 100t70.5 70q17 23 25 44t8 40q0 35 -28 59q-29 31 -72 31q-46 0 -76 -30q-14 -15 -25 -45t-16 -78q-4 -20 -20.5 -33.5t-39.5 -13.5
l-366 30q-23 3 -39 20t-12 43q13 81 34.5 147t52.5 115q33 48 81.5 88t105.5 66q57 25 135 38.5t176 13.5q100 0 180 -13t140 -36q59 -26 108 -66.5t84 -88.5q35 -52 53.5 -111.5t18.5 -123.5q0 -68 -20.5 -134t-59.5 -127q-38 -57 -105.5 -121t-163.5 -132
q-28 -19 -47.5 -32.5t-33 -23t-23 -16.5t-17.5 -14h424q23 0 39 -16t16 -39v-297z" />
    <glyph glyph-name="three" unicode="3" horiz-adv-x="1307" 
d="M124 925q-23 5 -36.5 24.5t-7.5 44.5q12 46 30 97.5t41 100t51.5 89.5t62.5 66q69 48 163.5 74t216.5 26q140 0 240.5 -28t166.5 -81q135 -114 135 -284q0 -152 -122 -260l11 -5.5t10 -5.5q1 -1 1.5 -1t1.5 -1q75 -48 120 -126.5t45 -182.5q0 -132 -66 -247
q-67 -117 -198 -185q-126 -63 -321 -63q-89 0 -168 13.5t-135 34.5q-57 23 -106.5 58t-85.5 79q-18 22 -33.5 53t-29 66t-25 71.5t-21.5 68.5h1q-1 2 -1 3.5t-1 3.5l-2 4q-10 27 4.5 49.5t40.5 25.5l364 -1q22 3 40 -11t23 -34q10 -41 23.5 -75.5t25.5 -47.5q30 -27 78 -27
q23 0 43 8.5t35 25.5q37 43 37 107q0 66 -31.5 101t-87.5 35q-20 0 -45.5 -5t-59.5 -15q-14 -4 -27 -1t-23 11.5t-15 20.5t-4 27l19 261q2 27 21 40.5t42 10.5q14 -2 25 -3.5t15 -1.5q23 0 43.5 9t36.5 23v-1q32 30 32 69q0 34 -21.5 54.5t-57.5 20.5q-42 0 -67 -30.5
t-37 -98.5q-3 -21 -22.5 -35t-41.5 -12z" />
    <glyph glyph-name="four" unicode="4" horiz-adv-x="1345" 
d="M699 245h-608q-24 0 -39.5 15.5t-15.5 40.5v320l675 803q7 8 21 15.5t23 7.5h317q24 0 40 -16.5t16 -39.5v-752h109q24 0 40 -15.5t16 -40.5v-282q0 -25 -16 -40.5t-40 -15.5h-109v-189q0 -23 -16 -39.5t-40 -16.5h-317q-23 0 -39.5 16.5t-16.5 39.5v189zM699 639v208
q-14 -16 -25 -29.5t-25 -30.5l-30 -36q-2 -2 -3.5 -4t-3.5 -4q-15 -17 -24 -27.5t-17.5 -20.5t-19 -22.5t-28.5 -33.5h176z" />
    <glyph glyph-name="five" unicode="5" horiz-adv-x="1318" 
d="M223 1377q3 18 19 32.5t36 14.5h867q23 0 39 -16t16 -40v-290q0 -26 -16 -41t-39 -15h-539q0 -5 -1 -9q-1 -5 -1.5 -9t-1.5 -8v1q-2 -11 -2 -13.5t-1 -7.5l-2 -8q85 24 168 24q221 0 357 -133q141 -138 141 -340q0 -71 -18 -139.5t-52 -133.5q-35 -62 -87.5 -114
t-113.5 -86q-64 -34 -145.5 -51.5t-178.5 -17.5q-140 0 -239.5 27.5t-174.5 81.5q-36 28 -65 58.5t-52.5 66t-42 77t-33.5 91.5h1q-8 27 6.5 48t40.5 24l369 41q22 2 40 -12t22 -34q11 -65 44.5 -100t80.5 -35q49 0 82 37v-1q38 47 38 138q0 90 -35 131t-94 41
q-19 0 -38 -5.5t-37 -14.5h1q-14 -8 -30.5 -21.5t-35.5 -34.5v1q-6 -8 -22.5 -13.5t-26.5 -6.5q-36 5 -74.5 10.5t-76.5 11.5h1q-41 6 -82.5 12.5t-80.5 11.5q-20 4 -34.5 23t-12.5 40z" />
    <glyph glyph-name="six" unicode="6" horiz-adv-x="1301" 
d="M548 928q95 56 215 59q-15 13 -18 31q-11 50 -30 71.5t-45 21.5q-57 0 -90 -61q-11 -17 -18 -46t-14 -76zM865 979q138 -27 244 -136q70 -71 104 -159.5t34 -195.5q0 -72 -18.5 -139.5t-50.5 -124.5q-33 -59 -83 -106.5t-111 -79.5q-119 -61 -297 -61q-211 0 -343 75
q-135 75 -215 238q-37 79 -56 182t-19 233q0 378 163 557q168 185 456 185q83 0 150 -11.5t117 -30.5q52 -22 97 -52t77 -69v1q67 -76 103 -199q5 -24 -8 -44.5t-39 -24.5zM547 488q0 -42 10.5 -74t30.5 -55h-1q20 -21 42 -32t48 -11q46 0 78 35q35 40 35 128q0 89 -37 132
q-35 39 -82 39q-53 0 -87 -39h1q-18 -21 -28 -51.5t-10 -71.5z" />
    <glyph glyph-name="seven" unicode="7" horiz-adv-x="1270" 
d="M52 1368q0 24 16.5 40t38.5 16h1065q23 0 39.5 -16t16.5 -40v-246q0 -4 -2 -10t-4.5 -12t-5.5 -11.5t-6 -8.5q-68 -62 -124 -125.5t-99 -131.5q-106 -168 -171 -383q-26 -83 -42.5 -179.5t-25.5 -209.5q-2 -21 -18 -36t-38 -15h-363q-26 0 -42 18.5t-14 44.5
q22 159 57.5 300t81.5 253q39 89 98.5 189t132.5 200h-536q-22 0 -38.5 16t-16.5 39v308z" />
    <glyph glyph-name="eight" unicode="8" horiz-adv-x="1293" 
d="M55 441q0 109 39.5 190t124.5 136q-19 14 -35 31.5t-25 33.5l1 -1q-65 94 -65 209q0 197 179 316q135 91 351 91q142 0 248 -29t175 -83q73 -60 110.5 -134t37.5 -163q0 -49 -16.5 -100.5t-43.5 -96.5q-12 -18 -27.5 -37t-35.5 -36q83 -61 124.5 -146t41.5 -182
q0 -56 -13.5 -110t-38.5 -102q-52 -92 -129 -149q-74 -51 -180 -76.5t-224 -25.5q-109 0 -195 14t-146 41q-60 28 -109.5 71.5t-82.5 95.5q-32 53 -49 114.5t-17 127.5zM549 1019q0 -43 27.5 -69t73.5 -26q38 0 62 25.5t24 66.5q0 43 -25 70q-14 13 -30.5 20t-37.5 7
t-38.5 -7t-30.5 -18q-11 -13 -18 -29.5t-7 -39.5zM529 454q0 -63 37 -105q35 -36 82 -36q20 0 40 10t37 27q36 44 36 105q0 32 -9.5 58.5t-26.5 44.5q-18 18 -39 28.5t-43 10.5q-20 0 -40.5 -9.5t-37.5 -27.5t-26.5 -46t-9.5 -60z" />
    <glyph glyph-name="nine" unicode="9" horiz-adv-x="1301" 
d="M751 494q-48 -29 -99.5 -42.5t-114.5 -14.5q14 -14 18 -31q11 -49 30.5 -71t45.5 -22q55 0 88 60q11 18 18 45.5t14 75.5zM439 445q-72 12 -133.5 46t-114.5 88q-138 142 -138 356q0 148 69 264q71 123 194 185q121 63 298 63q104 0 191.5 -20t150.5 -56
q66 -38 120.5 -99.5t91.5 -139.5q79 -161 79 -413q0 -191 -41 -329.5t-123 -230.5q-165 -182 -457 -182q-83 0 -149.5 10t-117.5 31q-103 42 -172 121q-66 78 -103 194h1q-10 27 4.5 47.5t41.5 24.5zM753 936q0 41 -10.5 73.5t-30.5 54.5q-40 43 -88 43q-49 0 -81 -40.5
t-32 -122.5q0 -90 36 -130h-1q19 -20 39 -30.5t44 -10.5q52 0 86 40q38 41 38 123z" />
    <glyph glyph-name="colon" unicode=":" horiz-adv-x="626" 
d="M63 1006q0 23 16 39.5t40 16.5h389q24 0 39.5 -16.5t15.5 -39.5v-365q0 -23 -15.5 -39t-39.5 -16h-389q-24 0 -40 16t-16 39v365zM63 421q0 23 16 39t40 16h389q24 0 39.5 -16t15.5 -39v-365q0 -23 -15.5 -39.5t-39.5 -16.5h-389q-24 0 -40 16.5t-16 39.5v365z" />
    <glyph glyph-name="semicolon" unicode=";" horiz-adv-x="620" 
d="M64 1006q0 23 16 39.5t40 16.5h389q24 0 39.5 -16.5t15.5 -39.5v-365q0 -23 -15.5 -39t-39.5 -16h-389q-24 0 -40 16t-16 39v365zM64 417q0 24 16 40t40 16h389q24 0 39.5 -16t15.5 -40v-299q0 -183 -79 -295q-77 -106 -260 -187q-20 -8 -39.5 -1.5t-29.5 26.5v-1
q-22 39 -43 79t-42 79q-10 21 -1.5 45t26.5 34q46 22 77.5 41.5t45.5 38.5q5 5 9 11t6 12h-114q-24 0 -40 16.5t-16 39.5v361z" />
    <glyph glyph-name="less" unicode="&#x3c;" horiz-adv-x="1218" 
d="M1157 156q0 -15 -6.5 -27.5t-17.5 -19.5t-24.5 -8.5t-28.5 4.5l-1019 424l1 -1q-15 5 -24.5 20t-9.5 32v264q0 16 10 30.5t23 20.5q257 106 509.5 211.5t509.5 211.5q15 6 28.5 4.5t24.5 -9t17.5 -19.5t6.5 -27v-318q0 -15 -11 -30.5t-24 -20.5l-486 -187q23 -9 45 -18
t45 -18q29 -11 56.5 -21.5t55.5 -21.5q71 -28 141 -55.5t142 -53.5q13 -5 24.5 -20.5t11.5 -30.5v-316z" />
    <glyph glyph-name="equal" unicode="=" horiz-adv-x="1215" 
d="M63 1078q0 23 16 39t39 16h978q24 0 40 -16t16 -39v-292q0 -23 -16 -39.5t-40 -16.5h-978q-23 0 -39 16.5t-16 39.5v292zM63 637q0 23 16 39.5t39 16.5h978q24 0 40 -16.5t16 -39.5v-291q0 -23 -16 -39t-40 -16h-978q-23 0 -39 16t-16 39v291z" />
    <glyph glyph-name="greater" unicode="&#x3e;" horiz-adv-x="1352" 
d="M195.07 156q0 -15 6.5 -27.5t17.499 -19.5t24.498 -8.5t28.499 4.5l1018.94 424l-1 -1q14.999 5 24.498 20q9.5 15 9.5 32v264q0 16 -10 30.5q-9.99902 14.5 -22.998 20.5q-256.984 106 -509.469 211.5q-252.485 105.5 -509.469 211.5q-15 6 -28.499 4.5t-24.498 -9
t-17.499 -19.5t-6.5 -27v-318q0 -15 11 -30.5q10.999 -15.5 23.998 -20.5l485.971 -187q-22.999 -9 -44.9971 -18q-21.999 -9 -44.998 -18q-28.998 -11 -56.4961 -21.5t-55.4971 -21.5q-70.9951 -28 -140.991 -55.5q-69.9951 -27.5 -141.991 -53.5q-12.999 -5 -24.498 -20.5
q-11.5 -15.5 -11.5 -30.5v-316z" />
    <glyph glyph-name="question" unicode="?" horiz-adv-x="1189" 
d="M398 411q-25 0 -40.5 16.5t-15.5 39.5v34q0 47 6.5 87.5t17.5 72.5q11 34 29 64t39 53v-1q20 24 65 64.5t117 100.5q52 43 52 65q0 23 -15.5 35.5t-46.5 12.5q-40 0 -66.5 -31.5t-36.5 -109.5q-4 -23 -21 -36t-41 -12l-349 43q-22 4 -35.5 21.5t-11.5 39.5
q20 212 157 343q135 134 409 134q104 0 191 -24t156 -69q89 -63 138 -149t49 -189q0 -45 -12.5 -90t-35.5 -85q-23 -38 -72 -88t-114 -101q-41 -33 -66.5 -57.5t-34.5 -40.5q-16 -34 -16 -87q0 -23 -16.5 -39.5t-39.5 -16.5h-340zM330 377q0 23 16.5 39.5t38.5 16.5h366
q23 0 39 -16.5t16 -39.5v-321q0 -23 -16 -39.5t-39 -16.5h-366q-22 0 -38.5 16.5t-16.5 39.5v321z" />
    <glyph glyph-name="at" unicode="@" horiz-adv-x="1585" 
d="M1079 366q3 1 6.5 1.5t7.5 2.5v-4q-2 -5 -2 -6.5v-3.5zM1283 748q0 88 -21 160.5t-62 129.5q-27 -169 -54 -334t-53 -334q15 6 37 21q32 22 60 58t49 76q20 45 32 102.5t12 120.5zM1090 1139q-105 63 -251 63q-150 0 -278 -73q-61 -38 -110.5 -90t-81.5 -119
q-69 -141 -69 -315q0 -45 3.5 -85.5t11.5 -78.5q-6 46 -6 101q0 114 30.5 222t87.5 202q63 97 144.5 151t175.5 54q38 0 74 -10.5t67 -27.5q10 -6 19.5 -12.5t16.5 -12.5q8 13 21 22t30 9h115zM656 101q-102 0 -182 58q142 -124 353 -124t411 143q-2 -1 -3.5 -2t-3.5 -2
q-117 -72 -222 -72q-104 0 -156 69q-49 -38 -95.5 -54t-101.5 -16zM1455 417q-32 -66 -78 -119.5t-104 -95.5h201q26 0 41.5 -16t15.5 -37q0 -19 -15 -38h1q-38 -45 -76 -81t-74 -63q-51 -38 -112 -70t-129.5 -55.5t-143 -37t-151.5 -13.5q-222 0 -400 103
q-89 51 -159 125.5t-120 168.5q-48 94 -74 200.5t-26 217.5q0 121 26 228.5t76 204.5q52 98 121 172.5t156 129.5q89 53 189.5 80t217.5 27q306 0 499 -196q192 -195 192 -502q0 -90 -18 -173.5t-56 -159.5zM609 498q0 -45 8 -77.5t26 -55.5q17 -22 41 -22q35 0 65 31
q18 19 35.5 63.5t32.5 106.5q15 69 23.5 131t8.5 118q0 69 -24 96q-22 26 -46 26q-38 0 -65 -29q-26 -25 -45.5 -66.5t-32.5 -97.5q-12 -57 -19.5 -116.5t-7.5 -107.5z" />
    <glyph glyph-name="A" unicode="A" horiz-adv-x="1697" 
d="M1039 223h-390q-2 -6 -3 -11t-3 -10q-4 -14 -8.5 -28.5t-9.5 -30.5h1l-16 -52l-16 -52q-5 -16 -20 -27.5t-33 -11.5h-428q-16 0 -28 6.5t-19.5 17.5t-8.5 25t5 29v-1q63 170 126 338t127 339t127.5 339t127.5 337q5 14 20 25t32 11h456q14 0 30.5 -11t21.5 -25l508 -1354
q10 -29 -5.5 -52.5t-46.5 -23.5h-437q-18 0 -34.5 12t-21.5 26zM915 629q-11 35 -20 65.5t-18 60.5q-5 19 -10.5 38t-11.5 39q-3 10 -5 16l-3 9q0 3 -2 7q-1 -2 -1 -3.5t-1 -3.5q-4 -11 -7.5 -23t-7.5 -23h1q-3 -11 -6.5 -21t-6.5 -19h1q-6 -19 -10.5 -34.5t-9.5 -31.5
t-10.5 -34t-12.5 -42h141z" />
    <glyph glyph-name="B" unicode="B" horiz-adv-x="1481" 
d="M63 1410q0 23 16.5 39.5t40.5 16.5h782q109 0 193.5 -29t145.5 -83q59 -57 91 -128.5t32 -153.5q0 -71 -22.5 -130.5t-67.5 -112.5q-20 -24 -47 -44q103 -52 151 -137.5t48 -206.5q0 -59 -15.5 -114t-43 -102.5t-66.5 -87t-86 -67.5q-31 -19 -76 -31.5t-103 -20.5
q-72 -8 -120 -13t-75 -5h-721q-24 0 -40.5 16.5t-16.5 39.5v1354zM599 935h124q66 0 92 19t26 55q0 33 -25 51t-90 18h-127v-143zM599 404h155q77 0 109 22.5t32 61.5q0 32 -25 52q-14 13 -43 18.5t-74 5.5h-154v-160z" />
    <glyph glyph-name="C" unicode="C" horiz-adv-x="1547" 
d="M1451 662q20 -8 32 -28t8 -40q-17 -89 -51 -176.5t-81 -163.5t-104.5 -133.5t-120.5 -86.5q-128 -58 -322 -58q-232 0 -385 68q-152 72 -265 249q-109 175 -109 443q0 359 194 556q193 197 546 197q137 0 246 -29.5t187 -85.5q39 -27 75 -62t67.5 -84.5t58 -117
t46.5 -161.5q5 -26 -6.5 -46.5t-37.5 -25.5l-373 -2q-21 -5 -41.5 7t-25.5 31h1q-17 50 -33 73q-27 32 -68 54.5t-86 22.5q-56 0 -98 -23t-72 -67l1 1q-22 -36 -35.5 -95.5t-13.5 -139.5q0 -100 15 -169.5t40 -104.5q26 -29 63.5 -45.5t84.5 -16.5q95 0 139 50
q27 29 46 71.5t30 96.5q5 26 27.5 37t48.5 6z" />
    <glyph glyph-name="D" unicode="D" horiz-adv-x="1474" 
d="M63 1410q0 23 16.5 39.5t40.5 16.5h621q97 0 176.5 -14t141.5 -40q61 -28 115 -70t94 -91q38 -50 66.5 -109.5t47.5 -125.5t28.5 -136.5t9.5 -141.5q0 -115 -13 -204.5t-41 -154.5q-53 -130 -150 -218q-49 -45 -101.5 -76.5t-109.5 -45.5h1q-143 -39 -265 -39h-621
q-24 0 -40.5 16.5t-16.5 39.5v1354zM595 1047v-627h45q115 0 159 22q18 10 34.5 30t27.5 44q13 32 20 85t7 128q0 96 -14 160t-44 96q-53 62 -188 62h-47z" />
    <glyph glyph-name="E" unicode="E" horiz-adv-x="1375" 
d="M62 1410q0 23 15 39.5t41 16.5h1120q24 0 40.5 -16.5t16.5 -39.5v-289q0 -25 -16.5 -41.5t-40.5 -16.5h-645v-101h594q23 0 40 -16.5t17 -39.5v-276q0 -25 -17 -41t-40 -16h-594v-154h665q26 0 41 -15t15 -41v-307q0 -23 -15 -39.5t-41 -16.5h-1140q-26 0 -41 16.5
t-15 39.5v1354z" />
    <glyph glyph-name="F" unicode="F" horiz-adv-x="1249" 
d="M62 1410q0 23 15.5 39.5t40.5 16.5h1034q24 0 40.5 -16.5t16.5 -39.5v-291q0 -23 -16.5 -40t-40.5 -17h-557v-123h468q25 0 40.5 -16t15.5 -40v-274q0 -24 -15.5 -40.5t-40.5 -16.5h-468v-496q0 -23 -16.5 -39.5t-39.5 -16.5h-421q-25 0 -40.5 16.5t-15.5 39.5v1354z" />
    <glyph glyph-name="G" unicode="G" horiz-adv-x="1600" 
d="M699 489q-25 0 -41 16.5t-16 41.5v282q0 23 16 39.5t41 16.5h787q24 0 40 -16.5t16 -39.5v-755q0 -11 -8.5 -26.5t-15.5 -20.5q-20 -14 -38 -19.5t-33 -5.5q-21 0 -41 8t-37 18q-19 9 -43 18.5t-48 9.5q-21 0 -45.5 -7t-56.5 -24q-32 -18 -69.5 -28t-79.5 -14.5t-87 -5
t-93 -0.5h-28q-129 0 -234 22.5t-188 67.5t-146.5 112t-109.5 156q-89 174 -89 398q0 241 98.5 417t290.5 270q75 34 173 51.5t223 17.5q238 0 352 -43q63 -23 115 -60t95 -85q19 -22 40 -54t39.5 -71.5t33.5 -85.5t22 -97q2 -24 -8.5 -44.5t-36.5 -25.5q-23 -4 -46 -5.5
t-49 -1.5q-29 0 -59 1.5t-60 3.5q-29 2 -58.5 4t-58.5 2q-23 0 -44.5 -1.5t-41.5 -5.5q-18 -3 -37.5 9.5t-25.5 29.5q-19 58 -65 88.5t-117 30.5q-55 0 -99.5 -20t-76.5 -56l1 1q-35 -40 -52 -107t-17 -158q0 -200 69 -276q32 -38 79.5 -56.5t108.5 -18.5q59 0 115 17
q22 6 48.5 19.5t58.5 30.5v35h-363z" />
    <glyph glyph-name="H" unicode="H" horiz-adv-x="1532" 
d="M62 1410q0 23 16.5 39.5t40.5 16.5h418q25 0 40.5 -16.5t15.5 -39.5v-418h344v418q0 23 15.5 39.5t40.5 16.5h421q23 0 39.5 -16.5t16.5 -39.5v-1354q0 -23 -16.5 -39.5t-39.5 -16.5h-421q-25 0 -40.5 16.5t-15.5 39.5v491h-344v-491q0 -23 -15.5 -39.5t-40.5 -16.5h-418
q-24 0 -40.5 16.5t-16.5 39.5v1354z" />
    <glyph glyph-name="I" unicode="I" horiz-adv-x="657" 
d="M62 1410q0 23 16 39.5t41 16.5h419q25 0 41 -16.5t16 -39.5v-1354q0 -23 -16 -39.5t-41 -16.5h-419q-25 0 -41 16.5t-16 39.5v1354z" />
    <glyph glyph-name="J" unicode="J" horiz-adv-x="1291" 
d="M700 1410q0 23 16.5 39.5t40.5 16.5h419q25 0 40.5 -16.5t15.5 -39.5v-736q0 -118 -11 -211.5t-33 -158.5q-23 -67 -72 -127.5t-115 -106.5q-69 -46 -156.5 -70t-192.5 -24q-106 0 -193.5 16t-149.5 46q-63 32 -114 77.5t-85 105.5q-32 57 -51.5 131.5t-27.5 156.5
q1 20 15.5 38.5t32.5 22.5l402 54q23 -1 43 -17t20 -39q2 -85 13 -115q7 -22 32 -44h-1q5 -5 33 -5q40 0 59.5 39t19.5 132v835z" />
    <glyph glyph-name="K" unicode="K" horiz-adv-x="1667" 
d="M62 1410q0 23 17 39.5t40 16.5h417q25 0 41.5 -16.5t16.5 -39.5v-361q17 19 32 37.5t31 38.5l54 64t56 64q20 23 41 47.5t41 48.5t43 50.5t43 49.5q5 5 18.5 11t21.5 6h555q26 0 42 -17t16 -38t-17 -41l-463 -479q30 -48 59 -96.5t59 -97.5q30 -50 61 -99t61 -99
q63 -103 126 -205.5t127 -206.5l-1 1q5 -8 7 -17t2 -17q0 -23 -15.5 -38.5t-41.5 -15.5h-515q-6 0 -13.5 3t-15 7.5t-13.5 10.5t-8 12v-1q-34 66 -65 126.5t-62 121.5q-16 30 -30.5 58.5t-29.5 57t-30 58.5t-32 63q-14 -17 -29.5 -32.5t-30.5 -31.5q-12 -12 -22 -23.5
t-21 -22.5q-10 -10 -20 -19.5t-21 -20.5v-311q0 -23 -16.5 -39.5t-41.5 -16.5h-417q-23 0 -40 16.5t-17 39.5v1354z" />
    <glyph glyph-name="L" unicode="L" horiz-adv-x="1281" 
d="M62 1410q0 23 17.5 39.5t40.5 16.5h417q25 0 41 -16.5t16 -39.5v-964h596q24 0 40 -15.5t16 -40.5v-334q0 -23 -16 -39.5t-40 -16.5h-1070q-23 0 -40.5 16.5t-17.5 39.5v1354z" />
    <glyph glyph-name="M" unicode="M" horiz-adv-x="1759" 
d="M62 1410q0 23 16.5 39.5t40.5 16.5h551q16 0 32 -13t21 -29l158 -610q6 23 11.5 48t12.5 49v-1q17 66 34.5 133t34.5 135l63 246q5 16 21.5 29t33.5 13h548q24 0 40.5 -16.5t16.5 -39.5v-1354q0 -23 -16.5 -39.5t-40.5 -16.5h-341q-26 0 -41.5 16.5t-15.5 39.5v583
q-27 -103 -55.5 -214t-54.5 -214q-11 -42 -21.5 -84.5t-21.5 -85.5q-5 -16 -21.5 -28.5t-33.5 -12.5h-308q-19 0 -35 12.5t-21 28.5l-152 596v-581q0 -23 -16.5 -39.5t-40.5 -16.5h-342q-24 0 -40.5 16.5t-16.5 39.5v1354z" />
    <glyph glyph-name="N" unicode="N" horiz-adv-x="1531" 
d="M62 1410q0 23 15.5 39.5t41.5 16.5h390q11 0 26.5 -9t20.5 -16q38 -57 73 -107.5t68 -100.5q33 -48 64 -94.5t63 -93.5t66 -97t72 -105v567q0 23 15 39.5t41 16.5h395q23 0 39.5 -16.5t16.5 -39.5v-1354q0 -23 -16.5 -39.5t-39.5 -16.5h-395q-8 0 -20.5 6.5t-20.5 14.5
q-3 0 -5 4q-59 85 -110 159.5t-101 147.5q-25 36 -47.5 69t-45.5 66.5t-47.5 70t-52.5 78.5v-560q0 -23 -15.5 -39.5t-40.5 -16.5h-393q-26 0 -41.5 16.5t-15.5 39.5v1354z" />
    <glyph glyph-name="O" unicode="O" horiz-adv-x="1618" 
d="M52 732q0 356 200 556q201 201 554 201q183 0 322 -49.5t239 -148.5q100 -100 149.5 -235t49.5 -312q0 -127 -22.5 -231t-66 -187t-106.5 -147t-144 -111q-81 -45 -182 -68t-222 -23q-123 0 -224 19.5t-183.5 60t-148 103.5t-116.5 149q-99 166 -99 423zM583 730
q0 -185 63 -257q58 -70 163 -70q110 0 165 67q31 36 46 105.5t15 172.5q0 85 -15.5 144.5t-49.5 96.5q-60 70 -165 70q-100 0 -158 -69q-64 -73 -64 -260z" />
    <glyph glyph-name="P" unicode="P" horiz-adv-x="1359" 
d="M61 1410q0 23 15 39.5t41 16.5h694q129 0 224.5 -31.5t159 -91.5t95 -148t31.5 -201q0 -229 -141 -361q-140 -131 -414 -131h-173v-446q0 -23 -16 -39.5t-40 -16.5h-420q-26 0 -41 16.5t-15 39.5v1354zM593 890h46q98 0 133 27q28 24 28 65q0 20 -6 37.5t-20 31.5
q-26 26 -118 26h-63v-187z" />
    <glyph glyph-name="Q" unicode="Q" horiz-adv-x="1839" 
d="M1560 734q0 -142 -31 -256.5t-94 -209.5q4 -3 8.5 -6t8.5 -5q12 -8 20.5 -13.5t13.5 -8.5q5 -4 24 -15t44 -26t54 -32t54.5 -32t45.5 -26.5t27 -14.5q6 -5 12 -6q23 -9 33 -32.5t-4 -44.5l1 1q-24 -47 -46 -95l-36 -70t-35 -70q-10 -22 -31.5 -28.5t-42.5 1.5
q-15 7 -42.5 23t-62 36t-72.5 43.5t-72.5 44.5t-62 39t-42.5 28h1q-65 41 -100 70q-72 -28 -153 -40t-182 -12q-168 0 -297.5 43.5t-228.5 131.5q-228 205 -228 576q0 360 200 559q201 202 555 202q361 0 561 -197q200 -199 200 -558zM683 434q1 -1 2 -1zM638 472
q17 -22 45 -38q79 -22 137 -22q71 0 112.5 27t62.5 67t27 85.5t6 83.5q0 11 -0.5 20.5t-0.5 18.5v22q0 183 -62 254h1q-60 69 -167 69q-50 0 -89.5 -18t-70.5 -51q-27 -38 -45 -101t-18 -141q0 -94 17 -166t45 -110z" />
    <glyph glyph-name="R" unicode="R" horiz-adv-x="1451" 
d="M118 0q-23 0 -40 16.5t-17 39.5v1354q0 23 17 39.5t40 16.5h696q204 0 315 -37q60 -20 108.5 -55.5t84.5 -90.5v1q74 -106 74 -250q0 -131 -54.5 -224t-149.5 -150l-16 -9h1q-4 -2 -7.5 -4t-8.5 -4q19 -15 39 -36t38 -43.5t33 -46t25 -43.5v1q25 -51 29.5 -102t4.5 -100
q0 -48 4 -95.5t28 -95.5q8 -16 7.5 -31t-7.5 -26t-20 -18t-29 -7h-473q-11 0 -28 9.5t-22 20.5q-14 23 -23 49.5t-14 55.5t-7 59.5t-3 60.5q-1 38 -4.5 77t-14 75t-29.5 66.5t-50 53.5q-12 8 -24.5 13.5t-26.5 7.5v-492q0 -23 -15.5 -39.5t-41.5 -16.5h-419zM594 918h120
q14 0 38 4t61 12q22 4 36 23t14 43q0 39 -22 58h1q-29 21 -120 21h-128v-161z" />
    <glyph glyph-name="S" unicode="S" horiz-adv-x="1445" 
d="M729 1021q17 -4 31 -7t27 -6t26 -6.5t29 -7.5v2q-25 128 -148 128q-45 0 -67.5 -14.5t-22.5 -35.5q0 -7 11 -15v1q21 -20 114 -39zM505 585q20 -1 37.5 -15t21.5 -34q5 -38 15.5 -69t24.5 -50q24 -28 60 -44.5t80 -16.5q67 0 100 27q13 14 21.5 28t8.5 28q0 28 -27 52v-1
q-37 33 -190 66q-286 66 -416 176q-137 120 -137 305q0 60 17 116.5t53 111.5q35 53 86 94.5t120 70.5q130 59 355 59q141 0 249 -31t184 -91.5t121 -149t61 -203.5q-1 -23 -17.5 -42.5t-39.5 -21.5h-296q42 -14 76 -26.5t62 -26.5q65 -35 115.5 -78t79.5 -93
q63 -103 63 -230q0 -143 -81 -272q-41 -60 -97 -107t-129 -79q-69 -31 -156 -46t-192 -15q-369 0 -519 149q-75 75 -116 180t-50 219q-2 25 12 42t40 19z" />
    <glyph glyph-name="T" unicode="T" horiz-adv-x="1473" 
d="M45 1410q0 23 16 39.5t41 16.5h1270q25 0 40.5 -16.5t15.5 -39.5v-335q0 -25 -15.5 -40.5t-40.5 -15.5h-369v-963q0 -23 -16.5 -39.5t-41.5 -16.5h-418q-24 0 -40 16.5t-16 39.5v963h-369q-25 0 -41 15.5t-16 40.5v335z" />
    <glyph glyph-name="U" unicode="U" horiz-adv-x="1524" 
d="M936 1410q0 23 16.5 39.5t40.5 16.5h418q23 0 39.5 -16.5t16.5 -39.5v-807q0 -132 -40.5 -248.5t-130.5 -205.5q-40 -38 -90 -70.5t-98 -52.5q-67 -25 -145.5 -37.5t-166.5 -12.5q-54 0 -109 3.5t-113 9.5q-126 15 -215 61q-45 24 -85 56.5t-77 75.5q-35 42 -60.5 86.5
t-38.5 89.5q-8 30 -15.5 62.5t-13 65t-9 62.5t-3.5 55v807q0 23 16.5 39.5t40.5 16.5h417q25 0 41 -16.5t16 -39.5v-827q0 -84 46.5 -131t127.5 -47t127.5 46t46.5 132v827z" />
    <glyph glyph-name="V" unicode="V" horiz-adv-x="1682" 
d="M55 1387q-5 15 -3 29t8.5 25t18.5 18t27 7h437q17 0 33 -12.5t21 -26.5l251 -797q3 11 6 19t7 19h-1q27 90 56 185.5t60 193.5q29 95 59.5 192.5t57.5 186.5q5 14 21.5 27t33.5 13h425q31 0 46 -23.5t5 -53.5l-501 -1354q-5 -13 -22 -24t-30 -11h-453q-15 0 -31.5 11
t-21.5 24z" />
    <glyph glyph-name="W" unicode="W" horiz-adv-x="2122" 
d="M62 1397v-1q-8 27 7.5 48.5t46.5 21.5h397q17 0 35 -14t22 -31l97 -509q15 57 31.5 116.5t33.5 117.5q18 66 39 140t39 140q5 16 21 28t33 12h397q17 0 32.5 -12t20.5 -28l145 -515q3 17 6.5 34t6.5 35q5 28 10.5 56t10.5 57q16 82 31.5 163.5t31.5 164.5q4 17 20.5 31
t35.5 14h395q30 0 45.5 -21t10.5 -47l-298 -1353q-4 -18 -20 -31.5t-36 -13.5h-409q-19 0 -34.5 11.5t-20.5 27.5l-182 654l-20 -72t-20 -71l-42 -147q-24 -90 -50.5 -183t-49.5 -181q-5 -16 -21 -27.5t-32 -11.5h-411q-20 0 -35.5 13.5t-19.5 31.5z" />
    <glyph glyph-name="X" unicode="X" horiz-adv-x="1700" 
d="M109 1378v-1q-6 8 -8 17t-2 17q0 22 16 38.5t42 16.5h460q6 0 13.5 -3t14.5 -7.5t12.5 -9.5t8.5 -9q20 -34 38 -64.5t35 -60.5q15 -27 29 -50.5t27.5 -47.5t28.5 -49.5t33 -55.5l16 30t17 31q10 19 21.5 38t22.5 38q13 24 26.5 49t27.5 49q13 23 25 45.5t26 45.5v-1
q3 6 8.5 11.5t13 10t15.5 7.5t14 3h455q26 0 42.5 -16.5t16.5 -38.5q0 -19 -11 -34v1q-48 -75 -99.5 -154.5t-103.5 -160.5t-100.5 -157.5t-96.5 -151.5q32 -48 61.5 -93t60.5 -93q23 -33 46.5 -68.5t44.5 -69.5v1q10 -14 19.5 -28.5t19.5 -29.5q45 -70 93.5 -142.5
t93.5 -143.5v1q11 -15 11 -34q0 -23 -16 -38.5t-41 -15.5h-471q-11 0 -26.5 8.5t-21.5 19.5q-37 59 -72.5 116.5t-68.5 112.5q-21 34 -38.5 62t-39.5 66q-25 -39 -48.5 -79t-46.5 -78q-31 -50 -61 -99t-61 -100q-8 -11 -23.5 -20t-27.5 -9h-466q-26 0 -41.5 16.5t-15.5 38.5
q0 16 10 34q32 48 65.5 98.5t68.5 102.5q38 58 78 119t79.5 122t78.5 120t75 113z" />
    <glyph glyph-name="Y" unicode="Y" horiz-adv-x="1479" 
d="M72 1386q-14 32 2 56t49 24h455q14 0 30 -12t22 -26l134 -396q4 11 7.5 22.5t6.5 22.5q30 88 58.5 175t57.5 176q2 7 8.5 13.5t14.5 12t16.5 9t15.5 3.5h425q34 0 49.5 -22t6.5 -51l-448 -1052q-28 -66 -53 -115t-46 -83q-24 -35 -60 -66.5t-84 -54.5q-45 -22 -106 -33.5
t-136 -11.5q-41 0 -106.5 5.5t-154.5 15.5q-21 3 -35.5 20t-14.5 36v280q0 12 5.5 22t14.5 17.5t20 12.5t22 5q53 -5 90.5 -7.5t58.5 -2.5q89 0 116 48z" />
    <glyph glyph-name="Z" unicode="Z" horiz-adv-x="1514" 
d="M130 1410q0 23 17 39.5t40 16.5h1183q25 0 40.5 -16.5t15.5 -39.5v-293l-684 -713h655q26 0 41.5 -17t15.5 -40v-291q0 -23 -15.5 -39.5t-41.5 -16.5h-1283q-26 0 -41 16.5t-15 39.5v304l673 703h-544q-23 0 -40 16.5t-17 41.5v289z" />
    <glyph glyph-name="bracketleft" unicode="[" horiz-adv-x="784" 
d="M61 1368q0 24 15.5 40t39.5 16h551q25 0 40.5 -16t15.5 -40v-283q0 -23 -15.5 -39t-40.5 -16h-162v-1000h162q25 0 40.5 -16.5t15.5 -39.5v-283q0 -23 -15.5 -39.5t-40.5 -16.5h-551q-24 0 -39.5 16.5t-15.5 39.5v1677z" />
    <glyph glyph-name="backslash" unicode="\" horiz-adv-x="569" 
d="M198.022 1404q-4 16 -18.999 29.5t-34.9971 13.5h-186.989q-27.998 0 -43.4971 -21.5t-10.499 -48.5l329.979 -1356q4 -17 18.999 -30t34.998 -13h184.988q27.998 0 43.9971 20t9 49z" />
    <glyph glyph-name="bracketright" unicode="]" horiz-adv-x="797" 
d="M736.004 1368q0 24 -15.499 40t-39.498 16h-550.966q-24.999 0 -40.498 -16t-15.499 -40v-283q0 -23 15.499 -39t40.498 -16h161.99v-1000h-161.99q-24.999 0 -40.498 -16.5t-15.499 -39.5v-283q0 -23 15.499 -39.5t40.498 -16.5h550.966q23.999 0 39.498 16.5
t15.499 39.5v1677z" />
    <glyph glyph-name="asciicircum" unicode="^" horiz-adv-x="1207" 
d="M428 1414v-1q5 12 21.5 23t28.5 11h251q12 0 28 -11t21 -22q49 -99 101 -201.5t102 -202.5q39 -78 81 -161t81 -160q8 -15 7.5 -30t-8 -26t-20 -18t-28.5 -7h-316q-14 0 -29.5 10.5t-21.5 23.5q-16 41 -30.5 77.5t-28.5 72.5q-9 22 -16 40.5l-14 37t-15 38.5l-18 45
l-18 -44q-26 -67 -53 -134t-53 -133q-5 -13 -21 -23.5t-29 -10.5h-318q-17 0 -29.5 6.5t-19.5 18t-8 25.5t7 29z" />
    <glyph glyph-name="underscore" unicode="_" horiz-adv-x="1172" 
d="M60 -82q0 23 16.5 39t39.5 16h939q23 0 39.5 -16t16.5 -39v-92q0 -23 -16.5 -39t-39.5 -16h-939q-23 0 -39.5 16t-16.5 39v92z" />
    <glyph glyph-name="grave" unicode="`" horiz-adv-x="668" 
d="M57 1351q-8 8 -13.5 19t-5.5 22q0 21 15.5 38t41.5 17h310q13 0 28.5 -11t20.5 -20v1q37 -66 74 -133t74 -133q8 -15 7.5 -29.5t-7.5 -26.5t-20 -19.5t-30 -7.5h-194z" />
    <glyph glyph-name="a" unicode="a" horiz-adv-x="1301" 
d="M1147 1063q18 0 28 -6.5t15 -17t6 -24.5t1 -30l-11 -904q31 -16 45 -29t14 -23q0 -12 -13.5 -18t-32 -8.5t-37 -2.5h-28.5h-232q-14 0 -29 9.5t-21 19.5q-3 6 -6 14t-7 16q-49 -39 -116 -60.5t-149 -21.5q-118 0 -214.5 46.5t-168.5 131.5q-67 85 -103 185t-36 207
q0 113 38 210.5t107 171.5q74 75 169 114.5t212 39.5q153 0 264 -81l15 30q5 11 21 21t28 10h241zM622 326q44 0 64 48t20 154q0 103 -22 155t-65 52q-45 0 -66.5 -50.5t-21.5 -156.5q0 -202 91 -202z" />
    <glyph glyph-name="b" unicode="b" horiz-adv-x="1251" 
d="M477 1434q23 0 39.5 -16.5t16.5 -39.5v-333q90 47 221 47q210 0 335 -151q122 -147 122 -387q0 -252 -155 -410q-156 -157 -423 -157q-262 0 -421 156q-155 152 -155 413v822q0 23 16 39.5t39 16.5h365zM643 712q-55 0 -81 -41q-33 -50 -33 -127q0 -87 28.5 -131.5
t79.5 -44.5q98 0 98 180q0 75 -23.5 119.5t-68.5 44.5z" />
    <glyph glyph-name="c" unicode="c" horiz-adv-x="1342" 
d="M1215 444q26 -4 39.5 -24.5t7.5 -46.5q-32 -118 -107 -208t-186 -138q-56 -25 -127 -37.5t-154 -12.5q-161 0 -267 31q-112 32 -194 102q-81 72 -127 167q-23 49 -35.5 110.5t-12.5 138.5q0 160 58 270v-1q22 45 50.5 81t60.5 64v-1q35 33 73 57t74 39q118 49 295 49
q250 0 386 -94l-1 1q68 -42 111 -84.5t68.5 -86t37.5 -88.5t17 -93l-1 2q9 -25 -5 -47t-40 -25q-9 -2 -19.5 -2h-20.5q-37 0 -76 5.5t-78 12.5t-77 12.5t-71 5.5q-21 0 -39 -3q-21 -3 -39.5 10t-23.5 31q-21 81 -118 81q-66 0 -106.5 -50.5t-40.5 -154.5q0 -97 40 -140
q19 -23 45 -33t56 -10q105 0 140 110q7 17 24.5 29t34.5 10z" />
    <glyph glyph-name="d" unicode="d" horiz-adv-x="1251" 
d="M1139 1441q22 0 38.5 -16.5t16.5 -39.5v-823q0 -260 -155 -412q-158 -156 -421 -156q-267 0 -423 157q-155 158 -155 409q0 240 121 388q127 151 335 151q65 0 120.5 -11.5t101.5 -35.5v333q0 23 16 39.5t40 16.5h365zM608 718q-45 0 -68.5 -44t-23.5 -119
q0 -180 98 -180q51 0 79.5 44.5t28.5 131.5q0 78 -34 127q-24 40 -80 40z" />
    <glyph glyph-name="e" unicode="e" horiz-adv-x="1317" 
d="M785 368q3 5 10.5 9.5t15.5 8.5h-264q9 -26 21 -41q17 -17 43 -29.5t53 -12.5q18 0 36.5 5.5t36.5 15.5v-1q10 7 22.5 18.5t25.5 26.5zM1265 441q0 -25 -16.5 -40t-39.5 -15h-326q32 -3 64.5 -6t65.5 -6q46 -5 91 -9t89 -8q15 -2 27 -10t18 -19.5t6.5 -25.5t-6.5 -27
q-45 -77 -100.5 -135t-121.5 -93q-128 -69 -360 -69q-103 0 -183 14.5t-140 42.5q-59 31 -110 78t-91 114h1q-42 66 -61.5 141t-19.5 161q0 245 160 400q159 155 433 155q218 0 350 -69t202 -200q68 -130 68 -334v-40zM772 671q-15 44 -44 65t-68 21q-27 0 -51.5 -13.5
t-41.5 -33.5q-12 -17 -20 -39h225z" />
    <glyph glyph-name="f" unicode="f" horiz-adv-x="960" 
d="M777 1062q25 0 40 -16.5t15 -39.5v-266q0 -25 -15 -40.5t-40 -15.5h-118v-628q0 -23 -16.5 -39.5t-39.5 -16.5h-365q-24 0 -40 16.5t-16 39.5v628h-81q-22 0 -38.5 15.5t-16.5 40.5v266q0 23 16.5 39.5t38.5 16.5h81q1 31 4.5 62t8.5 63v-1q7 41 22 76.5t35 61.5
q23 27 53.5 49.5t65.5 39.5q37 16 89 25t116 9q51 0 122 -6t163 -17q24 -4 39 -22.5t10 -43.5q-5 -27 -10.5 -54.5t-10.5 -55.5q-5 -27 -9.5 -55t-9.5 -54q-5 -21 -25 -35t-40 -12q-32 5 -57 8t-39 3q-23 0 -32.5 -4.5t-11.5 -15.5l-2 -6q-1 -1 -1 -2q0 -6 -0.5 -8.5
t-0.5 -0.5v-4h116z" />
    <glyph glyph-name="g" unicode="g" horiz-adv-x="1272" 
d="M709 90q-88 -48 -188 -52q8 -6 14.5 -13t8.5 -15h-1q5 -13 10 -25t10 -15q11 -8 29 -12t41 -4q51 0 75.5 29t24.5 103v17q-14 -9 -25 -13h1zM1156 1062q24 0 40 -16.5t16 -39.5v-898l1 -42q0 -50 -11.5 -100t-31.5 -93q-21 -46 -52 -85t-65 -68q-71 -55 -177.5 -80.5
t-240.5 -25.5q-155 0 -261 24.5t-167 72.5q-127 103 -127 274v19t1 22v4q0 1 0.5 2t0.5 2q0 23 19.5 39t41.5 17q49 -7 100 -12.5t103 -10.5q-59 23 -108.5 63.5t-91.5 97.5q-44 66 -68 153.5t-24 191.5q0 121 30 214.5t93 161.5q123 135 321 135q20 0 41 -1t50 -3
q31 -2 75 -4.5t111 -4.5t160 -4.5t221 -4.5zM528 545q0 -75 28 -111t76 -36q42 0 71 33q33 37 33 119q-1 42 -2.5 79t-2.5 79q-57 -1 -96 -10.5t-63 -29t-34 -50t-10 -73.5z" />
    <glyph glyph-name="h" unicode="h" horiz-adv-x="1224" 
d="M61 1368q0 24 15.5 40t40.5 16h366q23 0 38.5 -16t15.5 -40v-363q17 12 35.5 22.5t34.5 18.5q42 20 91.5 29t104.5 9q87 0 156 -26t118 -78.5t75 -132t26 -186.5v-605q0 -23 -15 -39.5t-41 -16.5h-366q-24 0 -39.5 16.5t-15.5 39.5v523q0 60 -18.5 84t-52.5 24
q-38 0 -64 -29q-29 -35 -29 -146v-456q0 -23 -15.5 -39.5t-38.5 -16.5h-366q-25 0 -40.5 16.5t-15.5 39.5v1312z" />
    <glyph glyph-name="i" unicode="i" horiz-adv-x="598" 
d="M61 1368q0 24 16 40t39 16h366q24 0 39.5 -16t15.5 -40v-248q0 -23 -15.5 -39t-39.5 -16h-366q-23 0 -39 16t-16 39v248zM61 1006q0 23 16 39.5t39 16.5h366q24 0 39.5 -16.5t15.5 -39.5v-950q0 -23 -15.5 -39.5t-39.5 -16.5h-366q-23 0 -39 16.5t-16 39.5v950z" />
    <glyph glyph-name="j" unicode="j" horiz-adv-x="797" 
d="M260 1368q0 24 15.5 40t40.5 16h365q25 0 40.5 -16t15.5 -40v-250q0 -25 -15.5 -40.5t-40.5 -15.5h-365q-25 0 -40.5 15.5t-15.5 40.5v250zM260 1006q0 23 15.5 39.5t40.5 16.5h365q25 0 40.5 -16.5t15.5 -39.5v-923q0 -92 -7 -158.5t-22 -108.5q-17 -45 -45.5 -82
t-70.5 -65q-86 -55 -228 -55q-115 0 -273 32q-25 5 -36.5 23.5t-6.5 41.5l26 133q7 33 14 66.5t13 66.5q5 25 23.5 37t43.5 7q20 -4 33 -6t20 -2q19 0 27 11q12 15 12 92v890z" />
    <glyph glyph-name="k" unicode="k" horiz-adv-x="1337" 
d="M61 1368q0 24 16 40t39 16h373q23 0 39 -16t16 -40v-528q26 29 51 59t51 60q17 20 36 41t36 40q5 7 19.5 14.5t23.5 7.5h448q27 0 42.5 -16.5t15.5 -37.5q0 -11 -5 -22t-13 -19q-77 -74 -155.5 -151t-155.5 -152q20 -34 40 -68.5t40 -67.5q20 -36 41 -71.5t42 -71.5
l177 -301q9 -15 9 -30t-7 -27t-20.5 -19.5t-30.5 -7.5h-410q-14 0 -29 10t-20 21v-1q-42 81 -80 156.5t-79 157.5q-12 -10 -16 -16l-15 -15t-15 -14q-4 -4 -9.5 -8.5t-11.5 -10.5v-224q0 -23 -16 -39.5t-39 -16.5h-373q-23 0 -39 16.5t-16 39.5v1312z" />
    <glyph glyph-name="l" unicode="l" horiz-adv-x="599" 
d="M61 1368q0 24 16 40t40 16h366q24 0 39.5 -16t15.5 -40v-1312q0 -23 -15.5 -39.5t-39.5 -16.5h-366q-24 0 -40 16.5t-16 39.5v1312z" />
    <glyph glyph-name="m" unicode="m" horiz-adv-x="1846" 
d="M61 1006q0 23 16 39.5t39 16.5h341q25 0 40.5 -16.5t15.5 -39.5v-7q15 11 33 22t34 19q44 20 97.5 32t108.5 12q128 0 208 -50q23 -16 46 -35.5t42 -42.5q32 29 64.5 52.5t60.5 36.5q39 18 89.5 28.5t108.5 10.5q90 0 160.5 -26t119.5 -79t75 -134t26 -192v-597
q0 -23 -16 -39.5t-40 -16.5h-365q-25 0 -40.5 16.5t-15.5 39.5v542q0 42 -14 62q-21 27 -46 27q-40 0 -64 -33t-24 -108v-490q0 -23 -16.5 -39.5t-39.5 -16.5h-366q-23 0 -39.5 16.5t-16.5 39.5v524q0 29 -1 45.5t-2 22.5v-1q-6 19 -20 30t-34 11q-36 0 -61 -28
q-28 -31 -28 -118v-486q0 -23 -16 -39.5t-39 -16.5h-366q-23 0 -39 16.5t-16 39.5v950z" />
    <glyph glyph-name="n" unicode="n" horiz-adv-x="1237" 
d="M61 1006q0 23 15.5 39.5t40.5 16.5h340q23 0 39.5 -16.5t16.5 -39.5v-18q18 14 36 26.5t35 20.5q89 49 217 49q88 0 158 -25.5t119 -78t74.5 -132t25.5 -187.5v-605q0 -23 -15 -39.5t-41 -16.5h-366q-24 0 -39.5 16.5t-15.5 39.5v523q0 60 -18.5 84t-52.5 24
q-38 0 -64 -29q-29 -35 -29 -146v-456q0 -23 -15.5 -39.5t-38.5 -16.5h-366q-25 0 -40.5 16.5t-15.5 39.5v950z" />
    <glyph glyph-name="o" unicode="o" horiz-adv-x="1307" 
d="M51 528q0 122 42 220.5t123 177.5q82 79 189.5 118.5t245.5 39.5q309 0 473 -184q66 -75 99 -166t33 -200q0 -242 -164 -400q-162 -156 -440 -156q-249 0 -406 130q-195 160 -195 420zM528 529q0 -106 39 -150q35 -43 87 -43q54 0 85 40q40 45 40 157q0 103 -40 148
q-16 20 -37 30t-45 10q-57 0 -89 -41q-40 -46 -40 -151z" />
    <glyph glyph-name="p" unicode="p" horiz-adv-x="1251" 
d="M112 -364q-23 0 -39 16t-16 40v822q0 260 155 413q159 156 421 156q267 0 423 -157q155 -158 155 -410q0 -240 -122 -387q-125 -152 -335 -152q-130 0 -221 48v-333q0 -24 -16.5 -40t-39.5 -16h-365zM643 358q45 0 68.5 44.5t23.5 119.5q0 180 -98 180q-51 0 -79.5 -44.5
t-28.5 -131.5q0 -79 33 -128q26 -40 81 -40z" />
    <glyph glyph-name="q" unicode="q" horiz-adv-x="1252" 
d="M774 -364q-24 0 -40 16t-16 40v333q-92 -48 -222 -48q-209 0 -335 152q-121 148 -121 387q0 252 155 410q156 157 423 157q263 0 421 -156q155 -153 155 -413v-822q0 -24 -16.5 -40t-38.5 -16h-365zM608 358q56 0 80 40q34 49 34 128q0 87 -28.5 131.5t-79.5 44.5
q-98 0 -98 -180q0 -75 23.5 -119.5t68.5 -44.5z" />
    <glyph glyph-name="r" unicode="r" horiz-adv-x="963" 
d="M61 1006q0 23 15.5 39.5t40.5 16.5h341q20 0 34 -11t19 -28q10 9 17 12l-1 -1q33 23 75 36.5t87 13.5q94 0 203 -56q19 -11 25.5 -32t-1.5 -41q-2 -4 -3.5 -8t-3.5 -8q-25 -57 -52.5 -122t-53.5 -121q-8 -20 -30 -28.5t-43 -0.5q-53 22 -80 22q-43 0 -65 -34
q-47 -71 -47 -280v-319q0 -23 -15 -39.5t-41 -16.5h-365q-25 0 -40.5 16.5t-15.5 39.5v950z" />
    <glyph glyph-name="s" unicode="s" horiz-adv-x="1230" 
d="M689 725q-1 1 -1 3q4 0 7.5 -0.5t8.5 -0.5l-9 -15q-5 8 -6 13zM675 731q8 -2 13 -3q-4 11 -9 19t-9 12q-16 8 -36 14.5t-40 6.5q-32 0 -47 -6t-15 -14q0 -1 1 -1t2 -0.5t3 -0.5q14 -7 51.5 -13.5t84.5 -13.5h1zM491 402q9 -4 17 -11t13 -15q-4 1 -10 3q-7 2 -13.5 2.5
t-12.5 2.5zM579 365q-14 2 -29 5t-29 6q1 -1 1.5 -2t1.5 -2q17 -42 45 -62.5t73 -20.5q26 0 46 5t33 13q3 3 6.5 8t3.5 7q0 6 -9 11q-11 5 -47 12.5t-96 19.5zM378 407q-22 6 -40 11.5t-34 12.5q-42 17 -80.5 46t-67.5 67q-29 42 -45 88t-16 98q0 55 17.5 103.5t49.5 89
t76.5 71.5t99.5 52q51 19 121.5 28.5t153.5 9.5q89 0 156 -7.5t110 -22.5v1q93 -28 160 -94l11 -12q15 -14 30 -31t28 -42t22 -60.5t11 -87.5q1 -27 -8.5 -47.5t-39.5 -23.5l-149 17q9 -3 19 -7q101 -45 157 -122q28 -42 42.5 -87t14.5 -95q0 -99 -60 -189v1
q-29 -46 -75.5 -83t-104.5 -64q-59 -25 -138 -38t-176 -13q-139 0 -239.5 21t-163.5 63q-30 21 -57 47.5t-48.5 60t-36.5 76t-21 96.5v-1q-2 10 0.5 21.5t9.5 20.5t17 15.5t22 8.5z" />
    <glyph glyph-name="t" unicode="t" horiz-adv-x="916" 
d="M569 1417q15 8 29.5 7.5t26 -7.5t18.5 -20t7 -29v-306h147q23 0 38 -16.5t15 -39.5v-266q0 -23 -15 -39t-38 -16h-147v-283q0 -44 4 -52q1 -3 16 -3t39 5.5t56 16.5v-1q26 9 47.5 -5.5t25.5 -40.5l27 -253q1 -10 -2.5 -20t-9.5 -18t-14.5 -13.5t-18.5 -6.5
q-72 -16 -137.5 -24.5t-125.5 -8.5q-76 0 -133 10t-95 32q-41 23 -71 55t-49 77q-35 84 -35 253v280h-78q-26 0 -41 16t-15 39v266q0 23 15 39.5t41 16.5h84z" />
    <glyph glyph-name="u" unicode="u" horiz-adv-x="1236" 
d="M1175 56q0 -23 -15 -39.5t-40 -16.5h-340q-24 0 -40 16.5t-16 39.5v18q-20 -17 -37 -28.5t-34 -19.5q-45 -25 -98.5 -36.5t-118.5 -11.5q-88 0 -158 25.5t-118.5 78t-74.5 132t-26 187.5v605q0 23 16 39.5t39 16.5h368q23 0 38.5 -16.5t15.5 -39.5v-523q0 -60 18.5 -84
t52.5 -24q19 0 36 8t29 21l-1 -1q29 35 29 146v457q0 23 15.5 39.5t39.5 16.5h365q25 0 40 -16.5t15 -39.5v-950z" />
    <glyph glyph-name="v" unicode="v" horiz-adv-x="1341" 
d="M59 984q-6 15 -4.5 29t8.5 25t19.5 17.5t27.5 6.5h380q15 0 31 -12.5t21 -25.5l133 -429q5 17 10.5 32.5t10.5 32.5q8 24 15.5 48t15.5 49h-1q21 66 42.5 133t42.5 134q5 14 21 26t33 12h368q32 0 46.5 -24t4.5 -53l-403 -952q-7 -12 -23 -22.5t-29 -10.5h-323
q-11 0 -28 10t-23 23z" />
    <glyph glyph-name="w" unicode="w" horiz-adv-x="1958" 
d="M63 987q-10 28 4.5 51.5t46.5 23.5h352q18 0 34 -16t23 -35l103 -399l12 36t11 35q6 20 12.5 39.5t13.5 39.5q9 26 17.5 53t17.5 55q12 38 24.5 77t26.5 77q5 13 21 25.5t32 12.5h327q15 0 31 -12t21 -26l143 -419q2 5 2.5 10t2.5 11q3 14 6 27t7 27q22 84 43 168.5
t42 166.5q6 17 22.5 32t33.5 15h350q31 0 45.5 -23.5t5.5 -50.5l-350 -954q-5 -12 -21 -23t-30 -11h-324q-17 0 -32.5 11.5t-20.5 25.5h1q-18 55 -35.5 105.5t-34.5 100.5t-34 100.5t-36 105.5q-2 -9 -5 -17.5t-6 -17.5q-11 -31 -20.5 -61.5t-19.5 -61.5l-83 -255
q-5 -14 -20.5 -25t-31.5 -11h-327q-15 0 -30.5 11t-20.5 23z" />
    <glyph glyph-name="x" unicode="x" horiz-adv-x="1432" 
d="M89 974q-12 14 -12 34q0 21 15.5 37.5t40.5 16.5h432q12 0 27.5 -10.5t20.5 -18.5v1q29 -50 54 -93t54 -93l29 43.5l29 43.5q17 26 33 51t33 49q3 4 8.5 9t12.5 9t14.5 6.5t12.5 2.5h401q26 0 41.5 -16.5t15.5 -37.5q0 -19 -12 -34l-301 -421q33 -49 67 -96t66 -95
q14 -20 28.5 -41t28.5 -41q23 -31 48.5 -67t48.5 -69q9 -13 19 -28t20 -29q6 -8 8 -16.5t2 -16.5q0 -21 -15.5 -37.5t-41.5 -16.5h-424q-14 0 -29.5 9.5t-20.5 17.5l-130 227q-23 -35 -46.5 -68t-46.5 -67q-8 -12 -16.5 -25t-17.5 -25q-7 -11 -14.5 -22t-15.5 -21l1 1
q-5 -9 -20.5 -18t-26.5 -9h-395q-26 0 -41.5 15t-15.5 37q0 20 10 34q83 121 161.5 234t162.5 234z" />
    <glyph glyph-name="y" unicode="y" horiz-adv-x="1338" 
d="M792 -327q-5 -13 -21 -24t-30 -11h-352q-31 0 -46.5 23t-4.5 54q6 14 12 29.5t13 29.5q10 23 19.5 45.5t19.5 44.5q19 44 37.5 86.5t35.5 86.5q-103 238 -207 473.5t-207 473.5q-6 15 -4.5 29t8.5 25t19.5 17.5t27.5 6.5h386q14 0 31.5 -14.5t23.5 -29.5
q17 -57 32.5 -108.5t31 -102t31 -102t33.5 -108.5q36 108 71.5 213.5t72.5 214.5h-1q4 14 20.5 25.5t33.5 11.5h356q32 0 46.5 -23.5t4.5 -52.5z" />
    <glyph glyph-name="z" unicode="z" horiz-adv-x="1251" 
d="M60 1006q0 23 16.5 39.5t39.5 16.5h928q23 0 39.5 -16.5t16.5 -39.5v-222q0 -5 -3.5 -12.5t-6.5 -10.5q-51 -52 -99.5 -101.5l-97 -99t-97.5 -99t-100 -101.5h443q25 0 40.5 -15t15.5 -41v-248q0 -23 -15.5 -39.5t-40.5 -16.5h-1013q-23 0 -39.5 16.5t-16.5 39.5v256
q0 4 3 7l375 383h-332q-23 0 -39.5 15t-16.5 41v248z" />
    <glyph glyph-name="braceleft" unicode="{" horiz-adv-x="882" 
d="M765 1447q26 0 41 -16.5t15 -39.5v-294q0 -25 -15 -40.5t-41 -15.5h-40q-32 0 -48 -13.5t-22 -38.5q-4 -25 -6 -136q-1 -63 -8 -116t-20 -91q-11 -30 -27.5 -58.5t-39.5 -51.5q-3 -2 -5 -4l-1 -1l1 0.5t1.5 0.5t-0.5 -0.5t-5 -3.5q5 -5 10 -9.5t9 -9.5q17 -19 33.5 -47.5
t29.5 -64.5q11 -35 17 -89.5t6 -122.5q0 -55 2.5 -90.5t7.5 -50.5q3 -5 7.5 -11.5t8.5 -8.5l-1 1q16 -9 90 -9q26 0 41 -16.5t15 -39.5v-291q0 -22 -15 -38.5t-41 -16.5h-112q-191 0 -274 44q-44 23 -78 59.5t-52 79.5q-17 42 -26.5 102.5t-9.5 138.5q0 17 0.5 33t1.5 33
q1 11 1 19.5v19.5q0 44 -4 76t-10 49q-12 24 -32 36q-23 14 -75 16q-25 0 -40 15.5t-15 39.5v307q0 25 15.5 40.5t40.5 15.5q48 0 71 13.5t34 38.5q13 37 13 129v26q-1 10 -1 24v22q0 84 7 145.5t22 101.5q35 87 91 133q23 19 52 32t64 23q87 21 195 21h121z" />
    <glyph glyph-name="bar" unicode="|" horiz-adv-x="463" 
d="M61 1368q0 24 16 40t40 16h228q24 0 40 -16t16 -40v-1674q0 -24 -16 -40t-40 -16h-228q-24 0 -40 16t-16 40v1674z" />
    <glyph glyph-name="braceright" unicode="}" horiz-adv-x="797" 
d="M32.0469 1447q-25.999 0 -40.998 -16.5t-14.999 -39.5v-294q0 -25 14.999 -40.5t40.998 -15.5h39.9971q31.998 0 47.9971 -13.5t21.999 -38.5q4 -25 6 -136q0.999023 -63 7.99902 -116t19.999 -91q10.999 -30 27.498 -58.5t39.498 -51.5q2.99902 -2 4.99902 -4l1 -1
l-1 0.5t-1.5 0.5t0.5 -0.5t5 -3.5q-5 -5 -9.99902 -9.5q-5 -4.5 -9 -9.5q-16.999 -19 -33.498 -47.5t-29.498 -64.5q-10.999 -35 -16.999 -89.5q-5.99902 -54.5 -5.99902 -122.5q0 -55 -2.5 -90.5t-7.5 -50.5q-3 -5 -7.49902 -11.5q-4.5 -6.5 -8.5 -8.5l1 1
q-15.999 -9 -89.9941 -9q-25.999 0 -40.998 -16.5t-14.999 -39.5v-291q0 -22 14.999 -38.5t40.998 -16.5h111.993q190.988 0 273.983 44q43.9971 23 77.9951 59.5t51.9971 79.5q16.998 42 26.498 102.5q9.49902 60.5 9.49902 138.5q0 17 -0.5 33t-1.5 33
q-0.999023 11 -0.999023 19.5v19.5q0 44 3.99902 76q4 32 10 49q11.999 24 31.998 36q22.998 14 74.9951 16q24.998 0 39.9971 15.5t14.999 39.5v307q0 25 -15.499 40.5t-40.4971 15.5q-47.9971 0 -70.9961 13.5q-22.998 13.5 -33.9971 38.5q-13 37 -13 129v26q1 10 1 24v22
q0 84 -6.99902 145.5q-7 61.5 -21.999 101.5q-34.998 87 -90.9941 133q-22.999 19 -51.9971 32t-63.9961 23q-86.9941 21 -194.988 21h-120.992z" />
    <glyph glyph-name="asciitilde" unicode="~" horiz-adv-x="1252" 
d="M1195 634q0 -8 -6 -22.5t-14 -20.5q-53 -43 -98.5 -72.5t-80.5 -46.5q-74 -31 -154 -31q-31 0 -60.5 4t-59.5 12q-58 17 -174 76q-99 51 -151 51q-116 0 -244 -128q-19 -17 -40 -17q-22 0 -38.5 16t-16.5 42v294q0 8 5.5 21t8.5 18q45 41 88.5 70.5t85.5 46.5
q84 36 182 36q23 0 51 -4t57 -12q25 -9 64 -25.5t86 -37.5q38 -20 71.5 -33.5t53.5 -19.5q16 -5 31 -7.5t27 -2.5q48 0 108 33.5t124 90.5q10 9 20.5 13t20.5 4q21 0 37 -15t16 -41v-292z" />
    <glyph glyph-name="nonbreakingspace" unicode="&#xa0;" horiz-adv-x="683" 
 />
    <glyph glyph-name="exclamdown" unicode="&#xa1;" horiz-adv-x="682" 
d="M61 -305.916q0 -23.999 16 -39.998t40 -15.999h389q24 0 39.5 15.999t15.5 39.998v305.98l-74 602.964q-4 17.999 -19 32.498t-37 14.499h-242q-18 0 -35.5 -14.999t-19.5 -33.998q-5 -38.998 -10.5 -87.9951t-12.5 -103.493q-7 -54.4971 -13.5 -111.493
q-6.5 -56.9971 -13.5 -110.493q-7 -53.4971 -12.5 -101.994t-10.5 -85.4951v-305.98zM74 685.023q0 -22.999 16 -39.498t39 -16.499h365q24 0 39.5 16.499t15.5 39.498v320.98q0 22.998 -15.5 39.4971t-39.5 16.499h-365q-23 0 -39 -16.499t-16 -39.4971v-320.98z" />
    <glyph glyph-name="cent" unicode="&#xa2;" horiz-adv-x="1291" 
d="M799 724q-23 0 -26 1q2 -2 5 -5.5t10 -8.5l-15 -11q-6 14 -6 22.5t4.5 13t11.5 6.5t15 2zM1201 444q25 -4 39 -23t9 -45q-11 -49 -26.5 -90.5t-34.5 -70.5q-36 -53 -85.5 -98.5t-111.5 -78.5q-125 -67 -296 -67h-19t-21.5 0.5t-31.5 1t-49 2.5q-4 -9 -7 -19l-6 -20v1
q-8 -23 -17 -46t-17 -46q-14 -40 -27.5 -80t-27.5 -78q-9 -22 -28 -32t-42 -2l-119 42q-22 8 -31 29t-4 41l95 263q-63 27 -114.5 69t-91.5 98q-48 69 -73 151.5t-25 182.5q0 250 162 406t414 156h9h13.5h15.5t22.5 -0.5t34.5 -1.5q10 29 20.5 59t21.5 59q8 20 15.5 41
t14.5 41h-1q3 9 7 19.5t8 20.5l15 38l-1 -1q8 23 30 34t43 3h-1q29 -11 57.5 -21.5t57.5 -21.5q22 -8 31.5 -27.5t4.5 -42.5l-90 -250q78 -32 130.5 -77t91.5 -104q17 -26 33 -60.5t32 -79.5q9 -27 -6 -47.5t-40 -24.5q-40 -5 -81.5 -11t-81.5 -12q-42 -6 -82 -11l-80 -10h1
q-18 -4 -34.5 4.5t-24.5 24.5q-6 -16 -11 -31l-10 -30q-6 -19 -12.5 -37.5t-13.5 -37.5q-14 -38 -26.5 -75t-26.5 -76q-3 -10 -4 -13.5t-5 -14.5q41 8 71.5 40t46.5 83q6 20 23 31t36 9zM648 742q-2 0 -7 -1q-20 -4 -32 10t-7 33l11 30q3 11 10.5 17t16.5 7t17.5 -3
t14.5 -14v1q5 -7 9.5 -15t9.5 -15q6 -9 6 -18t-5 -16.5t-13.5 -12t-18.5 -4.5q-6 1 -8 1h-4zM484 441q2 8 9.5 7.5t9.5 -8.5q1 -3 1.5 -5.5t1.5 -5.5t1 -5.5t1 -4.5v1q2 -7 6 -15.5t9 -16.5q3 -5 0.5 -9.5t-8.5 -5.5l-42 -5q-6 -1 -9 3.5t-1 9.5zM498 508q0 -11 -0.5 -13.5
t-0.5 -3.5v-2.5t1 -8.5q22 63 41.5 120t42.5 123q-11 -5 -19 -12.5t-17 -16.5q-23 -23 -35.5 -69t-12.5 -117z" />
    <glyph glyph-name="sterling" unicode="&#xa3;" horiz-adv-x="1336" 
d="M886 868q26 0 41 -16.5t15 -38.5v-214q0 -26 -15 -41t-41 -15h-187q-5 -28 -12.5 -54.5t-17.5 -51.5l-2 -6q22 -2 49.5 -6.5t58.5 -12.5q42 -10 81 -15.5t67 -5.5q19 0 39 2t34 4q15 3 35.5 11t49.5 22q23 9 42.5 1t30.5 -31l121 -266q9 -21 1.5 -40.5t-27.5 -30.5
q-48 -24 -90 -40.5t-77 -26.5q-73 -19 -156 -19q-91 0 -208 33h1q-18 5 -34.5 8.5t-30.5 7.5h1q-41 10 -68 16.5t-42 9.5q-32 7 -62 7q-51 0 -106 -19t-120 -55l1 1q-11 -6 -23 -7t-23 3t-20.5 11.5t-14.5 17.5q-14 31 -29 63t-29 64t-29 64.5t-29 63.5q-7 17 -1.5 36.5
t19.5 29.5q73 54 116 107t49 104h-132q-23 0 -39 15t-16 41v214q0 22 16 38.5t39 16.5l58 1q-5 18 -9.5 33.5t-6.5 24.5l-3 11v-2q-6 30 -6 84q0 131 69 232q71 103 182 150q54 21 124.5 33t158.5 12q81 0 146.5 -11t115.5 -29q53 -20 98.5 -53.5t80.5 -77.5q69 -91 96 -219
q4 -24 -10 -42.5t-35 -23.5q-42 -7 -85 -13t-87 -13t-86.5 -13.5t-84.5 -13.5q-21 -4 -39 8.5t-23 32.5q-12 39 -22.5 65t-21.5 36q-19 16 -39 16q-26 0 -43.5 -19t-17.5 -56q0 -15 1 -28.5t4 -24.5q2 -10 8 -32.5t21 -67.5h230z" />
    <glyph glyph-name="currency" unicode="&#xa4;" horiz-adv-x="1247" 
d="M256 1122q18 18 39 18q9 0 20 -5.5t19 -12.5l31 -31l29 -29l42 -41q92 41 187 41q46 0 91 -9t96 -31q7 8 14.5 15t15.5 14l68 71q17 17 41 17q22 0 39 -17q24 -24 47.5 -47t46.5 -46l47.5 -47.5t47.5 -46.5q17 -17 17 -40q0 -12 -5 -22t-13 -17l-26 -26t-25 -26
l-23.5 -23.5l-24.5 -24.5q36 -90 36 -184q0 -92 -36 -188q9 -11 19 -20t21 -19l58 -58q18 -18 18 -42q0 -22 -16 -39l-189 -190q-17 -17 -39 -17q-25 0 -41 18l-98 100q-48 -18 -97 -27.5t-93 -9.5q-45 0 -91 8.5t-93 27.5q-6 -6 -8 -9q-7 -8 -15.5 -17t-16.5 -15
q-8 -10 -18 -19.5t-18 -18.5h1q-5 -5 -10 -9.5t-9 -9.5q-14 -18 -40 -18q-11 0 -21.5 4t-18.5 12q-45 45 -96 95t-96 95q-16 19 -16 39q0 23 16 41l99 98q-20 45 -28.5 90t-8.5 90q0 48 9.5 95.5t27.5 94.5q-6 6 -13 12.5t-13 13.5q-3 3 -6 6.5t-5 5.5q-3 3 -4 6
q-14 15 -28.5 29t-29.5 29q-17 17 -17 39t17 39zM739 569q0 26 -8.5 46.5t-24.5 37.5q-17 15 -38 24t-45 9t-44.5 -9t-36.5 -25q-17 -17 -26 -37.5t-9 -45.5q0 -24 9.5 -44.5t25.5 -37.5q35 -33 81 -33q47 0 83 33q33 35 33 82z" />
    <glyph glyph-name="yen" unicode="&#xa5;" horiz-adv-x="1465" 
d="M70 1341q-8 15 -8 30t7 26.5t20 19t31 7.5h410q12 0 28.5 -11.5t21.5 -21.5l155 -332q4 9 8.5 18.5t8.5 17.5q12 30 26 58q27 60 55 121.5t54 121.5q5 8 21 18t28 10h411q16 0 29 -7.5t19.5 -19t7 -26.5t-6.5 -30l-267 -483h171q25 0 40.5 -15.5t15.5 -40.5v-198
q0 -20 -11.5 -34.5t-30.5 -19.5q19 -5 30.5 -20t11.5 -33v-202q0 -24 -15.5 -40t-40.5 -16h-321v-183q0 -23 -16 -39.5t-40 -16.5h-372q-25 0 -40.5 16.5t-15.5 39.5v183h-327q-24 0 -40 16t-16 40v202q0 18 11.5 33t30.5 20q-19 5 -30.5 19.5t-11.5 34.5v198q0 25 16 40.5
t40 15.5h178z" />
    <glyph glyph-name="brokenbar" unicode="&#xa6;" horiz-adv-x="463" 
d="M61 1368q0 24 16 40t40 16h228q24 0 40 -16t16 -40v-695q0 -25 -16 -40.5t-40 -15.5h-228q-24 0 -40 15.5t-16 40.5v695zM61 390q0 23 16 39.5t40 16.5h228q24 0 40 -16.5t16 -39.5v-696q0 -24 -16 -40t-40 -16h-228q-24 0 -40 16t-16 40v696z" />
    <glyph glyph-name="section" unicode="&#xa7;" horiz-adv-x="1308" 
d="M795 998q-19 -2 -36.5 9.5t-22.5 28.5h1q-10 31 -27.5 43.5t-46.5 12.5q-31 0 -45.5 -7.5t-14.5 -19.5q0 -6 8 -14q17 -17 66 -39t124 -50q57 -22 109 -44.5t97 -45.5t81 -45.5t60 -44.5q54 -50 81.5 -114t27.5 -144q0 -79 -32 -146.5t-96 -133.5q37 -49 55 -102.5
t18 -119.5q-2 -80 -30 -154t-91 -131t-163.5 -91t-246.5 -32q-89 0 -163 13t-133 36t-103.5 53.5t-75.5 65.5h1q-21 23 -36.5 48.5t-26.5 47.5q-10 23 -19.5 53t-17.5 66q-4 26 9.5 44.5t37.5 22.5l338 34q15 0 32 -9t24 -22q24 -47 54 -70.5t72 -23.5q33 0 50.5 12t17.5 32
q0 6 -5.5 14t-15.5 19h1q-23 21 -87.5 52.5t-168.5 73.5q-111 45 -193.5 94t-124.5 97q-42 51 -65 106t-23 113q0 48 13 90.5t34 79.5q17 28 44 56.5t62 57.5q-34 46 -48.5 93t-14.5 104q-2 70 24 129t68 104.5t94.5 76.5t103.5 44h-1q45 13 100.5 19.5t124.5 6.5
q90 0 158 -10t116 -27q99 -34 163 -111q29 -37 53.5 -85.5t41.5 -105.5h-1q8 -24 -6 -45.5t-40 -25.5zM458 760q12 2 21 -2.5t14 -13t5 -19t-7 -20.5l-12 -15l-2 -5q-6 -6 -18 -7.5t-20 2.5q-7 1 -13 7q-2 1 -3.5 1.5t-2.5 1.5q-2 1 -2 2q-9 7 -12.5 16.5t-2 19t8.5 16.5
t18 10zM672 575q-72 29 -120.5 50.5t-86.5 40.5q-9 -17 -9 -25q0 -3 6 -7q6 -8 34 -24t66 -33q11 -5 24 -10.5t25 -10.5q26 -12 52.5 -24.5t50.5 -23.5q23 -10 46 -19.5t44 -20.5q14 -6 27 -12t30 -13q4 8 5.5 14.5t1.5 11.5q0 3 -2 7.5t-9 9.5q-12 12 -58 34.5t-127 54.5z
" />
    <glyph glyph-name="dieresis" unicode="&#xa8;" horiz-adv-x="849" 
d="M61 1351q0 22 15.5 38.5t40.5 16.5h232q24 0 40 -16.5t16 -38.5v-225q0 -23 -16 -39t-40 -16h-232q-25 0 -40.5 16t-15.5 39v225zM441 1351q0 22 15 38.5t41 16.5h235q24 0 40 -16.5t16 -38.5v-225q0 -23 -16 -39t-40 -16h-235q-26 0 -41 16t-15 39v225z" />
    <glyph glyph-name="copyright" unicode="&#xa9;" horiz-adv-x="1578" 
d="M1528 708q0 -98 -25.5 -192t-72.5 -178q-50 -85 -119 -153t-153 -118q-83 -48 -176.5 -73t-192.5 -25q-202 0 -370 98q-171 100 -272 270q-48 83 -72.5 177t-24.5 194q0 98 24.5 191.5t72.5 176.5q51 87 119 155t153 117t176.5 74t193.5 25q98 0 192 -26t177 -73
q85 -49 154 -117.5t118 -153.5q47 -83 72.5 -177t25.5 -192zM1284 708q0 205 -146 348q-73 75 -160.5 111t-188.5 36q-205 0 -352 -147q-72 -72 -108.5 -158.5t-36.5 -189.5q0 -104 36.5 -191t108.5 -160q146 -145 352 -145q205 0 349 145q146 146 146 351zM1143 634
q23 -5 36 -26t6 -45q-9 -27 -20.5 -54t-26 -52t-30.5 -46.5t-32 -37.5q-54 -51 -125.5 -78.5t-157.5 -27.5q-189 0 -309 122q-119 122 -119 320q0 95 30.5 172t90.5 140q124 125 308 125q76 0 138.5 -20.5t113.5 -59.5q51 -42 84.5 -93.5t47.5 -117.5q4 -23 -9.5 -43.5
t-36.5 -24.5l-176 -26q-21 -1 -39.5 11.5t-22.5 33.5q-12 48 -40 73.5t-68 25.5q-21 0 -39.5 -10.5t-34.5 -29.5q-35 -44 -35 -151q0 -51 7 -91.5t17 -63.5q15 -23 37.5 -37t49.5 -14q34 0 62.5 30.5t42.5 94.5q5 24 24.5 36t43.5 7z" />
    <glyph glyph-name="ordfeminine" unicode="&#xaa;" horiz-adv-x="882" 
d="M435 1193q-29 0 -40 -12l28 6t25 6q-3 1 -5.5 0.5t-7.5 -0.5zM565 681q-11 0 -25.5 8t-22.5 20q-9 -5 -18 -9.5t-17 -7.5q-33 -12 -71 -19t-78 -7q-70 0 -122.5 18t-87.5 50.5t-52.5 78.5t-17.5 102q0 98 62 165q17 16 45 32.5t63 29.5q-26 5 -50.5 9.5t-50.5 9.5
q-23 5 -36 25.5t-5 44.5v-1q20 80 60 124.5t103 68.5q32 11 74 17.5t96 6.5q206 0 287 -64q83 -68 83 -205v-302q0 -23 1 -40.5t3 -27.5v1q3 -11 7 -21.5t11 -21.5q9 -15 9.5 -30t-6 -27.5t-19.5 -20t-30 -7.5h-195zM471 1005q0 7 5.5 9.5t10.5 -1.5l29 -23q4 -3 3 -7.5
t-5 -8.5q-3 -3 -9 -3q-2 0 -3 -0.5t-2 -0.5q-2 0 -7.5 -1.5t-10.5 -3.5t-9.5 1.5t-3.5 9.5q1 5 1.5 11.5t0.5 13.5v4zM404 911q49 0 62 50q-1 0 -1 -0.5t-1 -0.5l-18 -4.5t-19 -4.5q-42 -6 -51 -16q-3 -3 -3 -5q0 -8 8 -13.5t23 -5.5z" />
    <glyph glyph-name="guillemotleft" unicode="&#xab;" horiz-adv-x="1248" 
d="M806 978q5 8 20.5 16.5t25.5 8.5h280q26 0 41.5 -14.5t15.5 -37.5q0 -17 -10 -33l1 1q-31 -51 -59.5 -99.5t-57.5 -96.5t-57 -93.5t-57 -96.5q3 -5 5 -9t5 -9q23 -41 48 -83t51 -84t52 -85t52 -85l-1 1q5 -7 9 -15t9 -15q10 -20 10 -33q0 -23 -15.5 -37.5t-41.5 -14.5
h-280q-10 0 -25.5 7.5t-20.5 14.5l-285 416q-8 11 -8 31t8 31zM341 978q7 8 23 16.5t23 8.5h280q26 0 41.5 -14.5t15.5 -37.5q0 -18 -11 -33l1 1q-30 -51 -59 -99.5t-58 -96.5q-27 -45 -55.5 -93t-56.5 -96q11 -19 23 -39t25 -43q16 -27 31 -53.5t30 -50.5q61 -102 120 -199
q10 -16 10 -33q0 -23 -15.5 -37.5t-41.5 -14.5h-280q-4 0 -10.5 2t-13.5 5.5t-13 7.5t-9 7l-283 415q-8 12 -8.5 32t7.5 31z" />
    <glyph glyph-name="logicalnot" unicode="&#xac;" horiz-adv-x="1185" 
d="M35 1070q0 23 16 39.5t39 16.5h978q24 0 40 -16.5t16 -39.5v-731q0 -25 -16 -40.5t-40 -15.5h-292q-23 0 -39.5 15.5t-16.5 40.5v384h-630q-23 0 -39 15.5t-16 40.5v291z" />
    <glyph glyph-name="registered" unicode="&#xae;" horiz-adv-x="1578" 
d="M1528 708q0 -98 -25.5 -192t-72.5 -178q-50 -85 -119 -153t-153 -118q-83 -48 -176.5 -73t-192.5 -25q-202 0 -370 98q-171 100 -272 270q-48 83 -72.5 177t-24.5 194q0 98 24.5 191.5t72.5 176.5q51 87 119 155t153 117t176.5 74t193.5 25q98 0 192 -26t177 -73
q85 -49 154 -117.5t118 -153.5q47 -83 72.5 -177t25.5 -192zM1284 708q0 205 -146 348q-73 75 -160.5 111t-188.5 36q-205 0 -352 -147q-72 -72 -108.5 -158.5t-36.5 -189.5q0 -104 36.5 -191t108.5 -160q146 -145 352 -145q205 0 349 145q146 146 146 351zM423 1073
q0 23 16 39.5t40 16.5h326q85 0 145 -18.5t98.5 -53t56.5 -82.5t18 -108q0 -72 -31.5 -127.5t-100.5 -92.5q13 -14 24 -31t25 -38l3 -6q8 -12 25.5 -42.5t45.5 -78.5q18 -38 45 -81q8 -15 8 -29.5t-7 -26.5t-20 -19.5t-30 -7.5h-215q-12 0 -28 10t-21 21q-43 85 -76.5 145.5
t-53.5 84.5v-206q0 -24 -16 -39.5t-40 -15.5h-181q-24 0 -40 15.5t-16 39.5v731zM716 819h23q49 0 68.5 10t19.5 25q0 16 -18 25.5t-62 9.5h-31v-70z" />
    <glyph glyph-name="macron" unicode="&#xaf;" horiz-adv-x="1024" 
d="M60 1773q0 23 16.5 39t39.5 16h939q23 0 39.5 -16t16.5 -39v-92q0 -23 -16.5 -39t-39.5 -16h-939q-23 0 -39.5 16t-16.5 39v92z" />
    <glyph glyph-name="degree" unicode="&#xb0;" horiz-adv-x="725" 
d="M675 1136q0 -129 -92 -221q-89 -92 -222 -92q-131 0 -220 92q-91 91 -91 221q0 131 91 220q94 92 220 92q130 0 222 -92q92 -90 92 -220zM396 1137q0 14 -10.5 24.5t-24.5 10.5t-25 -10.5t-11 -24.5q0 -15 11 -25.5t25 -10.5t24.5 10.5t10.5 25.5z" />
    <glyph glyph-name="plusminus" unicode="&#xb1;" horiz-adv-x="1188" 
d="M50 1016q0 23 16 39.5t39 16.5h287v278q0 23 16 39.5t40 16.5h289q24 0 40 -16.5t16 -39.5v-278h289q24 0 40 -16.5t16 -39.5v-283q0 -24 -16 -40t-40 -16h-289v-262q0 -25 -16 -40.5t-40 -15.5h-289q-24 0 -40 15.5t-16 40.5v262h-287q-23 0 -39 16t-16 40v283zM50 331
q0 22 16 38.5t39 16.5h977q24 0 40 -16.5t16 -38.5v-275q0 -23 -16 -39.5t-40 -16.5h-977q-23 0 -39 16.5t-16 39.5v275z" />
    <glyph glyph-name="twosuperior" unicode="&#xb2;" horiz-adv-x="914" 
d="M857 719q0 -25 -15.5 -40t-38.5 -15h-689q-15 0 -26.5 6t-19 16t-10 22.5t1.5 25.5q13 46 33 87.5t49 73.5t86.5 77.5t147.5 105.5q48 31 75.5 52.5t37.5 33.5q15 16 15 24q0 6 -27 6q-23 0 -39 -14.5t-24 -48.5q-5 -17 -21.5 -29t-36.5 -10q-33 2 -66 5l-66 6
q-23 2 -44.5 4t-44.5 4q-26 2 -40 21.5t-9 47.5q10 36 23.5 71.5t29.5 55.5q24 28 58.5 53t78.5 44.5t97.5 31t113.5 11.5q93 0 159.5 -18t111.5 -53q97 -76 97 -186q0 -39 -12.5 -76t-35.5 -72q-20 -24 -52.5 -52t-69.5 -52h118q23 0 38.5 -15t15.5 -41v-163z" />
    <glyph glyph-name="threesuperior" unicode="&#xb3;" horiz-adv-x="898" 
d="M423 1192q-2 -2 -3 -2l-10 16l2 1zM455 1200q-16 0 -32 -8l-2 -2l-1 -1q20 1 30.5 2.5t16.5 4.5h-1q3 1 6 4h-17zM479 941q-18 7 -95 9q7 -8 8 -16h-1q9 -23 22.5 -32.5t34.5 -9.5q24 0 37.5 8t13.5 19q0 5 -6 11t-14 11zM113 1162q-30 5 -41.5 30t0.5 51q55 99 130 145
q49 27 115 43t143 16q89 0 158.5 -18.5t118.5 -53.5q37 -29 58.5 -68.5t21.5 -87.5q0 -68 -45 -122v-1q-3 -4 -6 -7l-6 -6q42 -35 63.5 -81.5t21.5 -100.5t-23 -99t-65 -79q-53 -38 -129.5 -57.5t-175.5 -19.5q-92 0 -166.5 21t-128.5 59q-33 26 -59 63t-40 84q-8 28 6 49
t41 25l223 24q-17 20 -12 47q5 29 10 54.5t10 54.5z" />
    <glyph glyph-name="acute" unicode="&#xb4;" horiz-adv-x="674" 
d="M215 1414v-1q5 12 21.5 23t29.5 11h313q26 0 41.5 -17t15.5 -38q0 -12 -5 -23t-16 -19l1 1q-37 -35 -75.5 -70.5t-76.5 -70.5t-78 -72.5t-76 -70.5h-195q-18 0 -30.5 7.5t-19.5 19.5t-7 26.5t8 29.5z" />
    <glyph glyph-name="mu1" unicode="&#xb5;" horiz-adv-x="1225" 
d="M61 1006q0 23 16 39.5t39 16.5h367q23 0 38.5 -16.5t15.5 -39.5v-478q0 -88 13 -104q25 -38 73 -38q41 0 60.5 39t19.5 114v467q0 23 16 39.5t40 16.5h364q25 0 40 -16.5t15 -39.5v-950q0 -23 -15 -39.5t-40 -16.5h-342q-22 0 -34 11q-29 -16 -58.5 -24.5t-55.5 -8.5
q-49 0 -96 23v-305q0 -24 -15.5 -40t-38.5 -16h-367q-23 0 -39 16t-16 40v1310z" />
    <glyph glyph-name="paragraph" unicode="&#xb6;" horiz-adv-x="1535" 
d="M1423 1424q23 0 39.5 -16t16.5 -40v-284q0 -23 -16.5 -39t-39.5 -16h-62v-1338q0 -23 -16.5 -39.5t-38.5 -16.5h-267q-22 0 -38.5 16.5t-16.5 39.5v1338h-38v-1338q0 -23 -16.5 -39.5t-39.5 -16.5h-266q-24 0 -40 16.5t-16 39.5v860h-6q-195 0 -296 49q-110 53 -168 161
q-29 51 -43 110.5t-14 124.5q0 206 128 317t384 111h870z" />
    <glyph glyph-name="periodcentered" unicode="&#xb7;" horiz-adv-x="622" 
d="M61 895q0 23 16 39t40 16h389q24 0 39.5 -16t15.5 -39v-366q0 -23 -15.5 -39.5t-39.5 -16.5h-389q-24 0 -40 16.5t-16 39.5v366z" />
    <glyph glyph-name="cedilla" unicode="&#xb8;" horiz-adv-x="756" 
d="M169 33q3 10 17 21t28 16q42 10 82.5 15t82.5 5q176 0 248 -66q38 -35 57.5 -75.5t19.5 -88.5q0 -61 -33 -116q-35 -61 -122 -97q-80 -33 -203 -33q-56 0 -117.5 6t-131.5 17q-18 4 -32 20t-14 36v111q0 26 20 43t46 12q93 -18 187 -18q45 0 60.5 5.5t15.5 13.5
q0 7 -36 7q-28 0 -63.5 -3.5t-79.5 -11.5q-32 -4 -50.5 17t-9.5 52v-1z" />
    <glyph glyph-name="onesuperior" unicode="&#xb9;" horiz-adv-x="644" 
d="M528 1447q25 0 40 -16.5t15 -39.5v-672q0 -25 -15 -40t-40 -15h-233q-23 0 -39.5 15t-16.5 40v312q-10 -4 -14 -6q-25 -10 -55.5 -18t-65.5 -16q-26 -5 -46.5 11t-20.5 44v186q0 18 13 34t30 20q70 17 128 53t98 84q8 8 22.5 16t22.5 8h177z" />
    <glyph glyph-name="ordmasculine" unicode="&#xba;" horiz-adv-x="898" 
d="M51 1056q0 94 43 188q23 47 60.5 85.5t82.5 65.5q45 25 100 38.5t119 13.5q89 0 159.5 -28t123.5 -81q108 -111 108 -285q0 -173 -108 -280q-107 -108 -283 -108q-68 0 -126 15t-104.5 43t-80.5 66.5t-55 86.5q-19 45 -29 90t-10 90zM385 1056q0 -38 6 -65.5t18 -43.5
q7 -6 18.5 -10.5t26.5 -4.5q27 0 44 28t17 96q0 69 -18 97.5t-47 28.5t-47 -28.5t-18 -97.5z" />
    <glyph glyph-name="guillemotright" unicode="&#xbb;" 
d="M560.049 978q-4.99902 8 -20.498 16.5t-25.499 8.5h-279.982q-25.999 0 -41.498 -14.5t-15.499 -37.5q0 -17 10 -33l-1 1q30.998 -51 59.4961 -99.5t57.4961 -96.5q28.999 -48 56.9971 -93.5t56.9961 -96.5q-2.99902 -5 -4.99902 -9t-5 -9q-22.999 -41 -47.9971 -83
q-24.999 -42 -50.9971 -84t-51.9971 -85q-25.998 -43 -51.9961 -85l1 1q-5 -7 -9 -15t-8.99902 -15q-10 -20 -10 -33q0 -23 15.499 -37.5t41.498 -14.5h279.982q10 0 25.499 7.5t20.498 14.5l284.983 416q7.99902 11 7.99902 31t-7.99902 31zM1025.02 978
q-6.99902 8 -22.998 16.5t-22.999 8.5h-279.982q-25.999 0 -41.498 -14.5t-15.499 -37.5q0 -18 11 -33l-1 1q29.998 -51 58.9961 -99.5t57.9961 -96.5q26.999 -45 55.4971 -93t56.4961 -96q-10.999 -19 -22.998 -39q-12 -20 -24.999 -43q-15.999 -27 -30.998 -53.5
t-29.998 -50.5q-60.9961 -102 -119.992 -199q-10 -16 -10 -33q0 -23 15.499 -37.5t41.498 -14.5h279.982q4 0 10.5 2q6.49902 2 13.499 5.5q6.99902 3.5 12.999 7.5t8.99902 7l282.983 415q7.99902 12 8.49902 32t-7.49902 31z" />
    <glyph glyph-name="onequarter" unicode="&#xbc;" horiz-adv-x="2005" 
d="M1294 1417q8 11 24 20.5t25 9.5h193q17 0 30 -7.5t19.5 -20t6.5 -28t-9 -30.5l-824 -1380q-8 -10 -23 -19.5t-27 -9.5h-189q-18 0 -31 7.5t-19.5 20t-6.5 27.5t9 30zM1555 -17h-309q-24 0 -40 16t-16 40v191l387 428q3 3 8.5 6t12 6t12.5 5t10 2h192q22 0 38.5 -16.5
t16.5 -39.5v-379h32q26 0 41 -15.5t15 -38.5v-149q0 -24 -15 -40t-41 -16h-32v-52q0 -26 -16.5 -41t-38.5 -15h-201q-24 0 -40 15t-16 41v52zM1555 242v1l-1 -1h1zM1601 291q-1 -1 -2 -1.5t-2 -1.5q-14 -14 -18.5 -19t-7.5 -8q-5 -5 -10.5 -2t-5.5 9v59q0 13 13 9l41 -17
q5 -2 7 -6t-3 -9q-2 -2 -3 -3.5t-3 -3.5zM533 1447q25 0 40 -16.5t15 -39.5v-672q0 -25 -15 -40t-40 -15h-233q-23 0 -39.5 15t-16.5 40v312q-10 -4 -14 -6q-25 -10 -55.5 -18t-65.5 -16q-26 -5 -46.5 11t-20.5 44v186q0 18 13 34t30 20q70 17 128 53t98 84q8 8 22.5 16
t22.5 8h177z" />
    <glyph glyph-name="onehalf" unicode="&#xbd;" horiz-adv-x="2097" 
d="M1266 1417q8 11 24 20.5t25 9.5h193q17 0 30 -7.5t19.5 -20t6.5 -28t-9 -30.5l-824 -1380q-8 -10 -23 -19.5t-27 -9.5h-189q-18 0 -31 7.5t-19.5 20t-6.5 27.5t9 30zM536 1447q25 0 40 -16.5t15 -39.5v-672q0 -25 -15 -40t-40 -15h-233q-23 0 -39.5 15t-16.5 40v312
q-10 -4 -14 -6q-25 -10 -55.5 -18t-65.5 -16q-26 -5 -46.5 11t-20.5 44v186q0 18 13 34t30 20q70 17 128 53t98 84q8 8 22.5 16t22.5 8h177zM2048 -51q0 -25 -15.5 -40t-38.5 -15h-689q-15 0 -26.5 6t-19 16t-10 22.5t1.5 25.5q13 46 33 87.5t49 73.5t86.5 77.5t147.5 105.5
q48 31 75.5 52.5t37.5 33.5q15 16 15 24q0 6 -27 6q-23 0 -39 -14.5t-24 -48.5q-5 -17 -21.5 -29t-36.5 -10q-33 2 -66 5l-66 6q-23 2 -44.5 4t-44.5 4q-26 2 -40 21.5t-9 47.5q10 36 23.5 71.5t29.5 55.5q24 28 58.5 53t78.5 44.5t97.5 31t113.5 11.5q93 0 159.5 -18
t111.5 -53q97 -76 97 -186q0 -39 -12.5 -76t-35.5 -72q-20 -24 -52.5 -52t-69.5 -52h118q23 0 38.5 -15t15.5 -41v-163z" />
    <glyph glyph-name="threequarters" unicode="&#xbe;" horiz-adv-x="1972" 
d="M1286 1417q8 11 24 20.5t25 9.5h193q17 0 30 -7.5t19.5 -20t6.5 -28t-9 -30.5l-824 -1380q-8 -10 -23 -19.5t-27 -9.5h-189q-18 0 -31 7.5t-19.5 20t-6.5 27.5t9 30zM1522 -17h-309q-24 0 -40 16t-16 40v191l387 428q3 3 8.5 6t12 6t12.5 5t10 2h192q22 0 38.5 -16.5
t16.5 -39.5v-379h32q26 0 41 -15.5t15 -38.5v-149q0 -24 -15 -40t-41 -16h-32v-52q0 -26 -16.5 -41t-38.5 -15h-201q-24 0 -40 15t-16 41v52zM1522 242v1l-1 -1h1zM1568 291q-1 -1 -2 -1.5t-2 -1.5q-14 -14 -18.5 -19t-7.5 -8q-5 -5 -10.5 -2t-5.5 9v59q0 13 13 9l41 -17
q5 -2 7 -6t-3 -9q-2 -2 -3 -3.5t-3 -3.5zM418 1192q-2 -2 -3 -2l-10 16l2 1zM450 1200q-16 0 -32 -8l-2 -2l-1 -1q20 1 30.5 2.5t16.5 4.5h-1q3 1 6 4h-17zM474 941q-18 7 -95 9q7 -8 8 -16h-1q9 -23 22.5 -32.5t34.5 -9.5q24 0 37.5 8t13.5 19q0 5 -6 11t-14 11zM108 1162
q-30 5 -41.5 30t0.5 51q55 99 130 145q49 27 115 43t143 16q89 0 158.5 -18.5t118.5 -53.5q37 -29 58.5 -68.5t21.5 -87.5q0 -68 -45 -122v-1q-3 -4 -6 -7l-6 -6q42 -35 63.5 -81.5t21.5 -100.5t-23 -99t-65 -79q-53 -38 -129.5 -57.5t-175.5 -19.5q-92 0 -166.5 21
t-128.5 59q-33 26 -59 63t-40 84q-8 28 6 49t41 25l223 24q-17 20 -12 47q5 29 10 54.5t10 54.5z" />
    <glyph glyph-name="questiondown" unicode="&#xbf;" horiz-adv-x="1251" 
d="M853.024 651.025q24.998 0 40.4971 -16.499t15.499 -39.498v-33.998q0 -46.9971 -6.49902 -87.4941q-6.5 -40.498 -17.499 -72.4961q-10.999 -33.998 -28.998 -63.9961t-38.998 -52.9961v1q-19.999 -23.999 -64.9961 -64.4961q-44.9971 -40.498 -116.993 -100.494
q-51.9961 -42.9971 -51.9961 -64.9961q0 -22.999 15.499 -35.498t46.4971 -12.499q39.9971 0 66.4961 31.498q26.498 31.498 36.4971 109.493q4 22.999 20.999 35.998t40.998 11.999l348.979 -42.9971q21.998 -4 35.498 -21.499q13.499 -17.499 11.499 -39.4971
q-19.999 -211.987 -156.99 -342.979q-134.992 -133.992 -408.976 -133.992q-103.993 0 -190.988 23.999q-86.9941 23.998 -155.99 68.9961q-88.9951 62.9961 -137.992 148.99q-48.9961 85.9951 -48.9961 188.989q0 44.9971 12.499 89.9941t35.498 84.9951
q22.998 37.9971 71.9951 87.9941t113.993 100.994q40.9971 32.998 66.4961 57.4961q25.498 24.499 34.498 40.498q15.999 33.9971 15.999 86.9941q0 22.999 16.499 39.498t39.4971 16.499h339.979zM921.021 685.023q0 -22.999 -16.499 -39.498t-38.498 -16.499h-365.978
q-22.999 0 -38.998 16.499t-15.999 39.498v320.98q0 22.998 15.999 39.4971t38.998 16.499h365.978q21.999 0 38.498 -16.499t16.499 -39.4971v-320.98z" />
    <glyph glyph-name="Agrave" unicode="&#xc0;" horiz-adv-x="1593" 
d="M1039 223h-390q-2 -6 -3 -11t-3 -10q-4 -14 -8.5 -28.5t-9.5 -30.5h1l-16 -52l-16 -52q-5 -16 -20 -27.5t-33 -11.5h-428q-16 0 -28 6.5t-19.5 17.5t-8.5 25t5 29v-1q63 170 126 338t127 339t127.5 339t127.5 337q5 14 20 25t32 11h456q14 0 30.5 -11t21.5 -25l508 -1354
q10 -29 -5.5 -52.5t-46.5 -23.5h-437q-18 0 -34.5 12t-21.5 26zM915 629q-11 35 -20 65.5t-18 60.5q-5 19 -10.5 38t-11.5 39q-3 10 -5 16l-3 9q0 3 -2 7q-1 -2 -1 -3.5t-1 -3.5q-4 -11 -7.5 -23t-7.5 -23h1q-3 -11 -6.5 -21t-6.5 -19h1q-6 -19 -10.5 -34.5t-9.5 -31.5
t-10.5 -34t-12.5 -42h141zM513 1714q-8 8 -13.5 19t-5.5 22q0 21 15.5 38t41.5 17h310q13 0 28.5 -11t20.5 -20v1q37 -66 74 -133t74 -133q8 -15 7.5 -29.5t-7.5 -26.5t-20 -19.5t-30 -7.5h-194z" />
    <glyph glyph-name="Aacute" unicode="&#xc1;" horiz-adv-x="1593" 
d="M1039 223h-390q-2 -6 -3 -11t-3 -10q-4 -14 -8.5 -28.5t-9.5 -30.5h1l-16 -52l-16 -52q-5 -16 -20 -27.5t-33 -11.5h-428q-16 0 -28 6.5t-19.5 17.5t-8.5 25t5 29v-1q63 170 126 338t127 339t127.5 339t127.5 337q5 14 20 25t32 11h456q14 0 30.5 -11t21.5 -25l508 -1354
q10 -29 -5.5 -52.5t-46.5 -23.5h-437q-18 0 -34.5 12t-21.5 26zM915 629q-11 35 -20 65.5t-18 60.5q-5 19 -10.5 38t-11.5 39q-3 10 -5 16l-3 9q0 3 -2 7q-1 -2 -1 -3.5t-1 -3.5q-4 -11 -7.5 -23t-7.5 -23h1q-3 -11 -6.5 -21t-6.5 -19h1q-6 -19 -10.5 -34.5t-9.5 -31.5
t-10.5 -34t-12.5 -42h141zM671 1777v-1q5 12 21.5 23t29.5 11h313q26 0 41.5 -17t15.5 -38q0 -12 -5 -23t-16 -19l1 1q-37 -35 -75.5 -70.5t-76.5 -70.5t-78 -72.5t-76 -70.5h-195q-18 0 -30.5 7.5t-19.5 19.5t-7 26.5t8 29.5z" />
    <glyph glyph-name="Acircumflex" unicode="&#xc2;" horiz-adv-x="1593" 
d="M1039 223h-390q-2 -6 -3 -11t-3 -10q-4 -14 -8.5 -28.5t-9.5 -30.5h1l-16 -52l-16 -52q-5 -16 -20 -27.5t-33 -11.5h-428q-16 0 -28 6.5t-19.5 17.5t-8.5 25t5 29v-1q63 170 126 338t127 339t127.5 339t127.5 337q5 14 20 25t32 11h456q14 0 30.5 -11t21.5 -25l508 -1354
q10 -29 -5.5 -52.5t-46.5 -23.5h-437q-18 0 -34.5 12t-21.5 26zM915 629q-11 35 -20 65.5t-18 60.5q-5 19 -10.5 38t-11.5 39q-3 10 -5 16l-3 9q0 3 -2 7q-1 -2 -1 -3.5t-1 -3.5q-4 -11 -7.5 -23t-7.5 -23h1q-3 -11 -6.5 -21t-6.5 -19h1q-6 -19 -10.5 -34.5t-9.5 -31.5
t-10.5 -34t-12.5 -42h141zM722 1777q4 4 7 4q9 7 20.5 11.5t17.5 4.5h258q7 0 23 -7t22 -15q24 -32 48.5 -64t50.5 -64q25 -32 50.5 -64t49.5 -64q13 -20 13 -36q0 -22 -15.5 -37.5t-41.5 -15.5h-223q-9 0 -24 7.5t-20 13.5q-8 9 -15 17.5t-13 16.5q-10 13 -17 21t-21 26
q-5 -7 -10 -13l-10 -12q-11 -14 -22 -27.5t-22 -27.5q-5 -7 -20 -14.5t-24 -7.5h-223q-25 0 -41 16t-16 38q0 18 13 36z" />
    <glyph glyph-name="Atilde" unicode="&#xc3;" horiz-adv-x="1593" 
d="M1039 223h-390q-2 -6 -3 -11t-3 -10q-4 -14 -8.5 -28.5t-9.5 -30.5h1l-16 -52l-16 -52q-5 -16 -20 -27.5t-33 -11.5h-428q-16 0 -28 6.5t-19.5 17.5t-8.5 25t5 29v-1q63 170 126 338t127 339t127.5 339t127.5 337q5 14 20 25t32 11h456q14 0 30.5 -11t21.5 -25l508 -1354
q10 -29 -5.5 -52.5t-46.5 -23.5h-437q-18 0 -34.5 12t-21.5 26zM915 629q-11 35 -20 65.5t-18 60.5q-5 19 -10.5 38t-11.5 39q-3 10 -5 16l-3 9q0 3 -2 7q-1 -2 -1 -3.5t-1 -3.5q-4 -11 -7.5 -23t-7.5 -23h1q-3 -11 -6.5 -21t-6.5 -19h1q-6 -19 -10.5 -34.5t-9.5 -31.5
t-10.5 -34t-12.5 -42h141zM1213 1787q23 0 38.5 -15.5t17.5 -36.5q1 -12 1 -24v-20q0 -61 -16.5 -109t-48.5 -83q-67 -72 -170 -72q-33 0 -82.5 13.5t-111.5 38.5q-28 11 -48.5 17.5t-28.5 6.5q-5 0 -2.5 -1.5t1.5 -16.5q-2 -23 -17 -39.5t-38 -16.5h-139q-23 0 -38.5 15
t-17.5 36q-1 11 -1 22.5v19.5q0 116 69 191q69 74 165 74q40 0 73 -10q18 -5 46.5 -15t62.5 -26q29 -12 52.5 -19t34.5 -7q-1 0 -1 5t2 19q2 22 17.5 37.5t38.5 15.5h141z" />
    <glyph glyph-name="Adieresis" unicode="&#xc4;" horiz-adv-x="1593" 
d="M1039 223h-390q-2 -6 -3 -11t-3 -10q-4 -14 -8.5 -28.5t-9.5 -30.5h1l-16 -52l-16 -52q-5 -16 -20 -27.5t-33 -11.5h-428q-16 0 -28 6.5t-19.5 17.5t-8.5 25t5 29v-1q63 170 126 338t127 339t127.5 339t127.5 337q5 14 20 25t32 11h456q14 0 30.5 -11t21.5 -25l508 -1354
q10 -29 -5.5 -52.5t-46.5 -23.5h-437q-18 0 -34.5 12t-21.5 26zM915 629q-11 35 -20 65.5t-18 60.5q-5 19 -10.5 38t-11.5 39q-3 10 -5 16l-3 9q0 3 -2 7q-1 -2 -1 -3.5t-1 -3.5q-4 -11 -7.5 -23t-7.5 -23h1q-3 -11 -6.5 -21t-6.5 -19h1q-6 -19 -10.5 -34.5t-9.5 -31.5
t-10.5 -34t-12.5 -42h141zM517 1714q0 22 15.5 38.5t40.5 16.5h232q24 0 40 -16.5t16 -38.5v-225q0 -23 -16 -39t-40 -16h-232q-25 0 -40.5 16t-15.5 39v225zM897 1714q0 22 15 38.5t41 16.5h235q24 0 40 -16.5t16 -38.5v-225q0 -23 -16 -39t-40 -16h-235q-26 0 -41 16
t-15 39v225z" />
    <glyph glyph-name="Aring" unicode="&#xc5;" horiz-adv-x="1688" 
d="M566 1429q2 5 3 8t4 7q-10 36 -10 77q0 114 81 198q80 80 197 80q60 0 108 -20t90 -60q40 -42 60.5 -91t20.5 -107q0 -36 -9 -72q4 -4 8.5 -9.5t6.5 -9.5l508 -1354q10 -29 -5.5 -52.5t-46.5 -23.5h-437q-20 0 -35.5 11.5t-20.5 25.5l-59 186h-382q-2 -7 -3.5 -13.5
t-3.5 -13.5l-6 -16t-5 -16q-4 -11 -7 -21t-7 -21h1q-7 -20 -14 -41.5t-14 -42.5q-5 -14 -20.5 -26t-31.5 -12h-428q-16 0 -28 6.5t-19.5 17.5t-8.5 25t5 29v-1q63 170 126 338t127 339t127.5 339t127.5 337v-1zM803 1522q0 -17 11 -28.5t27 -11.5t26.5 11.5t10.5 27.5
t-10.5 27t-26.5 11t-27 -11t-11 -26zM841 845q-2 8 -5 15t-5 16h20q-2 -5 -4 -11t-4 -11h1zM902 645q-10 32 -17 54t-13 42.5t-13 44.5t-18 59q-9 -28 -16 -50.5l-14 -45t-14.5 -47.5t-16.5 -57h122z" />
    <glyph glyph-name="AE" unicode="&#xc6;" horiz-adv-x="2121" 
d="M643 1430v-1q2 7 8.5 13.5t14 11.5t15.5 8.5t14 3.5h1292q26 0 41 -16.5t15 -39.5v-289q0 -25 -15 -41.5t-41 -16.5h-513v-101h461q25 0 41 -16.5t16 -39.5v-276q0 -25 -16 -41t-41 -16h-461v-154h531q23 0 39.5 -15t16.5 -41v-307q0 -23 -16.5 -39.5t-39.5 -16.5h-981
q-24 0 -41 16.5t-17 39.5v187h-305q-8 -20 -15 -41t-14 -40q-8 -22 -16 -42t-16 -42l-8 -22t-8 -21q-5 -13 -20.5 -24t-30.5 -11h-421q-31 0 -47 24.5t-5 55.5zM969 1078q-1 -2 -1.5 -4t-1.5 -4v8h3zM966 665v405q-1 -1 -1 -3q-16 -43 -31.5 -85.5t-30.5 -81.5
q-11 -28 -20 -52.5t-17.5 -48l-17 -47t-18.5 -50.5q-5 -11 -7.5 -17t-7.5 -20h151z" />
    <glyph glyph-name="Ccedilla" unicode="&#xc7;" horiz-adv-x="1593" 
d="M1451 662q20 -8 32 -28t8 -40q-17 -89 -51 -176.5t-81 -163.5t-104.5 -133.5t-120.5 -86.5q-128 -58 -322 -58q-232 0 -385 68q-152 72 -265 249q-109 175 -109 443q0 359 194 556q193 197 546 197q137 0 246 -29.5t187 -85.5q39 -27 75 -62t67.5 -84.5t58 -117
t46.5 -161.5q5 -26 -6.5 -46.5t-37.5 -25.5l-373 -2q-21 -5 -41.5 7t-25.5 31h1q-17 50 -33 73q-27 32 -68 54.5t-86 22.5q-56 0 -98 -23t-72 -67l1 1q-22 -36 -35.5 -95.5t-13.5 -139.5q0 -100 15 -169.5t40 -104.5q26 -29 63.5 -45.5t84.5 -16.5q95 0 139 50
q27 29 46 71.5t30 96.5q5 26 27.5 37t48.5 6zM625 33q3 10 17 21t28 16q42 10 82.5 15t82.5 5q176 0 248 -66q38 -35 57.5 -75.5t19.5 -88.5q0 -61 -33 -116q-35 -61 -122 -97q-80 -33 -203 -33q-56 0 -117.5 6t-131.5 17q-18 4 -32 20t-14 36v111q0 26 20 43t46 12
q93 -18 187 -18q45 0 60.5 5.5t15.5 13.5q0 7 -36 7q-28 0 -63.5 -3.5t-79.5 -11.5q-32 -4 -50.5 17t-9.5 52v-1z" />
    <glyph glyph-name="Egrave" unicode="&#xc8;" horiz-adv-x="1479" 
d="M62 1410q0 23 15 39.5t41 16.5h1120q24 0 40.5 -16.5t16.5 -39.5v-289q0 -25 -16.5 -41.5t-40.5 -16.5h-645v-101h594q23 0 40 -16.5t17 -39.5v-276q0 -25 -17 -41t-40 -16h-594v-154h665q26 0 41 -15t15 -41v-307q0 -23 -15 -39.5t-41 -16.5h-1140q-26 0 -41 16.5
t-15 39.5v1354zM456 1714q-8 8 -13.5 19t-5.5 22q0 21 15.5 38t41.5 17h310q13 0 28.5 -11t20.5 -20v1q37 -66 74 -133t74 -133q8 -15 7.5 -29.5t-7.5 -26.5t-20 -19.5t-30 -7.5h-194z" />
    <glyph glyph-name="Eacute" unicode="&#xc9;" horiz-adv-x="1479" 
d="M62 1410q0 23 15 39.5t41 16.5h1120q24 0 40.5 -16.5t16.5 -39.5v-289q0 -25 -16.5 -41.5t-40.5 -16.5h-645v-101h594q23 0 40 -16.5t17 -39.5v-276q0 -25 -17 -41t-40 -16h-594v-154h665q26 0 41 -15t15 -41v-307q0 -23 -15 -39.5t-41 -16.5h-1140q-26 0 -41 16.5
t-15 39.5v1354zM614 1777v-1q5 12 21.5 23t29.5 11h313q26 0 41.5 -17t15.5 -38q0 -12 -5 -23t-16 -19l1 1q-37 -35 -75.5 -70.5t-76.5 -70.5t-78 -72.5t-76 -70.5h-195q-18 0 -30.5 7.5t-19.5 19.5t-7 26.5t8 29.5z" />
    <glyph glyph-name="Ecircumflex" unicode="&#xca;" horiz-adv-x="1479" 
d="M62 1410q0 23 15 39.5t41 16.5h1120q24 0 40.5 -16.5t16.5 -39.5v-289q0 -25 -16.5 -41.5t-40.5 -16.5h-645v-101h594q23 0 40 -16.5t17 -39.5v-276q0 -25 -17 -41t-40 -16h-594v-154h665q26 0 41 -15t15 -41v-307q0 -23 -15 -39.5t-41 -16.5h-1140q-26 0 -41 16.5
t-15 39.5v1354zM665 1777q4 4 7 4q9 7 20.5 11.5t17.5 4.5h258q7 0 23 -7t22 -15q24 -32 48.5 -64t50.5 -64q25 -32 50.5 -64t49.5 -64q13 -20 13 -36q0 -22 -15.5 -37.5t-41.5 -15.5h-223q-9 0 -24 7.5t-20 13.5q-8 9 -15 17.5t-13 16.5q-10 13 -17 21t-21 26
q-5 -7 -10 -13l-10 -12q-11 -14 -22 -27.5t-22 -27.5q-5 -7 -20 -14.5t-24 -7.5h-223q-25 0 -41 16t-16 38q0 18 13 36z" />
    <glyph glyph-name="Edieresis" unicode="&#xcb;" horiz-adv-x="1479" 
d="M62 1410q0 23 15 39.5t41 16.5h1120q24 0 40.5 -16.5t16.5 -39.5v-289q0 -25 -16.5 -41.5t-40.5 -16.5h-645v-101h594q23 0 40 -16.5t17 -39.5v-276q0 -25 -17 -41t-40 -16h-594v-154h665q26 0 41 -15t15 -41v-307q0 -23 -15 -39.5t-41 -16.5h-1140q-26 0 -41 16.5
t-15 39.5v1354zM460 1714q0 22 15.5 38.5t40.5 16.5h232q24 0 40 -16.5t16 -38.5v-225q0 -23 -16 -39t-40 -16h-232q-25 0 -40.5 16t-15.5 39v225zM840 1714q0 22 15 38.5t41 16.5h235q24 0 40 -16.5t16 -38.5v-225q0 -23 -16 -39t-40 -16h-235q-26 0 -41 16t-15 39v225z
" />
    <glyph glyph-name="Igrave" unicode="&#xcc;" horiz-adv-x="797" 
d="M62 1410q0 23 16 39.5t41 16.5h419q25 0 41 -16.5t16 -39.5v-1354q0 -23 -16 -39.5t-41 -16.5h-419q-25 0 -41 16.5t-16 39.5v1354zM115 1714q-8 8 -13.5 19t-5.5 22q0 21 15.5 38t41.5 17h310q13 0 28.5 -11t20.5 -20v1q37 -66 74 -133t74 -133q8 -15 7.5 -29.5
t-7.5 -26.5t-20 -19.5t-30 -7.5h-194z" />
    <glyph glyph-name="Iacute" unicode="&#xcd;" horiz-adv-x="797" 
d="M62 1410q0 23 16 39.5t41 16.5h419q25 0 41 -16.5t16 -39.5v-1354q0 -23 -16 -39.5t-41 -16.5h-419q-25 0 -41 16.5t-16 39.5v1354zM273 1777v-1q5 12 21.5 23t29.5 11h313q26 0 41.5 -17t15.5 -38q0 -12 -5 -23t-16 -19l1 1q-37 -35 -75.5 -70.5t-76.5 -70.5t-78 -72.5
t-76 -70.5h-195q-18 0 -30.5 7.5t-19.5 19.5t-7 26.5t8 29.5z" />
    <glyph glyph-name="Icircumflex" unicode="&#xce;" horiz-adv-x="797" 
d="M62 1410q0 23 16 39.5t41 16.5h419q25 0 41 -16.5t16 -39.5v-1354q0 -23 -16 -39.5t-41 -16.5h-419q-25 0 -41 16.5t-16 39.5v1354zM324 1777q4 4 7 4q9 7 20.5 11.5t17.5 4.5h258q7 0 23 -7t22 -15q24 -32 48.5 -64t50.5 -64q25 -32 50.5 -64t49.5 -64q13 -20 13 -36
q0 -22 -15.5 -37.5t-41.5 -15.5h-223q-9 0 -24 7.5t-20 13.5q-8 9 -15 17.5t-13 16.5q-10 13 -17 21t-21 26q-5 -7 -10 -13l-10 -12q-11 -14 -22 -27.5t-22 -27.5q-5 -7 -20 -14.5t-24 -7.5h-223q-25 0 -41 16t-16 38q0 18 13 36z" />
    <glyph glyph-name="Idieresis" unicode="&#xcf;" horiz-adv-x="797" 
d="M62 1410q0 23 16 39.5t41 16.5h419q25 0 41 -16.5t16 -39.5v-1354q0 -23 -16 -39.5t-41 -16.5h-419q-25 0 -41 16.5t-16 39.5v1354zM119 1714q0 22 15.5 38.5t40.5 16.5h232q24 0 40 -16.5t16 -38.5v-225q0 -23 -16 -39t-40 -16h-232q-25 0 -40.5 16t-15.5 39v225z
M499 1714q0 22 15 38.5t41 16.5h235q24 0 40 -16.5t16 -38.5v-225q0 -23 -16 -39t-40 -16h-235q-26 0 -41 16t-15 39v225z" />
    <glyph glyph-name="Eth" unicode="&#xd0;" horiz-adv-x="1605" 
d="M194 1410q0 23 17.5 39.5t40.5 16.5h620q97 0 177.5 -14t141.5 -40q63 -29 116.5 -69.5t91.5 -90.5q81 -101 117 -233.5t36 -279.5q0 -235 -55 -366q-30 -65 -67 -119.5t-84 -97.5q-45 -40 -102 -72t-111 -46q-69 -17 -137 -27.5t-124 -10.5h-620q-23 0 -40.5 16.5
t-17.5 39.5v517h-84q-23 0 -40.5 16.5t-17.5 41.5v204q0 24 17.5 40.5t40.5 16.5h84v518zM727 1047v-155h145q26 0 41.5 -16.5t15.5 -40.5v-204q0 -25 -15.5 -41.5t-41.5 -16.5h-145v-153h46q115 0 157 22q18 10 34.5 30.5t28.5 44.5v-1q13 32 20 85t7 128q0 191 -57 256
q-56 62 -190 62h-46z" />
    <glyph glyph-name="Ntilde" unicode="&#xd1;" horiz-adv-x="1706" 
d="M62 1410q0 23 15.5 39.5t41.5 16.5h390q11 0 26.5 -9t20.5 -16q38 -57 73 -107.5t68 -100.5q33 -48 64 -94.5t63 -93.5t66 -97t72 -105v567q0 23 15 39.5t41 16.5h395q23 0 39.5 -16.5t16.5 -39.5v-1354q0 -23 -16.5 -39.5t-39.5 -16.5h-395q-8 0 -20.5 6.5t-20.5 14.5
q-3 0 -5 4q-59 85 -110 159.5t-101 147.5q-25 36 -47.5 69t-45.5 66.5t-47.5 70t-52.5 78.5v-560q0 -23 -15.5 -39.5t-40.5 -16.5h-393q-26 0 -41.5 16.5t-15.5 39.5v1354zM1269 1787q23 0 38.5 -15.5t17.5 -36.5q1 -12 1 -24v-20q0 -61 -16.5 -109t-48.5 -83
q-67 -72 -170 -72q-33 0 -82.5 13.5t-111.5 38.5q-28 11 -48.5 17.5t-28.5 6.5q-5 0 -2.5 -1.5t1.5 -16.5q-2 -23 -17 -39.5t-38 -16.5h-139q-23 0 -38.5 15t-17.5 36q-1 11 -1 22.5v19.5q0 116 69 191q69 74 165 74q40 0 73 -10q18 -5 46.5 -15t62.5 -26q29 -12 52.5 -19
t34.5 -7q-1 0 -1 5t2 19q2 22 17.5 37.5t38.5 15.5h141z" />
    <glyph glyph-name="Ograve" unicode="&#xd2;" horiz-adv-x="1706" 
d="M52 732q0 356 200 556q201 201 554 201q183 0 322 -49.5t239 -148.5q100 -100 149.5 -235t49.5 -312q0 -127 -22.5 -231t-66 -187t-106.5 -147t-144 -111q-81 -45 -182 -68t-222 -23q-123 0 -224 19.5t-183.5 60t-148 103.5t-116.5 149q-99 166 -99 423zM583 730
q0 -185 63 -257q58 -70 163 -70q110 0 165 67q31 36 46 105.5t15 172.5q0 85 -15.5 144.5t-49.5 96.5q-60 70 -165 70q-100 0 -158 -69q-64 -73 -64 -260zM569 1714q-8 8 -13.5 19t-5.5 22q0 21 15.5 38t41.5 17h310q13 0 28.5 -11t20.5 -20v1q37 -66 74 -133t74 -133
q8 -15 7.5 -29.5t-7.5 -26.5t-20 -19.5t-30 -7.5h-194z" />
    <glyph glyph-name="Oacute" unicode="&#xd3;" horiz-adv-x="1706" 
d="M52 732q0 356 200 556q201 201 554 201q183 0 322 -49.5t239 -148.5q100 -100 149.5 -235t49.5 -312q0 -127 -22.5 -231t-66 -187t-106.5 -147t-144 -111q-81 -45 -182 -68t-222 -23q-123 0 -224 19.5t-183.5 60t-148 103.5t-116.5 149q-99 166 -99 423zM583 730
q0 -185 63 -257q58 -70 163 -70q110 0 165 67q31 36 46 105.5t15 172.5q0 85 -15.5 144.5t-49.5 96.5q-60 70 -165 70q-100 0 -158 -69q-64 -73 -64 -260zM727 1777v-1q5 12 21.5 23t29.5 11h313q26 0 41.5 -17t15.5 -38q0 -12 -5 -23t-16 -19l1 1q-37 -35 -75.5 -70.5
t-76.5 -70.5t-78 -72.5t-76 -70.5h-195q-18 0 -30.5 7.5t-19.5 19.5t-7 26.5t8 29.5z" />
    <glyph glyph-name="Ocircumflex" unicode="&#xd4;" horiz-adv-x="1706" 
d="M52 732q0 356 200 556q201 201 554 201q183 0 322 -49.5t239 -148.5q100 -100 149.5 -235t49.5 -312q0 -127 -22.5 -231t-66 -187t-106.5 -147t-144 -111q-81 -45 -182 -68t-222 -23q-123 0 -224 19.5t-183.5 60t-148 103.5t-116.5 149q-99 166 -99 423zM583 730
q0 -185 63 -257q58 -70 163 -70q110 0 165 67q31 36 46 105.5t15 172.5q0 85 -15.5 144.5t-49.5 96.5q-60 70 -165 70q-100 0 -158 -69q-64 -73 -64 -260zM778 1777q4 4 7 4q9 7 20.5 11.5t17.5 4.5h258q7 0 23 -7t22 -15q24 -32 48.5 -64t50.5 -64q25 -32 50.5 -64
t49.5 -64q13 -20 13 -36q0 -22 -15.5 -37.5t-41.5 -15.5h-223q-9 0 -24 7.5t-20 13.5q-8 9 -15 17.5t-13 16.5q-10 13 -17 21t-21 26q-5 -7 -10 -13l-10 -12q-11 -14 -22 -27.5t-22 -27.5q-5 -7 -20 -14.5t-24 -7.5h-223q-25 0 -41 16t-16 38q0 18 13 36z" />
    <glyph glyph-name="Otilde" unicode="&#xd5;" horiz-adv-x="1706" 
d="M52 732q0 356 200 556q201 201 554 201q183 0 322 -49.5t239 -148.5q100 -100 149.5 -235t49.5 -312q0 -127 -22.5 -231t-66 -187t-106.5 -147t-144 -111q-81 -45 -182 -68t-222 -23q-123 0 -224 19.5t-183.5 60t-148 103.5t-116.5 149q-99 166 -99 423zM583 730
q0 -185 63 -257q58 -70 163 -70q110 0 165 67q31 36 46 105.5t15 172.5q0 85 -15.5 144.5t-49.5 96.5q-60 70 -165 70q-100 0 -158 -69q-64 -73 -64 -260zM1269 1787q23 0 38.5 -15.5t17.5 -36.5q1 -12 1 -24v-20q0 -61 -16.5 -109t-48.5 -83q-67 -72 -170 -72
q-33 0 -82.5 13.5t-111.5 38.5q-28 11 -48.5 17.5t-28.5 6.5q-5 0 -2.5 -1.5t1.5 -16.5q-2 -23 -17 -39.5t-38 -16.5h-139q-23 0 -38.5 15t-17.5 36q-1 11 -1 22.5v19.5q0 116 69 191q69 74 165 74q40 0 73 -10q18 -5 46.5 -15t62.5 -26q29 -12 52.5 -19t34.5 -7q-1 0 -1 5
t2 19q2 22 17.5 37.5t38.5 15.5h141z" />
    <glyph glyph-name="Odieresis" unicode="&#xd6;" horiz-adv-x="1706" 
d="M52 732q0 356 200 556q201 201 554 201q183 0 322 -49.5t239 -148.5q100 -100 149.5 -235t49.5 -312q0 -127 -22.5 -231t-66 -187t-106.5 -147t-144 -111q-81 -45 -182 -68t-222 -23q-123 0 -224 19.5t-183.5 60t-148 103.5t-116.5 149q-99 166 -99 423zM583 730
q0 -185 63 -257q58 -70 163 -70q110 0 165 67q31 36 46 105.5t15 172.5q0 85 -15.5 144.5t-49.5 96.5q-60 70 -165 70q-100 0 -158 -69q-64 -73 -64 -260zM573 1714q0 22 15.5 38.5t40.5 16.5h232q24 0 40 -16.5t16 -38.5v-225q0 -23 -16 -39t-40 -16h-232q-25 0 -40.5 16
t-15.5 39v225zM953 1714q0 22 15 38.5t41 16.5h235q24 0 40 -16.5t16 -38.5v-225q0 -23 -16 -39t-40 -16h-235q-26 0 -41 16t-15 39v225z" />
    <glyph glyph-name="multiply" unicode="&#xd7;" horiz-adv-x="1197" 
d="M274 1242q19 15 41 15t39 -15q63 -63 122.5 -121.5t122.5 -121.5l58.5 58.5t58.5 59.5l125 125q17 15 39 15q11 0 20.5 -4t18.5 -10l209 -208q17 -19 17 -41t-17 -39l-72.5 -72.5l-69.5 -69.5q-27 -27 -50 -49.5t-52 -51.5l55.5 -55.5t55.5 -54.5q16 -17 32.5 -34.5
t33.5 -34.5l66 -66q8 -8 13.5 -19t5.5 -21q0 -23 -18 -39l-208 -207q-17 -15 -38 -15q-11 0 -21.5 4t-19.5 12l-242 246l-111 -111q-16 -17 -32.5 -33t-33.5 -33t-34 -34.5t-34 -34.5t-40 -17q-19 0 -39 15l-208 208q-15 16 -15 37q0 20 15 40l246 247q-30 29 -59.5 58
t-59.5 59q-31 30 -63.5 63t-62.5 63q-17 17 -17 39t16 40z" />
    <glyph glyph-name="Oslash" unicode="&#xd8;" horiz-adv-x="1724" 
d="M1447 1504q14 11 36 8t36 -18q17 -18 34.5 -37.5t34.5 -36.5q17 -19 35 -37.5t35 -36.5q15 -20 15 -41q0 -24 -18 -40q-17 -17 -34 -32t-31 -29q-16 -15 -29.5 -28t-31.5 -30q17 -34 33 -78t27 -86q14 -58 21.5 -121.5t7.5 -125.5q0 -125 -25.5 -229t-71.5 -188
t-110.5 -147.5t-142.5 -107.5q-80 -40 -183.5 -63t-221.5 -23q-85 0 -161.5 10.5t-145.5 33.5q-35 12 -69.5 29t-70.5 41q-8 -8 -14 -13t-13 -12q-8 -7 -15 -13.5t-15 -14.5q-11 -11 -23.5 -23t-25.5 -24q-5 -5 -12.5 -12t-11.5 -12q-17 -15 -38 -15q-12 0 -23.5 5t-18.5 13
q-15 16 -34.5 36t-35.5 36q-17 19 -35 37.5t-35 36.5q-15 16 -15 40q0 23 16 40l131 123q-47 86 -70.5 189t-23.5 221q0 359 199 558q202 202 553 202q276 0 457 -113zM635 735q-1 -9 -3 -14q-1 -3 -2 -5q5 0 5 -3l-17 6zM635 735l324 307q-40 17 -101 17q-101 0 -159 -69
q-64 -73 -64 -252v-3zM1087 727v7v16l17 -7zM1025 469q32 36 46.5 100t15.5 158l-324 -307q38 -17 98 -17q110 0 164 66z" />
    <glyph glyph-name="Ugrave" unicode="&#xd9;" horiz-adv-x="1706" 
d="M936 1410q0 23 16.5 39.5t40.5 16.5h418q23 0 39.5 -16.5t16.5 -39.5v-807q0 -132 -40.5 -248.5t-130.5 -205.5q-40 -38 -90 -70.5t-98 -52.5q-67 -25 -145.5 -37.5t-166.5 -12.5q-54 0 -109 3.5t-113 9.5q-126 15 -215 61q-45 24 -85 56.5t-77 75.5q-35 42 -60.5 86.5
t-38.5 89.5q-8 30 -15.5 62.5t-13 65t-9 62.5t-3.5 55v807q0 23 16.5 39.5t40.5 16.5h417q25 0 41 -16.5t16 -39.5v-827q0 -84 46.5 -131t127.5 -47t127.5 46t46.5 132v827zM569 1714q-8 8 -13.5 19t-5.5 22q0 21 15.5 38t41.5 17h310q13 0 28.5 -11t20.5 -20v1
q37 -66 74 -133t74 -133q8 -15 7.5 -29.5t-7.5 -26.5t-20 -19.5t-30 -7.5h-194z" />
    <glyph glyph-name="Uacute" unicode="&#xda;" horiz-adv-x="1706" 
d="M936 1410q0 23 16.5 39.5t40.5 16.5h418q23 0 39.5 -16.5t16.5 -39.5v-807q0 -132 -40.5 -248.5t-130.5 -205.5q-40 -38 -90 -70.5t-98 -52.5q-67 -25 -145.5 -37.5t-166.5 -12.5q-54 0 -109 3.5t-113 9.5q-126 15 -215 61q-45 24 -85 56.5t-77 75.5q-35 42 -60.5 86.5
t-38.5 89.5q-8 30 -15.5 62.5t-13 65t-9 62.5t-3.5 55v807q0 23 16.5 39.5t40.5 16.5h417q25 0 41 -16.5t16 -39.5v-827q0 -84 46.5 -131t127.5 -47t127.5 46t46.5 132v827zM727 1777v-1q5 12 21.5 23t29.5 11h313q26 0 41.5 -17t15.5 -38q0 -12 -5 -23t-16 -19l1 1
q-37 -35 -75.5 -70.5t-76.5 -70.5t-78 -72.5t-76 -70.5h-195q-18 0 -30.5 7.5t-19.5 19.5t-7 26.5t8 29.5z" />
    <glyph glyph-name="Ucircumflex" unicode="&#xdb;" horiz-adv-x="1706" 
d="M936 1410q0 23 16.5 39.5t40.5 16.5h418q23 0 39.5 -16.5t16.5 -39.5v-807q0 -132 -40.5 -248.5t-130.5 -205.5q-40 -38 -90 -70.5t-98 -52.5q-67 -25 -145.5 -37.5t-166.5 -12.5q-54 0 -109 3.5t-113 9.5q-126 15 -215 61q-45 24 -85 56.5t-77 75.5q-35 42 -60.5 86.5
t-38.5 89.5q-8 30 -15.5 62.5t-13 65t-9 62.5t-3.5 55v807q0 23 16.5 39.5t40.5 16.5h417q25 0 41 -16.5t16 -39.5v-827q0 -84 46.5 -131t127.5 -47t127.5 46t46.5 132v827zM778 1777q4 4 7 4q9 7 20.5 11.5t17.5 4.5h258q7 0 23 -7t22 -15q24 -32 48.5 -64t50.5 -64
q25 -32 50.5 -64t49.5 -64q13 -20 13 -36q0 -22 -15.5 -37.5t-41.5 -15.5h-223q-9 0 -24 7.5t-20 13.5q-8 9 -15 17.5t-13 16.5q-10 13 -17 21t-21 26q-5 -7 -10 -13l-10 -12q-11 -14 -22 -27.5t-22 -27.5q-5 -7 -20 -14.5t-24 -7.5h-223q-25 0 -41 16t-16 38q0 18 13 36z
" />
    <glyph glyph-name="Udieresis" unicode="&#xdc;" horiz-adv-x="1706" 
d="M936 1410q0 23 16.5 39.5t40.5 16.5h418q23 0 39.5 -16.5t16.5 -39.5v-807q0 -132 -40.5 -248.5t-130.5 -205.5q-40 -38 -90 -70.5t-98 -52.5q-67 -25 -145.5 -37.5t-166.5 -12.5q-54 0 -109 3.5t-113 9.5q-126 15 -215 61q-45 24 -85 56.5t-77 75.5q-35 42 -60.5 86.5
t-38.5 89.5q-8 30 -15.5 62.5t-13 65t-9 62.5t-3.5 55v807q0 23 16.5 39.5t40.5 16.5h417q25 0 41 -16.5t16 -39.5v-827q0 -84 46.5 -131t127.5 -47t127.5 46t46.5 132v827zM573 1714q0 22 15.5 38.5t40.5 16.5h232q24 0 40 -16.5t16 -38.5v-225q0 -23 -16 -39t-40 -16h-232
q-25 0 -40.5 16t-15.5 39v225zM953 1714q0 22 15 38.5t41 16.5h235q24 0 40 -16.5t16 -38.5v-225q0 -23 -16 -39t-40 -16h-235q-26 0 -41 16t-15 39v225z" />
    <glyph glyph-name="Yacute" unicode="&#xdd;" horiz-adv-x="1593" 
d="M72 1386q-14 32 2 56t49 24h455q14 0 30 -12t22 -26l134 -396q4 11 7.5 22.5t6.5 22.5q30 88 58.5 175t57.5 176q2 7 8.5 13.5t14.5 12t16.5 9t15.5 3.5h425q34 0 49.5 -22t6.5 -51l-448 -1052q-28 -66 -53 -115t-46 -83q-24 -35 -60 -66.5t-84 -54.5q-45 -22 -106 -33.5
t-136 -11.5q-41 0 -106.5 5.5t-154.5 15.5q-21 3 -35.5 20t-14.5 36v280q0 12 5.5 22t14.5 17.5t20 12.5t22 5q53 -5 90.5 -7.5t58.5 -2.5q89 0 116 48zM671 1777v-1q5 12 21.5 23t29.5 11h313q26 0 41.5 -17t15.5 -38q0 -12 -5 -23t-16 -19l1 1q-37 -35 -75.5 -70.5
t-76.5 -70.5t-78 -72.5t-76 -70.5h-195q-18 0 -30.5 7.5t-19.5 19.5t-7 26.5t8 29.5z" />
    <glyph glyph-name="Thorn" unicode="&#xde;" horiz-adv-x="1356" 
d="M61 1410q0 23 15 39.5t41 16.5h420q24 0 40 -16.5t16 -39.5v-185q10 0 20.5 -0.5t21.5 -0.5h176q129 0 224.5 -31.5t159 -91.5t95 -148t31.5 -201q0 -229 -141 -359q-140 -132 -414 -132h-173v-205q0 -23 -16 -39.5t-40 -16.5h-420q-26 0 -41 16.5t-15 39.5v1354z
M593 648h46q98 0 133 29h-1q16 14 22.5 29.5t6.5 35.5q0 19 -7.5 36.5t-25.5 34.5q-21 24 -111 24h-63v-189z" />
    <glyph glyph-name="germandbls" unicode="&#xdf;" horiz-adv-x="1269" 
d="M517 225q31 18 62 36.5t63 36.5q17 11 34 21t34 21v-1q15 9 38 5.5t36 -18.5q13 -18 18 -18q15 0 15 16q0 11 -13 31q-6 8 -20.5 24t-35 37.5t-45.5 47t-53 52.5q-37 35 -65 70t-43 64q-13 23 -18.5 49t-5.5 55q0 64 59 180q46 94 46 134q0 16 -12 26.5t-32 10.5
q-26 0 -42 -21q-11 -12 -15.5 -39t-4.5 -71v-749zM114 0q-26 0 -41 16.5t-15 39.5v910q0 64 12.5 123t38.5 116q27 60 71.5 104.5t105.5 76.5q119 61 311 61q119 0 205.5 -23t142.5 -67q118 -92 118 -233q0 -86 -61 -203v1q-44 -91 -44 -113q0 -11 7.5 -24.5t36.5 -38.5
q62 -56 107 -112.5t72 -113.5q40 -85 40 -183q0 -154 -107 -258q-53 -50 -120.5 -75.5t-154.5 -25.5q-122 0 -213 43q-28 13 -55.5 33t-53.5 46v-44q0 -23 -16 -39.5t-40 -16.5h-347z" />
    <glyph glyph-name="agrave" unicode="&#xe0;" 
d="M1147 1063q18 0 28 -6.5t15 -17t6 -24.5t1 -30l-11 -904q31 -16 45 -29t14 -23q0 -12 -13.5 -18t-32 -8.5t-37 -2.5h-28.5h-232q-14 0 -29 9.5t-21 19.5q-3 6 -6 14t-7 16q-49 -39 -116 -60.5t-149 -21.5q-118 0 -214.5 46.5t-168.5 131.5q-67 85 -103 185t-36 207
q0 113 38 210.5t107 171.5q74 75 169 114.5t212 39.5q153 0 264 -81l15 30q5 11 21 21t28 10h241zM622 326q44 0 64 48t20 154q0 103 -22 155t-65 52q-45 0 -66.5 -50.5t-21.5 -156.5q0 -202 91 -202zM399 1351q-8 8 -13.5 19t-5.5 22q0 21 15.5 38t41.5 17h310
q13 0 28.5 -11t20.5 -20v1q37 -66 74 -133t74 -133q8 -15 7.5 -29.5t-7.5 -26.5t-20 -19.5t-30 -7.5h-194z" />
    <glyph glyph-name="aacute" unicode="&#xe1;" 
d="M1147 1063q18 0 28 -6.5t15 -17t6 -24.5t1 -30l-11 -904q31 -16 45 -29t14 -23q0 -12 -13.5 -18t-32 -8.5t-37 -2.5h-28.5h-232q-14 0 -29 9.5t-21 19.5q-3 6 -6 14t-7 16q-49 -39 -116 -60.5t-149 -21.5q-118 0 -214.5 46.5t-168.5 131.5q-67 85 -103 185t-36 207
q0 113 38 210.5t107 171.5q74 75 169 114.5t212 39.5q153 0 264 -81l15 30q5 11 21 21t28 10h241zM622 326q44 0 64 48t20 154q0 103 -22 155t-65 52q-45 0 -66.5 -50.5t-21.5 -156.5q0 -202 91 -202zM557 1414v-1q5 12 21.5 23t29.5 11h313q26 0 41.5 -17t15.5 -38
q0 -12 -5 -23t-16 -19l1 1q-37 -35 -75.5 -70.5t-76.5 -70.5t-78 -72.5t-76 -70.5h-195q-18 0 -30.5 7.5t-19.5 19.5t-7 26.5t8 29.5z" />
    <glyph glyph-name="acircumflex" unicode="&#xe2;" 
d="M1147 1063q18 0 28 -6.5t15 -17t6 -24.5t1 -30l-11 -904q31 -16 45 -29t14 -23q0 -12 -13.5 -18t-32 -8.5t-37 -2.5h-28.5h-232q-14 0 -29 9.5t-21 19.5q-3 6 -6 14t-7 16q-49 -39 -116 -60.5t-149 -21.5q-118 0 -214.5 46.5t-168.5 131.5q-67 85 -103 185t-36 207
q0 113 38 210.5t107 171.5q74 75 169 114.5t212 39.5q153 0 264 -81l15 30q5 11 21 21t28 10h241zM622 326q44 0 64 48t20 154q0 103 -22 155t-65 52q-45 0 -66.5 -50.5t-21.5 -156.5q0 -202 91 -202zM608 1414q4 4 7 4q9 7 20.5 11.5t17.5 4.5h258q7 0 23 -7t22 -15
q24 -32 48.5 -64t50.5 -64q25 -32 50.5 -64t49.5 -64q13 -20 13 -36q0 -22 -15.5 -37.5t-41.5 -15.5h-223q-9 0 -24 7.5t-20 13.5q-8 9 -15 17.5t-13 16.5q-10 13 -17 21t-21 26q-5 -7 -10 -13l-10 -12q-11 -14 -22 -27.5t-22 -27.5q-5 -7 -20 -14.5t-24 -7.5h-223
q-25 0 -41 16t-16 38q0 18 13 36z" />
    <glyph glyph-name="atilde" unicode="&#xe3;" 
d="M1147 1063q18 0 28 -6.5t15 -17t6 -24.5t1 -30l-11 -904q31 -16 45 -29t14 -23q0 -12 -13.5 -18t-32 -8.5t-37 -2.5h-28.5h-232q-14 0 -29 9.5t-21 19.5q-3 6 -6 14t-7 16q-49 -39 -116 -60.5t-149 -21.5q-118 0 -214.5 46.5t-168.5 131.5q-67 85 -103 185t-36 207
q0 113 38 210.5t107 171.5q74 75 169 114.5t212 39.5q153 0 264 -81l15 30q5 11 21 21t28 10h241zM622 326q44 0 64 48t20 154q0 103 -22 155t-65 52q-45 0 -66.5 -50.5t-21.5 -156.5q0 -202 91 -202zM1099 1424q23 0 38.5 -15.5t17.5 -36.5q1 -12 1 -24v-20
q0 -61 -16.5 -109t-48.5 -83q-67 -72 -170 -72q-33 0 -82.5 13.5t-111.5 38.5q-28 11 -48.5 17.5t-28.5 6.5q-5 0 -2.5 -1.5t1.5 -16.5q-2 -23 -17 -39.5t-38 -16.5h-139q-23 0 -38.5 15t-17.5 36q-1 11 -1 22.5v19.5q0 116 69 191q69 74 165 74q40 0 73 -10q18 -5 46.5 -15
t62.5 -26q29 -12 52.5 -19t34.5 -7q-1 0 -1 5t2 19q2 22 17.5 37.5t38.5 15.5h141z" />
    <glyph glyph-name="adieresis" unicode="&#xe4;" 
d="M1147 1063q18 0 28 -6.5t15 -17t6 -24.5t1 -30l-11 -904q31 -16 45 -29t14 -23q0 -12 -13.5 -18t-32 -8.5t-37 -2.5h-28.5h-232q-14 0 -29 9.5t-21 19.5q-3 6 -6 14t-7 16q-49 -39 -116 -60.5t-149 -21.5q-118 0 -214.5 46.5t-168.5 131.5q-67 85 -103 185t-36 207
q0 113 38 210.5t107 171.5q74 75 169 114.5t212 39.5q153 0 264 -81l15 30q5 11 21 21t28 10h241zM622 326q44 0 64 48t20 154q0 103 -22 155t-65 52q-45 0 -66.5 -50.5t-21.5 -156.5q0 -202 91 -202zM403 1351q0 22 15.5 38.5t40.5 16.5h232q24 0 40 -16.5t16 -38.5v-225
q0 -23 -16 -39t-40 -16h-232q-25 0 -40.5 16t-15.5 39v225zM783 1351q0 22 15 38.5t41 16.5h235q24 0 40 -16.5t16 -38.5v-225q0 -23 -16 -39t-40 -16h-235q-26 0 -41 16t-15 39v225z" />
    <glyph glyph-name="aring" unicode="&#xe5;" horiz-adv-x="1285" 
d="M927 1312q0 -110 -80 -193q-81 -78 -191 -78q-111 0 -192 78q-79 82 -79 193q0 112 79 191q79 80 192 80q112 0 191 -79q80 -80 80 -192zM692 1312q0 15 -10.5 26t-25.5 11t-25.5 -11t-10.5 -26q0 -14 10.5 -25t25.5 -11t25.5 11t10.5 25zM1139 1063q18 0 28 -6.5t15 -17
t6 -24.5t1 -30l-11 -904q31 -16 45 -29t14 -23q0 -12 -13.5 -18t-32 -8.5t-37 -2.5h-28.5h-232q-14 0 -29 9.5t-21 19.5q-3 6 -6 14t-7 16q-49 -39 -116 -60.5t-149 -21.5q-118 0 -214.5 46.5t-168.5 131.5q-67 85 -103 185t-36 207q0 113 38 210.5t107 171.5
q74 75 169 114.5t212 39.5q153 0 264 -81l15 30q5 11 21 21t28 10h241zM614 326q44 0 64 48t20 154q0 103 -22 155t-65 52q-45 0 -66.5 -50.5t-21.5 -156.5q0 -202 91 -202z" />
    <glyph glyph-name="ae" unicode="&#xe6;" horiz-adv-x="1943" 
d="M547 682l-1 -1q0 -1 0.5 -1t0.5 1q32 7 55 11.5t32 6.5q22 5 45 11.5t49 14.5q-2 14 -6 17q-14 14 -62 14q-53 0 -77.5 -17.5t-35.5 -55.5v-1zM1406 367q6 11 21 19h-219q7 -26 19 -39q17 -20 38.5 -31t46.5 -11q28 0 49.5 14t44.5 48zM1888 441q0 -23 -16.5 -39
t-39.5 -16h-267q63 -6 125.5 -12t123.5 -11q31 -4 44.5 -28.5t-0.5 -52.5q-77 -147 -208 -228q-128 -76 -336 -76q-77 0 -147 13t-127 36q-73 29 -141 86q-48 -31 -95 -56t-90 -41q-51 -20 -111.5 -29t-126.5 -9q-98 0 -176 24t-132 66q-56 47 -84 108.5t-28 134.5
q0 37 9 73t25.5 68t39.5 59t50 47q32 24 67.5 42t73.5 32q11 4 30 9.5t44 10.5q-66 8 -129 15t-129 15q-29 4 -41 24.5t-6 45.5q14 54 31 93.5t37 68.5q29 38 71 69.5t97 54.5t130 35t166 12q75 0 136.5 -7t109.5 -21h-1q32 -8 65.5 -22.5t67.5 -34.5q33 19 69.5 35.5
t63.5 25.5q36 10 81.5 16.5t94.5 6.5q149 0 258 -44.5t180 -119.5q34 -38 60 -76t40 -76q41 -100 41 -267v-60zM1401 672q-24 83 -92 83q-33 0 -58.5 -19t-41.5 -64h192zM732 446l14 -9q-2 -2 -3 -2.5t-4 -0.5q-2 -1 -4 -1q-1 -1 -3 -1v9v5zM650 408q-2 -1 -4 -1l-1 20
q1 0 1.5 0.5t1.5 0.5q8 0 9 -9t-7 -11zM719 371q12 26 13 61q-9 -3 -19.5 -7t-19.5 -6v1q-14 -5 -26 -8.5t-21 -4.5q-73 -14 -98 -40q-13 -12 -13 -25q0 -18 14.5 -31t37.5 -13q20 0 38 4.5t40 14.5q15 8 29 21.5t25 32.5z" />
    <glyph glyph-name="ccedilla" unicode="&#xe7;" 
d="M1215 444q26 -4 39.5 -24.5t7.5 -46.5q-32 -118 -107 -208t-186 -138q-56 -25 -127 -37.5t-154 -12.5q-161 0 -267 31q-112 32 -194 102q-81 72 -127 167q-23 49 -35.5 110.5t-12.5 138.5q0 160 58 270v-1q22 45 50.5 81t60.5 64v-1q35 33 73 57t74 39q118 49 295 49
q250 0 386 -94l-1 1q68 -42 111 -84.5t68.5 -86t37.5 -88.5t17 -93l-1 2q9 -25 -5 -47t-40 -25q-9 -2 -19.5 -2h-20.5q-37 0 -76 5.5t-78 12.5t-77 12.5t-71 5.5q-21 0 -39 -3q-21 -3 -39.5 10t-23.5 31q-21 81 -118 81q-66 0 -106.5 -50.5t-40.5 -154.5q0 -97 40 -140
q19 -23 45 -33t56 -10q105 0 140 110q7 17 24.5 29t34.5 10zM511 33q3 10 17 21t28 16q42 10 82.5 15t82.5 5q176 0 248 -66q38 -35 57.5 -75.5t19.5 -88.5q0 -61 -33 -116q-35 -61 -122 -97q-80 -33 -203 -33q-56 0 -117.5 6t-131.5 17q-18 4 -32 20t-14 36v111q0 26 20 43
t46 12q93 -18 187 -18q45 0 60.5 5.5t15.5 13.5q0 7 -36 7q-28 0 -63.5 -3.5t-79.5 -11.5q-32 -4 -50.5 17t-9.5 52v-1z" />
    <glyph glyph-name="egrave" unicode="&#xe8;" 
d="M785 368q3 5 10.5 9.5t15.5 8.5h-264q9 -26 21 -41q17 -17 43 -29.5t53 -12.5q18 0 36.5 5.5t36.5 15.5v-1q10 7 22.5 18.5t25.5 26.5zM1265 441q0 -25 -16.5 -40t-39.5 -15h-326q32 -3 64.5 -6t65.5 -6q46 -5 91 -9t89 -8q15 -2 27 -10t18 -19.5t6.5 -25.5t-6.5 -27
q-45 -77 -100.5 -135t-121.5 -93q-128 -69 -360 -69q-103 0 -183 14.5t-140 42.5q-59 31 -110 78t-91 114h1q-42 66 -61.5 141t-19.5 161q0 245 160 400q159 155 433 155q218 0 350 -69t202 -200q68 -130 68 -334v-40zM772 671q-15 44 -44 65t-68 21q-27 0 -51.5 -13.5
t-41.5 -33.5q-12 -17 -20 -39h225zM399 1351q-8 8 -13.5 19t-5.5 22q0 21 15.5 38t41.5 17h310q13 0 28.5 -11t20.5 -20v1q37 -66 74 -133t74 -133q8 -15 7.5 -29.5t-7.5 -26.5t-20 -19.5t-30 -7.5h-194z" />
    <glyph glyph-name="eacute" unicode="&#xe9;" 
d="M785 368q3 5 10.5 9.5t15.5 8.5h-264q9 -26 21 -41q17 -17 43 -29.5t53 -12.5q18 0 36.5 5.5t36.5 15.5v-1q10 7 22.5 18.5t25.5 26.5zM1265 441q0 -25 -16.5 -40t-39.5 -15h-326q32 -3 64.5 -6t65.5 -6q46 -5 91 -9t89 -8q15 -2 27 -10t18 -19.5t6.5 -25.5t-6.5 -27
q-45 -77 -100.5 -135t-121.5 -93q-128 -69 -360 -69q-103 0 -183 14.5t-140 42.5q-59 31 -110 78t-91 114h1q-42 66 -61.5 141t-19.5 161q0 245 160 400q159 155 433 155q218 0 350 -69t202 -200q68 -130 68 -334v-40zM772 671q-15 44 -44 65t-68 21q-27 0 -51.5 -13.5
t-41.5 -33.5q-12 -17 -20 -39h225zM557 1414v-1q5 12 21.5 23t29.5 11h313q26 0 41.5 -17t15.5 -38q0 -12 -5 -23t-16 -19l1 1q-37 -35 -75.5 -70.5t-76.5 -70.5t-78 -72.5t-76 -70.5h-195q-18 0 -30.5 7.5t-19.5 19.5t-7 26.5t8 29.5z" />
    <glyph glyph-name="ecircumflex" unicode="&#xea;" 
d="M785 368q3 5 10.5 9.5t15.5 8.5h-264q9 -26 21 -41q17 -17 43 -29.5t53 -12.5q18 0 36.5 5.5t36.5 15.5v-1q10 7 22.5 18.5t25.5 26.5zM1265 441q0 -25 -16.5 -40t-39.5 -15h-326q32 -3 64.5 -6t65.5 -6q46 -5 91 -9t89 -8q15 -2 27 -10t18 -19.5t6.5 -25.5t-6.5 -27
q-45 -77 -100.5 -135t-121.5 -93q-128 -69 -360 -69q-103 0 -183 14.5t-140 42.5q-59 31 -110 78t-91 114h1q-42 66 -61.5 141t-19.5 161q0 245 160 400q159 155 433 155q218 0 350 -69t202 -200q68 -130 68 -334v-40zM772 671q-15 44 -44 65t-68 21q-27 0 -51.5 -13.5
t-41.5 -33.5q-12 -17 -20 -39h225zM608 1414q4 4 7 4q9 7 20.5 11.5t17.5 4.5h258q7 0 23 -7t22 -15q24 -32 48.5 -64t50.5 -64q25 -32 50.5 -64t49.5 -64q13 -20 13 -36q0 -22 -15.5 -37.5t-41.5 -15.5h-223q-9 0 -24 7.5t-20 13.5q-8 9 -15 17.5t-13 16.5q-10 13 -17 21
t-21 26q-5 -7 -10 -13l-10 -12q-11 -14 -22 -27.5t-22 -27.5q-5 -7 -20 -14.5t-24 -7.5h-223q-25 0 -41 16t-16 38q0 18 13 36z" />
    <glyph glyph-name="edieresis" unicode="&#xeb;" 
d="M785 368q3 5 10.5 9.5t15.5 8.5h-264q9 -26 21 -41q17 -17 43 -29.5t53 -12.5q18 0 36.5 5.5t36.5 15.5v-1q10 7 22.5 18.5t25.5 26.5zM1265 441q0 -25 -16.5 -40t-39.5 -15h-326q32 -3 64.5 -6t65.5 -6q46 -5 91 -9t89 -8q15 -2 27 -10t18 -19.5t6.5 -25.5t-6.5 -27
q-45 -77 -100.5 -135t-121.5 -93q-128 -69 -360 -69q-103 0 -183 14.5t-140 42.5q-59 31 -110 78t-91 114h1q-42 66 -61.5 141t-19.5 161q0 245 160 400q159 155 433 155q218 0 350 -69t202 -200q68 -130 68 -334v-40zM772 671q-15 44 -44 65t-68 21q-27 0 -51.5 -13.5
t-41.5 -33.5q-12 -17 -20 -39h225zM403 1351q0 22 15.5 38.5t40.5 16.5h232q24 0 40 -16.5t16 -38.5v-225q0 -23 -16 -39t-40 -16h-232q-25 0 -40.5 16t-15.5 39v225zM783 1351q0 22 15 38.5t41 16.5h235q24 0 40 -16.5t16 -38.5v-225q0 -23 -16 -39t-40 -16h-235
q-26 0 -41 16t-15 39v225z" />
    <glyph glyph-name="igrave" unicode="&#xec;" horiz-adv-x="685" 
d="M99 1006q0 23 16 39.5t39 16.5h366q24 0 39.5 -16.5t15.5 -39.5v-950q0 -23 -15.5 -39.5t-39.5 -16.5h-366q-23 0 -39 16.5t-16 39.5v950zM71 1351q-8 8 -13.5 19t-5.5 22q0 21 15.5 38t41.5 17h310q13 0 28.5 -11t20.5 -20v1q37 -66 74 -133t74 -133q8 -15 7.5 -29.5
t-7.5 -26.5t-20 -19.5t-30 -7.5h-194z" />
    <glyph glyph-name="iacute" unicode="&#xed;" horiz-adv-x="691" 
d="M80 1006q0 23 16 39.5t39 16.5h366q24 0 39.5 -16.5t15.5 -39.5v-950q0 -23 -15.5 -39.5t-39.5 -16.5h-366q-23 0 -39 16.5t-16 39.5v950zM210 1414v-1q5 12 21.5 23t29.5 11h313q26 0 41.5 -17t15.5 -38q0 -12 -5 -23t-16 -19l1 1q-37 -35 -75.5 -70.5t-76.5 -70.5
t-78 -72.5t-76 -70.5h-195q-18 0 -30.5 7.5t-19.5 19.5t-7 26.5t8 29.5z" />
    <glyph glyph-name="icircumflex" unicode="&#xee;" horiz-adv-x="869" 
d="M76 1006q0 23 16 39.5t39 16.5h366q24 0 39.5 -16.5t15.5 -39.5v-950q0 -23 -15.5 -39.5t-39.5 -16.5h-366q-23 0 -39 16.5t-16 39.5v950zM257 1414q4 4 7 4q9 7 20.5 11.5t17.5 4.5h258q7 0 23 -7t22 -15q24 -32 48.5 -64t50.5 -64q25 -32 50.5 -64t49.5 -64
q13 -20 13 -36q0 -22 -15.5 -37.5t-41.5 -15.5h-223q-9 0 -24 7.5t-20 13.5q-8 9 -15 17.5t-13 16.5q-10 13 -17 21t-21 26q-5 -7 -10 -13l-10 -12q-11 -14 -22 -27.5t-22 -27.5q-5 -7 -20 -14.5t-24 -7.5h-223q-25 0 -41 16t-16 38q0 18 13 36z" />
    <glyph glyph-name="idieresis" unicode="&#xef;" horiz-adv-x="848" 
d="M60 1006q0 23 16 39.5t39 16.5h366q24 0 39.5 -16.5t15.5 -39.5v-950q0 -23 -15.5 -39.5t-39.5 -16.5h-366q-23 0 -39 16.5t-16 39.5v950zM36 1351q0 22 15.5 38.5t40.5 16.5h232q24 0 40 -16.5t16 -38.5v-225q0 -23 -16 -39t-40 -16h-232q-25 0 -40.5 16t-15.5 39v225z
M416 1351q0 22 15 38.5t41 16.5h235q24 0 40 -16.5t16 -38.5v-225q0 -23 -16 -39t-40 -16h-235q-26 0 -41 16t-15 39v225z" />
    <glyph glyph-name="eth" unicode="&#xf0;" horiz-adv-x="1299" 
d="M606 1066q-2 -1 -4 -1.5t-4 -1.5l-3 6zM602 1058q-1 1 -1.5 2t-2.5 3q-6 -2 -11 -4q4 0 7.5 -0.5t7.5 -0.5zM547 1062q20 0 40 -3q-11 -4 -20.5 -8t-20.5 -8l-4 19h5zM271 1112q-7 23 3 42.5t30 27.5l143 50q-5 3 -9.5 6t-9.5 7q-9 5 -16 11q-22 18 -46 33.5t-50 29.5h1
q-16 8 -23.5 21.5t-7.5 27.5q0 21 14.5 38.5t40.5 17.5h382q26 -13 51.5 -27.5t45.5 -29.5q5 2 9 3t9 3q13 5 25.5 10t24.5 9q5 2 10 3.5t10 3.5v-1q17 6 32.5 10.5t31.5 11.5q24 10 45.5 -0.5t26.5 -31.5l-1 1q4 -12 7.5 -23.5t8.5 -22.5q5 -12 9 -24t9 -23q7 -21 -2 -42.5
t-30 -27.5v1q-7 -3 -12.5 -4.5t-10.5 -3.5h1l-7.5 -3t-5 -1.5t-6.5 -2.5t-12 -5q130 -147 193 -303t63 -327q0 -280 -160 -439q-160 -160 -436 -160q-88 0 -171 18.5t-152 53.5q-68 35 -124.5 89.5t-88.5 120.5t-50 135t-18 136q0 71 17 140t49 129t80.5 110.5t107.5 83.5
q6 3 6 2.5t5 2.5q-6 8 -9 17zM524 528q0 -53 10 -91t28 -59q37 -42 84 -42q46 0 87 43q44 42 44 166q0 51 -10.5 86t-31.5 52q-40 39 -86 39q-25 0 -45.5 -9.5t-39.5 -31.5v1q-40 -45 -40 -154z" />
    <glyph glyph-name="ntilde" unicode="&#xf1;" 
d="M61 1006q0 23 15.5 39.5t40.5 16.5h340q23 0 39.5 -16.5t16.5 -39.5v-18q18 14 36 26.5t35 20.5q89 49 217 49q88 0 158 -25.5t119 -78t74.5 -132t25.5 -187.5v-605q0 -23 -15 -39.5t-41 -16.5h-366q-24 0 -39.5 16.5t-15.5 39.5v523q0 60 -18.5 84t-52.5 24
q-38 0 -64 -29q-29 -35 -29 -146v-456q0 -23 -15.5 -39.5t-38.5 -16.5h-366q-25 0 -40.5 16.5t-15.5 39.5v950zM1099 1424q23 0 38.5 -15.5t17.5 -36.5q1 -12 1 -24v-20q0 -61 -16.5 -109t-48.5 -83q-67 -72 -170 -72q-33 0 -82.5 13.5t-111.5 38.5q-28 11 -48.5 17.5
t-28.5 6.5q-5 0 -2.5 -1.5t1.5 -16.5q-2 -23 -17 -39.5t-38 -16.5h-139q-23 0 -38.5 15t-17.5 36q-1 11 -1 22.5v19.5q0 116 69 191q69 74 165 74q40 0 73 -10q18 -5 46.5 -15t62.5 -26q29 -12 52.5 -19t34.5 -7q-1 0 -1 5t2 19q2 22 17.5 37.5t38.5 15.5h141z" />
    <glyph glyph-name="ograve" unicode="&#xf2;" 
d="M51 528q0 122 42 220.5t123 177.5q82 79 189.5 118.5t245.5 39.5q309 0 473 -184q66 -75 99 -166t33 -200q0 -242 -164 -400q-162 -156 -440 -156q-249 0 -406 130q-195 160 -195 420zM528 529q0 -106 39 -150q35 -43 87 -43q54 0 85 40q40 45 40 157q0 103 -40 148
q-16 20 -37 30t-45 10q-57 0 -89 -41q-40 -46 -40 -151zM399 1351q-8 8 -13.5 19t-5.5 22q0 21 15.5 38t41.5 17h310q13 0 28.5 -11t20.5 -20v1q37 -66 74 -133t74 -133q8 -15 7.5 -29.5t-7.5 -26.5t-20 -19.5t-30 -7.5h-194z" />
    <glyph glyph-name="oacute" unicode="&#xf3;" 
d="M51 528q0 122 42 220.5t123 177.5q82 79 189.5 118.5t245.5 39.5q309 0 473 -184q66 -75 99 -166t33 -200q0 -242 -164 -400q-162 -156 -440 -156q-249 0 -406 130q-195 160 -195 420zM528 529q0 -106 39 -150q35 -43 87 -43q54 0 85 40q40 45 40 157q0 103 -40 148
q-16 20 -37 30t-45 10q-57 0 -89 -41q-40 -46 -40 -151zM557 1414v-1q5 12 21.5 23t29.5 11h313q26 0 41.5 -17t15.5 -38q0 -12 -5 -23t-16 -19l1 1q-37 -35 -75.5 -70.5t-76.5 -70.5t-78 -72.5t-76 -70.5h-195q-18 0 -30.5 7.5t-19.5 19.5t-7 26.5t8 29.5z" />
    <glyph glyph-name="ocircumflex" unicode="&#xf4;" 
d="M51 528q0 122 42 220.5t123 177.5q82 79 189.5 118.5t245.5 39.5q309 0 473 -184q66 -75 99 -166t33 -200q0 -242 -164 -400q-162 -156 -440 -156q-249 0 -406 130q-195 160 -195 420zM528 529q0 -106 39 -150q35 -43 87 -43q54 0 85 40q40 45 40 157q0 103 -40 148
q-16 20 -37 30t-45 10q-57 0 -89 -41q-40 -46 -40 -151zM608 1414q4 4 7 4q9 7 20.5 11.5t17.5 4.5h258q7 0 23 -7t22 -15q24 -32 48.5 -64t50.5 -64q25 -32 50.5 -64t49.5 -64q13 -20 13 -36q0 -22 -15.5 -37.5t-41.5 -15.5h-223q-9 0 -24 7.5t-20 13.5q-8 9 -15 17.5
t-13 16.5q-10 13 -17 21t-21 26q-5 -7 -10 -13l-10 -12q-11 -14 -22 -27.5t-22 -27.5q-5 -7 -20 -14.5t-24 -7.5h-223q-25 0 -41 16t-16 38q0 18 13 36z" />
    <glyph glyph-name="otilde" unicode="&#xf5;" 
d="M51 528q0 122 42 220.5t123 177.5q82 79 189.5 118.5t245.5 39.5q309 0 473 -184q66 -75 99 -166t33 -200q0 -242 -164 -400q-162 -156 -440 -156q-249 0 -406 130q-195 160 -195 420zM528 529q0 -106 39 -150q35 -43 87 -43q54 0 85 40q40 45 40 157q0 103 -40 148
q-16 20 -37 30t-45 10q-57 0 -89 -41q-40 -46 -40 -151zM1099 1424q23 0 38.5 -15.5t17.5 -36.5q1 -12 1 -24v-20q0 -61 -16.5 -109t-48.5 -83q-67 -72 -170 -72q-33 0 -82.5 13.5t-111.5 38.5q-28 11 -48.5 17.5t-28.5 6.5q-5 0 -2.5 -1.5t1.5 -16.5q-2 -23 -17 -39.5
t-38 -16.5h-139q-23 0 -38.5 15t-17.5 36q-1 11 -1 22.5v19.5q0 116 69 191q69 74 165 74q40 0 73 -10q18 -5 46.5 -15t62.5 -26q29 -12 52.5 -19t34.5 -7q-1 0 -1 5t2 19q2 22 17.5 37.5t38.5 15.5h141z" />
    <glyph glyph-name="odieresis" unicode="&#xf6;" 
d="M51 528q0 122 42 220.5t123 177.5q82 79 189.5 118.5t245.5 39.5q309 0 473 -184q66 -75 99 -166t33 -200q0 -242 -164 -400q-162 -156 -440 -156q-249 0 -406 130q-195 160 -195 420zM528 529q0 -106 39 -150q35 -43 87 -43q54 0 85 40q40 45 40 157q0 103 -40 148
q-16 20 -37 30t-45 10q-57 0 -89 -41q-40 -46 -40 -151zM403 1351q0 22 15.5 38.5t40.5 16.5h232q24 0 40 -16.5t16 -38.5v-225q0 -23 -16 -39t-40 -16h-232q-25 0 -40.5 16t-15.5 39v225zM783 1351q0 22 15 38.5t41 16.5h235q24 0 40 -16.5t16 -38.5v-225q0 -23 -16 -39
t-40 -16h-235q-26 0 -41 16t-15 39v225z" />
    <glyph glyph-name="divide" unicode="&#xf7;" horiz-adv-x="1168" 
d="M347 1270q0 23 16 39t39 16h360q22 0 38.5 -16t16.5 -39v-332q0 -23 -16.5 -38.5t-38.5 -15.5h-360q-23 0 -39 15.5t-16 38.5v332zM40 858q0 23 16 39t39 16h977q24 0 40 -16t16 -39v-293q0 -22 -16 -38.5t-40 -16.5h-977q-23 0 -39 16.5t-16 38.5v293zM347 483
q0 25 16 40.5t39 15.5h360q22 0 38.5 -15.5t16.5 -40.5v-334q0 -22 -16.5 -38.5t-38.5 -16.5h-360q-23 0 -39 16.5t-16 38.5v334z" />
    <glyph glyph-name="oslash" unicode="&#xf8;" horiz-adv-x="1306" 
d="M1032 1129q16 17 41 17q24 0 39 -15l92 -82q19 -17 19 -42q0 -11 -4.5 -20.5t-10.5 -17.5q-12 -13 -23 -25t-19 -21q-8 -10 -13.5 -16.5t-17.5 -19.5q42 -51 74 -127q21 -53 33.5 -110.5t12.5 -117.5q0 -239 -162 -398q-81 -78 -187 -117t-243 -39q-53 0 -101 4.5
t-91 14.5q-22 6 -48.5 15t-57.5 21q-3 -3 -6 -7t-7 -9q-20 -21 -38.5 -42t-38.5 -44q-20 -18 -42 -18q-11 0 -21 4t-17 12v-1q-24 21 -48 45q-12 11 -24 20.5t-24 20.5q-8 8 -12.5 19t-4.5 23q0 22 15 37q14 14 24 25t21 22q9 11 15 17.5l18 19.5q-55 68 -84 142
q-19 47 -29.5 98.5t-10.5 108.5q0 123 41.5 222t122.5 178q164 158 430 158q51 0 100.5 -5.5t91.5 -15.5q23 -5 50.5 -14.5t54.5 -21.5zM716 736q-6 1 -7 4q-3 0 -5 1q-6 2 -8 7t3 10l21 22q5 5 10 3.5t6 -8.5l8 -36q1 -6 -3.5 -9.5t-9.5 -1.5l-6 3t-6 4q-3 0 -5 2zM504 538
v-16q0 -16 -2 -21t-16 8l17 7l-16 3zM548 700q-17 -26 -29.5 -68t-14.5 -94l184 208q-8 2 -15 2h-17q-32 0 -59.5 -13.5t-48.5 -34.5zM582 328q0 -1 1 -1zM598 319q1 -1 3 -1q7 0 9.5 -6t-2.5 -11l-21 -22q-5 -5 -10 -3.5t-6 8.5l-7 36q-2 8 4.5 11t11.5 -2q1 -1 1.5 -1
t1.5 -1q4 -4 10 -6q3 -1 5 -2zM619 314q17 -4 38 -4q61 0 102 49q19 24 30 65t13 92z" />
    <glyph glyph-name="ugrave" unicode="&#xf9;" 
d="M1175 56q0 -23 -15 -39.5t-40 -16.5h-340q-24 0 -40 16.5t-16 39.5v18q-20 -17 -37 -28.5t-34 -19.5q-45 -25 -98.5 -36.5t-118.5 -11.5q-88 0 -158 25.5t-118.5 78t-74.5 132t-26 187.5v605q0 23 16 39.5t39 16.5h368q23 0 38.5 -16.5t15.5 -39.5v-523q0 -60 18.5 -84
t52.5 -24q19 0 36 8t29 21l-1 -1q29 35 29 146v457q0 23 15.5 39.5t39.5 16.5h365q25 0 40 -16.5t15 -39.5v-950zM399 1351q-8 8 -13.5 19t-5.5 22q0 21 15.5 38t41.5 17h310q13 0 28.5 -11t20.5 -20v1q37 -66 74 -133t74 -133q8 -15 7.5 -29.5t-7.5 -26.5t-20 -19.5
t-30 -7.5h-194z" />
    <glyph glyph-name="uacute" unicode="&#xfa;" 
d="M1175 56q0 -23 -15 -39.5t-40 -16.5h-340q-24 0 -40 16.5t-16 39.5v18q-20 -17 -37 -28.5t-34 -19.5q-45 -25 -98.5 -36.5t-118.5 -11.5q-88 0 -158 25.5t-118.5 78t-74.5 132t-26 187.5v605q0 23 16 39.5t39 16.5h368q23 0 38.5 -16.5t15.5 -39.5v-523q0 -60 18.5 -84
t52.5 -24q19 0 36 8t29 21l-1 -1q29 35 29 146v457q0 23 15.5 39.5t39.5 16.5h365q25 0 40 -16.5t15 -39.5v-950zM557 1414v-1q5 12 21.5 23t29.5 11h313q26 0 41.5 -17t15.5 -38q0 -12 -5 -23t-16 -19l1 1q-37 -35 -75.5 -70.5t-76.5 -70.5t-78 -72.5t-76 -70.5h-195
q-18 0 -30.5 7.5t-19.5 19.5t-7 26.5t8 29.5z" />
    <glyph glyph-name="ucircumflex" unicode="&#xfb;" 
d="M1175 56q0 -23 -15 -39.5t-40 -16.5h-340q-24 0 -40 16.5t-16 39.5v18q-20 -17 -37 -28.5t-34 -19.5q-45 -25 -98.5 -36.5t-118.5 -11.5q-88 0 -158 25.5t-118.5 78t-74.5 132t-26 187.5v605q0 23 16 39.5t39 16.5h368q23 0 38.5 -16.5t15.5 -39.5v-523q0 -60 18.5 -84
t52.5 -24q19 0 36 8t29 21l-1 -1q29 35 29 146v457q0 23 15.5 39.5t39.5 16.5h365q25 0 40 -16.5t15 -39.5v-950zM608 1414q4 4 7 4q9 7 20.5 11.5t17.5 4.5h258q7 0 23 -7t22 -15q24 -32 48.5 -64t50.5 -64q25 -32 50.5 -64t49.5 -64q13 -20 13 -36q0 -22 -15.5 -37.5
t-41.5 -15.5h-223q-9 0 -24 7.5t-20 13.5q-8 9 -15 17.5t-13 16.5q-10 13 -17 21t-21 26q-5 -7 -10 -13l-10 -12q-11 -14 -22 -27.5t-22 -27.5q-5 -7 -20 -14.5t-24 -7.5h-223q-25 0 -41 16t-16 38q0 18 13 36z" />
    <glyph glyph-name="udieresis" unicode="&#xfc;" 
d="M1175 56q0 -23 -15 -39.5t-40 -16.5h-340q-24 0 -40 16.5t-16 39.5v18q-20 -17 -37 -28.5t-34 -19.5q-45 -25 -98.5 -36.5t-118.5 -11.5q-88 0 -158 25.5t-118.5 78t-74.5 132t-26 187.5v605q0 23 16 39.5t39 16.5h368q23 0 38.5 -16.5t15.5 -39.5v-523q0 -60 18.5 -84
t52.5 -24q19 0 36 8t29 21l-1 -1q29 35 29 146v457q0 23 15.5 39.5t39.5 16.5h365q25 0 40 -16.5t15 -39.5v-950zM403 1351q0 22 15.5 38.5t40.5 16.5h232q24 0 40 -16.5t16 -38.5v-225q0 -23 -16 -39t-40 -16h-232q-25 0 -40.5 16t-15.5 39v225zM783 1351q0 22 15 38.5
t41 16.5h235q24 0 40 -16.5t16 -38.5v-225q0 -23 -16 -39t-40 -16h-235q-26 0 -41 16t-15 39v225z" />
    <glyph glyph-name="yacute" unicode="&#xfd;" horiz-adv-x="1251" 
d="M792 -327q-5 -13 -21 -24t-30 -11h-352q-31 0 -46.5 23t-4.5 54q6 14 12 29.5t13 29.5q10 23 19.5 45.5t19.5 44.5q19 44 37.5 86.5t35.5 86.5q-103 238 -207 473.5t-207 473.5q-6 15 -4.5 29t8.5 25t19.5 17.5t27.5 6.5h386q14 0 31.5 -14.5t23.5 -29.5
q17 -57 32.5 -108.5t31 -102t31 -102t33.5 -108.5q36 108 71.5 213.5t72.5 214.5h-1q4 14 20.5 25.5t33.5 11.5h356q32 0 46.5 -23.5t4.5 -52.5zM500 1414v-1q5 12 21.5 23t29.5 11h313q26 0 41.5 -17t15.5 -38q0 -12 -5 -23t-16 -19l1 1q-37 -35 -75.5 -70.5t-76.5 -70.5
t-78 -72.5t-76 -70.5h-195q-18 0 -30.5 7.5t-19.5 19.5t-7 26.5t8 29.5z" />
    <glyph glyph-name="thorn" unicode="&#xfe;" horiz-adv-x="1252" 
d="M117 -362q-24 0 -40 16t-16 40v1674q0 24 16 40t40 16h368q23 0 39.5 -16t16.5 -40v-337q45 26 96.5 39.5t117.5 13.5q110 0 197 -42t149 -123q57 -78 87.5 -178.5t30.5 -220.5q0 -129 -32 -228.5t-98 -171.5q-66 -70 -147 -106t-180 -36q-64 0 -118 13t-103 43v-340
q0 -24 -16.5 -40t-39.5 -16h-368zM538 528q0 -85 31.5 -125.5t80.5 -40.5q37 0 63 32q30 34 30 143q0 97 -32 133q-27 35 -66 35q-42 0 -75 -37q-17 -19 -24.5 -54t-7.5 -86z" />
    <glyph glyph-name="ydieresis" unicode="&#xff;" horiz-adv-x="1251" 
d="M792 -327q-5 -13 -21 -24t-30 -11h-352q-31 0 -46.5 23t-4.5 54q6 14 12 29.5t13 29.5q10 23 19.5 45.5t19.5 44.5q19 44 37.5 86.5t35.5 86.5q-103 238 -207 473.5t-207 473.5q-6 15 -4.5 29t8.5 25t19.5 17.5t27.5 6.5h386q14 0 31.5 -14.5t23.5 -29.5
q17 -57 32.5 -108.5t31 -102t31 -102t33.5 -108.5q36 108 71.5 213.5t72.5 214.5h-1q4 14 20.5 25.5t33.5 11.5h356q32 0 46.5 -23.5t4.5 -52.5zM346 1351q0 22 15.5 38.5t40.5 16.5h232q24 0 40 -16.5t16 -38.5v-225q0 -23 -16 -39t-40 -16h-232q-25 0 -40.5 16t-15.5 39
v225zM726 1351q0 22 15 38.5t41 16.5h235q24 0 40 -16.5t16 -38.5v-225q0 -23 -16 -39t-40 -16h-235q-26 0 -41 16t-15 39v225z" />
    <glyph glyph-name="OE" unicode="&#x152;" horiz-adv-x="1992" 
d="M924 1410q0 23 17 39.5t41 16.5h868q24 0 40.5 -16.5t16.5 -39.5v-289q0 -25 -16.5 -41.5t-40.5 -16.5h-443v-101h391q25 0 41.5 -16.5t16.5 -39.5v-276q0 -25 -16.5 -41t-41.5 -16h-391v-154h471q24 0 40 -15t16 -41v-307q0 -23 -16 -39.5t-40 -16.5h-896
q-24 0 -41 16.5t-17 39.5v6q-24 -20 -42 -29q-50 -28 -112 -42.5t-133 -14.5q-257 0 -406 176q-176 208 -176 576q0 185 45.5 330.5t129.5 248.5q73 85 173.5 133.5t214.5 48.5q96 0 169.5 -22.5t136.5 -67.5v11zM730 1065q-48 0 -90 -33q-19 -14 -34 -37.5t-23 -48.5h1
q-9 -34 -14 -93.5t-5 -144.5q0 -68 6 -119.5t18 -83.5q11 -26 26 -47t37 -35l-1 1q22 -13 42 -20t37 -7q21 0 41.5 7t40.5 20h-1q41 30 64 87q12 29 16.5 88t4.5 148q0 69 -5.5 120t-17.5 84q-17 56 -58 86q-19 15 -40.5 21.5t-44.5 6.5z" />
    <glyph glyph-name="oe" unicode="&#x153;" horiz-adv-x="1952" 
d="M1415 369q8 13 28 21h-230q13 -45 38.5 -64.5t62.5 -19.5q30 0 53.5 15.5t47.5 47.5zM1518 390l298 -28q28 -4 41.5 -27.5t4.5 -49.5q-35 -72 -88 -129t-121 -96.5t-150 -60.5t-175 -21q-106 0 -200.5 24t-172.5 71q-38 -23 -75.5 -40.5t-69.5 -28.5q-41 -13 -85 -19.5
t-95 -6.5q-255 0 -415 159q-160 160 -160 405q0 136 51.5 244t149.5 186q72 54 164 83t206 29q52 0 103.5 -7.5t90.5 -19.5q33 -10 74.5 -30t78.5 -43q81 51 165.5 75.5t188.5 24.5q265 0 416 -155q154 -153 154 -421v-18.5t-1 -26.5v-7q0 -2 -0.5 -3t-0.5 -2v-5
q0 -24 -16 -40t-39 -16h-322zM1407 674q-14 43 -37 62.5t-56 19.5q-32 0 -58.5 -22t-42.5 -60h194zM530 542q0 -111 28 -155q24 -32 69 -32q46 0 73 32q30 41 30 167q0 101 -30 140q-26 31 -59 31q-52 0 -80 -31q-31 -40 -31 -152z" />
    <glyph glyph-name="Scaron" unicode="&#x160;" horiz-adv-x="1438" 
d="M890 1452q-7 -8 -22 -15t-23 -7h-258q-9 0 -23.5 7.5t-20.5 14.5q-24 32 -49 64t-51 64q-25 32 -50 64.5t-48 63.5q-14 17 -14 36q0 20 15.5 36.5t41.5 16.5h222q8 0 23.5 -7t20.5 -14q15 -18 25 -31t21 -27q6 -7 8.5 -9t10.5 -13q8 11 15.5 19.5t15.5 18.5q8 11 17 21
t17 20q7 8 21.5 15t22.5 7h224q25 0 40.5 -16.5t15.5 -37.5q0 -18 -13 -36zM726 1021q17 -4 31 -7t27 -6t26 -6.5t29 -7.5v2q-25 128 -148 128q-45 0 -67.5 -14.5t-22.5 -35.5q0 -7 11 -15v1q21 -20 114 -39zM502 585q20 -1 37.5 -15t21.5 -34q5 -38 15.5 -69t24.5 -50
q24 -28 60 -44.5t80 -16.5q67 0 100 27q13 14 21.5 28t8.5 28q0 28 -27 52v-1q-37 33 -190 66q-286 66 -416 176q-137 120 -137 305q0 60 17 116.5t53 111.5q35 53 86 94.5t120 70.5q130 59 355 59q141 0 249 -31t184 -91.5t121 -149t61 -203.5q-1 -23 -17.5 -42.5
t-39.5 -21.5h-296q42 -14 76 -26.5t62 -26.5q65 -35 115.5 -78t79.5 -93q63 -103 63 -230q0 -143 -81 -272q-41 -60 -97 -107t-129 -79q-69 -31 -156 -46t-192 -15q-369 0 -519 149q-75 75 -116 180t-50 219q-2 25 12 42t40 19z" />
    <glyph glyph-name="scaron" unicode="&#x161;" horiz-adv-x="1225" 
d="M777 1089q-7 -8 -22 -15t-23 -7h-258q-9 0 -23.5 7.5t-20.5 14.5q-24 32 -49 64t-51 64q-25 32 -50 64.5t-48 63.5q-14 17 -14 36q0 20 15.5 36.5t41.5 16.5h222q8 0 23.5 -7t20.5 -14q15 -18 25 -31t21 -27q6 -7 8.5 -9t10.5 -13q8 11 15.5 19.5t15.5 18.5q8 11 17 21
t17 20q7 8 21.5 15t22.5 7h224q25 0 40.5 -16.5t15.5 -37.5q0 -18 -13 -36zM687 725q-1 1 -1 3q4 0 7.5 -0.5t8.5 -0.5l-9 -15q-5 8 -6 13zM673 731q8 -2 13 -3q-4 11 -9 19t-9 12q-16 8 -36 14.5t-40 6.5q-32 0 -47 -6t-15 -14q0 -1 1 -1t2 -0.5t3 -0.5q14 -7 51.5 -13.5
t84.5 -13.5h1zM489 402q9 -4 17 -11t13 -15q-4 1 -10 3q-7 2 -13.5 2.5t-12.5 2.5zM577 365q-14 2 -29 5t-29 6q1 -1 1.5 -2t1.5 -2q17 -42 45 -62.5t73 -20.5q26 0 46 5t33 13q3 3 6.5 8t3.5 7q0 6 -9 11q-11 5 -47 12.5t-96 19.5zM376 407q-22 6 -40 11.5t-34 12.5
q-42 17 -80.5 46t-67.5 67q-29 42 -45 88t-16 98q0 55 17.5 103.5t49.5 89t76.5 71.5t99.5 52q51 19 121.5 28.5t153.5 9.5q89 0 156 -7.5t110 -22.5v1q93 -28 160 -94l11 -12q15 -14 30 -31t28 -42t22 -60.5t11 -87.5q1 -27 -8.5 -47.5t-39.5 -23.5l-149 17q9 -3 19 -7
q101 -45 157 -122q28 -42 42.5 -87t14.5 -95q0 -99 -60 -189v1q-29 -46 -75.5 -83t-104.5 -64q-59 -25 -138 -38t-176 -13q-139 0 -239.5 21t-163.5 63q-30 21 -57 47.5t-48.5 60t-36.5 76t-21 96.5v-1q-2 10 0.5 21.5t9.5 20.5t17 15.5t22 8.5z" />
    <glyph glyph-name="Ydieresis" unicode="&#x178;" horiz-adv-x="1593" 
d="M72 1386q-14 32 2 56t49 24h455q14 0 30 -12t22 -26l134 -396q4 11 7.5 22.5t6.5 22.5q30 88 58.5 175t57.5 176q2 7 8.5 13.5t14.5 12t16.5 9t15.5 3.5h425q34 0 49.5 -22t6.5 -51l-448 -1052q-28 -66 -53 -115t-46 -83q-24 -35 -60 -66.5t-84 -54.5q-45 -22 -106 -33.5
t-136 -11.5q-41 0 -106.5 5.5t-154.5 15.5q-21 3 -35.5 20t-14.5 36v280q0 12 5.5 22t14.5 17.5t20 12.5t22 5q53 -5 90.5 -7.5t58.5 -2.5q89 0 116 48zM517 1714q0 22 15.5 38.5t40.5 16.5h232q24 0 40 -16.5t16 -38.5v-225q0 -23 -16 -39t-40 -16h-232q-25 0 -40.5 16
t-15.5 39v225zM897 1714q0 22 15 38.5t41 16.5h235q24 0 40 -16.5t16 -38.5v-225q0 -23 -16 -39t-40 -16h-235q-26 0 -41 16t-15 39v225z" />
    <glyph glyph-name="Zcaron" unicode="&#x17d;" horiz-adv-x="1497" 
d="M886 1452q-7 -8 -22 -15t-23 -7h-258q-9 0 -23.5 7.5t-20.5 14.5q-24 32 -49 64t-51 64q-25 32 -50 64.5t-48 63.5q-14 17 -14 36q0 20 15.5 36.5t41.5 16.5h222q8 0 23.5 -7t20.5 -14q15 -18 25 -31t21 -27q6 -7 8.5 -9t10.5 -13q8 11 15.5 19.5t15.5 18.5q8 11 17 21
t17 20q7 8 21.5 15t22.5 7h224q25 0 40.5 -16.5t15.5 -37.5q0 -18 -13 -36zM123 1410q0 23 17 39.5t40 16.5h1183q25 0 40.5 -16.5t15.5 -39.5v-293l-684 -713h655q26 0 41.5 -17t15.5 -40v-291q0 -23 -15.5 -39.5t-41.5 -16.5h-1283q-26 0 -41 16.5t-15 39.5v304l673 703
h-544q-23 0 -40 16.5t-17 41.5v289z" />
    <glyph glyph-name="zcaron" unicode="&#x17e;" horiz-adv-x="1240" 
d="M719 1089q-7 -8 -22 -15t-23 -7h-258q-9 0 -23.5 7.5t-20.5 14.5q-24 32 -49 64t-51 64q-25 32 -50 64.5t-48 63.5q-14 17 -14 36q0 20 15.5 36.5t41.5 16.5h222q8 0 23.5 -7t20.5 -14q15 -18 25 -31t21 -27q6 -7 8.5 -9t10.5 -13q8 11 15.5 19.5t15.5 18.5q8 11 17 21
t17 20q7 8 21.5 15t22.5 7h224q25 0 40.5 -16.5t15.5 -37.5q0 -18 -13 -36zM56 1006q0 23 16.5 39.5t39.5 16.5h928q23 0 39.5 -16.5t16.5 -39.5v-222q0 -5 -3.5 -12.5t-6.5 -10.5q-51 -52 -99.5 -101.5l-97 -99t-97.5 -99t-100 -101.5h443q25 0 40.5 -15t15.5 -41v-248
q0 -23 -15.5 -39.5t-40.5 -16.5h-1013q-23 0 -39.5 16.5t-16.5 39.5v256q0 4 3 7l375 383h-332q-23 0 -39.5 15t-16.5 41v248z" />
    <glyph glyph-name="florin" unicode="&#x192;" horiz-adv-x="1357" 
d="M1043 1074q-5 -7 -10.5 -25.5t-13.5 -42.5h108q28 0 44 -21t9 -48v1q-14 -65 -28 -129t-27 -130q-4 -17 -19.5 -30.5t-35.5 -13.5h-130q-8 -33 -15 -70t-14 -69q-11 -53 -24 -110t-24 -111q-21 -97 -41.5 -192.5t-40.5 -192.5q-29 -135 -119.5 -205.5t-256.5 -70.5
q-145 0 -323 55q-20 8 -31.5 27.5t-3.5 42.5l-1 -1l16 58t16 59q8 29 17 58t17 59v-1q2 12 9 21t17 14t21.5 6t23.5 -4h-1q43 -14 73 -22t48 -8q10 0 16 6q7 6 18 61l127 590h-103q-28 0 -44.5 19t-11.5 48l53 259q4 17 20 31t36 14h130q0 7 2 15q2 11 4.5 21.5t4.5 22.5
q2 8 3 14.5t3 13.5q3 15 6 29t6 27q13 67 41.5 122t74.5 94t111.5 60.5t152.5 21.5q155 0 326 -60q18 -7 29.5 -28t6.5 -40q-17 -57 -32.5 -116.5t-32.5 -116.5q-8 -26 -31 -36t-45 -1q-72 31 -114 31q-11 0 -17 -6z" />
    <glyph glyph-name="circumflex" unicode="&#x2c6;" horiz-adv-x="874" 
d="M266 1414q4 4 7 4q9 7 20.5 11.5t17.5 4.5h258q7 0 23 -7t22 -15q24 -32 48.5 -64t50.5 -64q25 -32 50.5 -64t49.5 -64q13 -20 13 -36q0 -22 -15.5 -37.5t-41.5 -15.5h-223q-9 0 -24 7.5t-20 13.5q-8 9 -15 17.5t-13 16.5q-10 13 -17 21t-21 26q-5 -7 -10 -13l-10 -12
q-11 -14 -22 -27.5t-22 -27.5q-5 -7 -20 -14.5t-24 -7.5h-223q-25 0 -41 16t-16 38q0 18 13 36z" />
    <glyph glyph-name="tilde" unicode="&#x2dc;" horiz-adv-x="870" 
d="M757 1424q23 0 38.5 -15.5t17.5 -36.5q1 -12 1 -24v-20q0 -61 -16.5 -109t-48.5 -83q-67 -72 -170 -72q-33 0 -82.5 13.5t-111.5 38.5q-28 11 -48.5 17.5t-28.5 6.5q-5 0 -2.5 -1.5t1.5 -16.5q-2 -23 -17 -39.5t-38 -16.5h-139q-23 0 -38.5 15t-17.5 36q-1 11 -1 22.5
v19.5q0 116 69 191q69 74 165 74q40 0 73 -10q18 -5 46.5 -15t62.5 -26q29 -12 52.5 -19t34.5 -7q-1 0 -1 5t2 19q2 22 17.5 37.5t38.5 15.5h141z" />
    <glyph glyph-name="endash" unicode="&#x2013;" horiz-adv-x="1173" 
d="M61 634q0 23 16.5 39.5t39.5 16.5h939q23 0 39.5 -16.5t16.5 -39.5v-198q0 -26 -16.5 -41t-39.5 -15h-939q-23 0 -39.5 15t-16.5 41v198z" />
    <glyph glyph-name="emdash" unicode="&#x2014;" horiz-adv-x="2088" 
d="M61 634q0 23 15.5 39.5t40.5 16.5h1854q26 0 41 -16.5t15 -39.5v-198q0 -26 -15 -41t-41 -15h-1854q-25 0 -40.5 15t-15.5 41v198z" />
    <glyph glyph-name="quoteleft" unicode="&#x2018;" horiz-adv-x="614" 
d="M552 661q0 -26 -16.5 -41t-39.5 -15h-390q-23 0 -39.5 15t-16.5 41v298q0 93 21 166t60 130q79 108 258 187q21 8 41.5 1.5t29.5 -26.5l85 -161q11 -19 3 -41.5t-29 -33.5q-45 -23 -76.5 -43t-45.5 -40q-10 -10 -15 -21h114q23 0 39.5 -15.5t16.5 -40.5v-360z" />
    <glyph glyph-name="quoteright" unicode="&#x2019;" horiz-adv-x="613" 
d="M61 1391q0 23 16.5 39.5t39.5 16.5h390q23 0 39.5 -16.5t16.5 -39.5v-301q0 -91 -21 -164.5t-60 -130.5q-78 -108 -257 -185q-22 -9 -42 -2t-30 24l-85 160q-5 10 -5.5 21.5t3 22.5t10.5 20t18 14q18 9 36 19t34 20.5t29.5 20.5t21.5 18q1 2 5.5 10t8.5 15h-112
q-23 0 -39.5 16t-16.5 40v362z" />
    <glyph glyph-name="quotesinglbase" unicode="&#x201a;" horiz-adv-x="613" 
d="M61 417q0 24 16.5 40t39.5 16h390q23 0 39.5 -16t16.5 -40v-299q0 -91 -21 -165t-60 -130q-79 -107 -265 -190q-17 -6 -35 1t-29 26l-85 159q-5 10 -5.5 21.5t3 22.5t10.5 20t18 14q45 22 76.5 41.5t45.5 38.5q5 5 9 11t7 12h-115q-23 0 -39.5 16.5t-16.5 39.5v361z" />
    <glyph glyph-name="quotedblleft" unicode="&#x201c;" horiz-adv-x="1024" 
d="M538 661q0 -26 -16.5 -41t-39.5 -15h-390q-23 0 -39.5 15t-16.5 41v298q0 93 21 166t60 130q79 108 258 187q21 8 41.5 1.5t29.5 -26.5l85 -161q11 -19 3 -41.5t-29 -33.5q-45 -23 -76.5 -43t-45.5 -40q-10 -10 -15 -21h114q23 0 39.5 -15.5t16.5 -40.5v-360zM1044 661
q0 -26 -16.5 -41t-39.5 -15h-390q-23 0 -39.5 15t-16.5 41v298q0 93 21 166t60 130q79 108 258 187q21 8 41.5 1.5t29.5 -26.5l85 -161q11 -19 3 -41.5t-29 -33.5q-45 -23 -76.5 -43t-45.5 -40q-10 -10 -15 -21h114q23 0 39.5 -15.5t16.5 -40.5v-360z" />
    <glyph glyph-name="quotedblright" unicode="&#x201d;" horiz-adv-x="1024" 
d="M47 1391q0 23 16.5 39.5t39.5 16.5h390q23 0 39.5 -16.5t16.5 -39.5v-301q0 -91 -21 -164.5t-60 -130.5q-78 -108 -257 -185q-22 -9 -42 -2t-30 24l-85 160q-5 10 -5.5 21.5t3 22.5t10.5 20t18 14q18 9 36 19t34 20.5t29.5 20.5t21.5 18q1 2 5.5 10t8.5 15h-112
q-23 0 -39.5 16t-16.5 40v362zM553 1391q0 23 16.5 39.5t39.5 16.5h390q23 0 39.5 -16.5t16.5 -39.5v-301q0 -91 -21 -164.5t-60 -130.5q-78 -108 -257 -185q-22 -9 -42 -2t-30 24l-85 160q-5 10 -5.5 21.5t3 22.5t10.5 20t18 14q18 9 36 19t34 20.5t29.5 20.5t21.5 18
q1 2 5.5 10t8.5 15h-112q-23 0 -39.5 16t-16.5 40v362z" />
    <glyph glyph-name="quotedblbase" unicode="&#x201e;" horiz-adv-x="1024" 
d="M47 417q0 24 16.5 40t39.5 16h390q23 0 39.5 -16t16.5 -40v-299q0 -91 -21 -165t-60 -130q-79 -107 -265 -190q-17 -6 -35 1t-29 26l-85 159q-5 10 -5.5 21.5t3 22.5t10.5 20t18 14q45 22 76.5 41.5t45.5 38.5q5 5 9 11t7 12h-115q-23 0 -39.5 16.5t-16.5 39.5v361z
M553 417q0 24 16.5 40t39.5 16h390q23 0 39.5 -16t16.5 -40v-299q0 -91 -21 -165t-60 -130q-79 -107 -265 -190q-17 -6 -35 1t-29 26l-85 159q-5 10 -5.5 21.5t3 22.5t10.5 20t18 14q45 22 76.5 41.5t45.5 38.5q5 5 9 11t7 12h-115q-23 0 -39.5 16.5t-16.5 39.5v361z" />
    <glyph glyph-name="dagger" unicode="&#x2020;" horiz-adv-x="1163" 
d="M367 1368q0 24 15.5 40t39.5 16h315q23 0 39.5 -16t16.5 -40v-284h279q23 0 39.5 -16.5t16.5 -39.5v-265q0 -24 -16.5 -40t-39.5 -16h-279v-1016q0 -23 -16.5 -39.5t-39.5 -16.5h-315q-24 0 -39.5 16.5t-15.5 39.5v1016h-277q-22 0 -38.5 16t-16.5 40v265q0 23 16.5 39.5
t38.5 16.5h277v284z" />
    <glyph glyph-name="daggerdbl" unicode="&#x2021;" horiz-adv-x="1175" 
d="M373 1368q0 24 15.5 40t39.5 16h315q23 0 39.5 -16t16.5 -40v-243h279q23 0 39.5 -16.5t16.5 -39.5v-266q0 -24 -16.5 -40t-39.5 -16h-279v-436h279q23 0 39.5 -16t16.5 -40v-265q0 -23 -16.5 -39.5t-39.5 -16.5h-279v-243q0 -23 -16.5 -39.5t-39.5 -16.5h-315
q-24 0 -39.5 16.5t-15.5 39.5v243h-277q-22 0 -38.5 16.5t-16.5 39.5v265q0 24 16.5 40t38.5 16h277v436h-277q-22 0 -38.5 16t-16.5 40v266q0 23 16.5 39.5t38.5 16.5h277v243z" />
    <glyph glyph-name="bullet" unicode="&#x2022;" horiz-adv-x="805" 
d="M755 701q0 -148 -102 -250q-104 -103 -251 -103q-146 0 -250 103q-102 102 -102 250q0 145 102 250q53 53 114.5 77.5t135.5 24.5q75 0 136.5 -24.5t114.5 -77.5q102 -103 102 -250z" />
    <glyph glyph-name="ellipsis" unicode="&#x2026;" horiz-adv-x="2048" 
d="M63 421q0 23 16 39t40 16h389q24 0 39.5 -16t15.5 -39v-365q0 -23 -15.5 -39.5t-39.5 -16.5h-389q-24 0 -40 16.5t-16 39.5v365zM746 421q0 23 16 39t40 16h389q24 0 39.5 -16t15.5 -39v-365q0 -23 -15.5 -39.5t-39.5 -16.5h-389q-24 0 -40 16.5t-16 39.5v365zM1428 421
q0 23 16 39t40 16h389q24 0 39.5 -16t15.5 -39v-365q0 -23 -15.5 -39.5t-39.5 -16.5h-389q-24 0 -40 16.5t-16 39.5v365z" />
    <glyph glyph-name="perthousand" unicode="&#x2030;" horiz-adv-x="2037" 
d="M52 1044q0 203 89 301q45 50 104 76t133 26q75 0 134 -26t105 -76q45 -50 67.5 -121t22.5 -169q0 -210 -89 -310q-91 -100 -240 -100q-147 0 -237 100q-89 98 -89 299zM352 1044q0 -57 3.5 -90t9.5 -47q3 -4 7 -7.5t6 -3.5t6 3.5t7 6.5q6 14 10 48.5t4 89.5q0 58 -4 92.5
t-11 47.5q-7 10 -12 10t-12 -10q-6 -14 -10 -48.5t-4 -91.5zM838 1408q6 16 21.5 27.5t30.5 11.5h161q16 0 27.5 -7t18.5 -17.5t8 -24t-3 -26.5l-511 -1400q-6 -16 -21 -27.5t-31 -11.5h-160q-16 0 -28 7t-19 17.5t-8.5 24t2.5 26.5zM718 335q0 203 88 300q46 51 104.5 76
t134.5 25q75 0 133 -25t104 -76t67.5 -122.5t21.5 -168.5q0 -207 -89 -310q-45 -48 -105 -74.5t-132 -26.5q-76 0 -135 26t-105 75q-87 99 -87 301zM1055 473v2l1 -2h-1zM1017 334q0 -59 4.5 -93t11.5 -47q4 -8 12 -8q5 0 9 8q7 13 11.5 47t4.5 93q0 58 -4.5 91.5
t-10.5 47.5q-6 11 -10 11q-5 0 -12 -10q-7 -13 -11.5 -47t-4.5 -93zM1343 335q0 203 88 300q92 101 240 101q144 0 236 -101q90 -99 90 -291q0 -106 -22 -182.5t-67 -127.5q-45 -49 -104.5 -75t-132.5 -26q-75 0 -134.5 26t-106.5 75q-87 100 -87 301zM1642 334q0 -59 4 -93
t12 -47q4 -8 12 -8q4 0 13 11l-1 -3q5 14 9.5 48.5t4.5 91.5t-3.5 90.5t-9.5 47.5q-3 4 -7 8t-6 4q-5 0 -12 -10q-8 -13 -12 -47t-4 -93z" />
    <glyph glyph-name="guilsinglleft" unicode="&#x2039;" horiz-adv-x="775" 
d="M334 978q7 8 22.5 16.5t23.5 8.5h280q26 0 41.5 -14.5t15.5 -37.5q0 -18 -11 -33l1 1q-60 -101 -115 -193.5t-116 -192.5q11 -17 20.5 -33t19.5 -35q17 -29 35 -58.5t35 -58.5q26 -42 52 -85t51 -85l-1 1q5 -7 9 -15t9 -15q11 -19 11 -33q0 -23 -15.5 -37.5t-41.5 -14.5
h-280q-4 0 -11 2t-13.5 5.5t-12.5 7.5t-9 7l-284 415q-8 12 -8.5 32t7.5 31z" />
    <glyph glyph-name="guilsinglright" unicode="&#x203a;" horiz-adv-x="682" 
d="M348.021 978q-7 8 -22.499 16.5t-23.498 8.5h-279.983q-25.998 0 -41.4971 -14.5t-15.499 -37.5q0 -18 10.999 -33l-1 1q59.9961 -101 114.993 -193.5t115.993 -192.5q-11 -17 -20.499 -33t-19.499 -35q-16.999 -29 -34.998 -58.5q-17.998 -29.5 -34.9971 -58.5
q-25.999 -42 -51.9971 -85t-50.9971 -85l1 1q-5 -7 -8.99902 -15q-4 -8 -9 -15q-10.999 -19 -10.999 -33q0 -23 15.499 -37.5t41.4971 -14.5h279.983q4 0 10.999 2q7 2 13.499 5.5q6.5 3.5 12.499 7.5q6 4 9 7l283.982 415q8 12 8.5 32t-7.5 31z" />
    <glyph glyph-name="Euro" unicode="&#x20ac;" horiz-adv-x="1377" 
d="M1022 754q-6 -21 -25 -33q23 -5 34 -24t6 -42q-4 -22 -9.5 -43t-10.5 -44q-10 -40 -17 -74q-4 -17 -20.5 -31t-34.5 -14h-180q46 -55 138 -55q88 0 171 28.5t158 84.5q15 12 34 12q22 0 38 -15.5t16 -41.5v-333q0 -9 -8 -24.5t-16 -22.5q-75 -50 -169.5 -77.5
t-198.5 -27.5q-168 0 -297.5 41.5t-214.5 119.5q-76 75 -124 148t-70 163h-117q-28 0 -44.5 20.5t-9.5 48.5l41 157q7 23 27 37q-25 4 -38.5 23.5t-6.5 44.5l40 157q7 18 22.5 33.5t33.5 15.5h55q139 461 682 461q94 0 186 -25t185 -73h-1q17 -8 25.5 -28t2.5 -35l1 1
q-10 -41 -19.5 -81.5t-20.5 -81.5q-11 -42 -20.5 -82t-19.5 -80q-5 -20 -20 -32t-32 -12q-10 0 -20 4t-19 10q-108 99 -217 99q-82 0 -133 -45h221q28 0 43.5 -21.5t10.5 -46.5l-12 -50q-7 -29 -13.5 -57t-12.5 -57z" />
    <glyph glyph-name="trademark" unicode="&#x2122;" horiz-adv-x="1862" 
d="M53 1368q0 24 15.5 40t39.5 16h718q23 0 39 -16t16 -40v-173q0 -26 -16 -41t-39 -15h-201v-500q0 -25 -15.5 -40.5t-39.5 -15.5h-211q-22 0 -38.5 15.5t-16.5 40.5v500h-196q-24 0 -39.5 15t-15.5 41v173zM853 1368q0 24 15.5 40t40.5 16h319q20 0 35 -13t19 -30
q8 -30 14.5 -56.5t12.5 -49.5q5 -20 10.5 -40t11.5 -44q4 14 7.5 29t8.5 29q8 32 17 64t17 63q6 18 22.5 33t32.5 15h309q26 0 41 -16t15 -40v-729q0 -25 -15 -40.5t-41 -15.5h-198q-23 0 -38.5 15.5t-15.5 40.5v92l-15 -56q-4 -13 -7 -25.5t-7 -26.5q-5 -17 -21 -28.5
t-33 -11.5h-164q-17 0 -33 11.5t-21 28.5l-27 100v-84q0 -25 -15 -40.5t-41 -15.5h-200q-25 0 -40.5 15.5t-15.5 40.5v729z" />
    <glyph glyph-name="glyph2" horiz-adv-x="0" 
 />
    <glyph glyph-name="pi1" horiz-adv-x="1411" 
d="M54 1007q0 23 15.5 39.5t40.5 16.5h1191q23 0 39 -16.5t16 -39.5v-181q0 -23 -16 -39.5t-39 -16.5h-96v-714q0 -23 -15.5 -39.5t-39.5 -16.5h-258q-24 0 -40 16.5t-16 39.5v714h-260v-714q0 -23 -15 -39.5t-41 -16.5h-261q-23 0 -39.5 16.5t-16.5 39.5v714h-93
q-25 0 -40.5 16.5t-15.5 39.5v181z" />
    <glyph glyph-name="apple" horiz-adv-x="1621" 
 />
    <glyph glyph-name="noGamma" horiz-adv-x="683" 
 />
    <glyph glyph-name="noTheta" horiz-adv-x="683" 
 />
    <glyph glyph-name="noPhi" horiz-adv-x="683" 
 />
    <glyph glyph-name="noalpha" horiz-adv-x="683" 
 />
    <glyph glyph-name="nodelta" horiz-adv-x="683" 
 />
    <glyph glyph-name="noepsilon" horiz-adv-x="683" 
 />
    <glyph glyph-name="nosigma" horiz-adv-x="683" 
 />
    <glyph glyph-name="notau" horiz-adv-x="683" 
 />
    <glyph glyph-name="nophi" horiz-adv-x="683" 
 />
    <glyph glyph-name="commaaccent" horiz-adv-x="467" 
d="M62 -53q0 25 16.5 40.5t38.5 15.5h243q24 0 40 -15.5t16 -40.5v-176q0 -56 -13 -102t-37 -81q-51 -69 -161 -118q-19 -8 -38 -3.5t-28 16.5l-68 100q-7 10 -8.5 22t2 23t11 20.5t19.5 14.5l17 8.5t15 8.5h-10q-22 0 -38.5 16.5t-16.5 39.5v211z" />
    <glyph glyph-name="undercommaaccent" horiz-adv-x="756" 
d="M169 33q3 10 17 21t28 16q42 10 82.5 15t82.5 5q176 0 248 -66q38 -35 57.5 -75.5t19.5 -88.5q0 -61 -33 -116q-35 -61 -122 -97q-80 -33 -203 -33q-56 0 -117.5 6t-131.5 17q-18 4 -32 20t-14 36v111q0 26 20 43t46 12q93 -18 187 -18q45 0 60.5 5.5t15.5 13.5
q0 7 -36 7q-28 0 -63.5 -3.5t-79.5 -11.5q-32 -4 -50.5 17t-9.5 52v-1z" />
    <glyph glyph-name="glyph1" horiz-adv-x="1154" 
d="M119 0q-25 0 -40.5 16.5t-15.5 39.5v1145q0 26 15.5 41t40.5 15h916q24 0 40 -15t16 -41v-1145q0 -23 -16 -39.5t-40 -16.5h-916zM203 139h747v978h-747v-978z" />
    </font>
</defs>
</svg>
